font.ufo
<glyph name="numbersign" format="1">
	<unicode hex="0023"/>
	<advance width="600"/>
	<outline>
		<contour>
			<point x="328" y="0" type="line"/>
			<point x="382" y="0" type="line"/>
			<point x="461" y="650" type="line"/>
			<point x="408" y="650" type="line"/>
		</contour>
		<contour>
			<point x="142" y="0" type="line"/>
			<point x="196" y="0" type="line"/>
			<point x="275" y="650" type="line"/>
			<point x="222" y="650" type="line"/>
		</contour>
		<contour>
			<point x="107" y="409" type="line"/>
			<point x="519" y="409" type="line"/>
			<point x="519" y="467" type="line"/>
			<point x="107" y="467" type="line"/>
		</contour>
		<contour>
			<point x="87" y="204" type="line"/>
			<point x="499" y="204" type="line"/>
			<point x="499" y="261" type="line"/>
			<point x="87" y="261" type="line"/>
		</contour>
	</outline>
</glyph>
<glyph name="dollar" format="1">
	<unicode hex="0024"/>
	<advance width="600"/>
	<outline>
		<contour>
			<point x="85" y="113" type="line"/>
			<point x="136" y="70"/>
			<point x="218" y="34"/>
			<point x="300" y="34" type="curve" smooth="yes"/>
			<point x="425" y="34"/>
			<point x="512" y="99"/>
			<point x="512" y="195" type="curve" smooth="yes"/>
			<point x="512" y="378"/>
			<point x="194" y="357"/>
			<point x="194" y="467" type="curve" smooth="yes"/>
			<point x="194" y="518"/>
			<point x="237" y="550"/>
			<point x="304" y="550" type="curve" smooth="yes"/>
			<point x="371" y="550"/>
			<point x="406" y="528"/>
			<point x="451" y="493" type="curve"/>
			<point x="495" y="541" type="line"/>
			<point x="450" y="585"/>
			<point x="398" y="618"/>
			<point x="310" y="618" type="curve" smooth="yes"/>
			<point x="195" y="618"/>
			<point x="114" y="559"/>
			<point x="114" y="465" type="curve" smooth="yes"/>
			<point x="114" y="291"/>
			<point x="431" y="313"/>
			<point x="431" y="189" type="curve" smooth="yes"/>
			<point x="431" y="138"/>
			<point x="389" y="102"/>
			<point x="310" y="102" type="curve" smooth="yes"/>
			<point x="235" y="102"/>
			<point x="174" y="134"/>
			<point x="124" y="170" type="curve"/>
		</contour>
		<contour>
			<point x="276" y="587" type="line"/>
			<point x="336" y="587" type="line"/>
			<point x="336" y="748" type="line"/>
			<point x="276" y="748" type="line"/>
		</contour>
		<contour>
			<point x="276" y="63" type="line"/>
			<point x="276" y="-110" type="line"/>
			<point x="336" y="-110" type="line"/>
			<point x="336" y="63" type="line"/>
		</contour>
	</outline>
</glyph>
<glyph name="parenleft" format="1">
	<unicode hex="0028"/>
	<advance width="600"/>
	<outline>
		<contour>
			<point x="433" y="-176" type="curve"/>
			<point x="478" y="-134" type="line"/>
			<point x="344" y="-21"/>
			<point x="282" y="110"/>
			<point x="282" y="278" type="curve" smooth="yes"/>
			<point x="282" y="446"/>
			<point x="344" y="577"/>
			<point x="478" y="690" type="curve"/>
			<point x="433" y="732" type="line"/>
			<point x="294" y="624"/>
			<point x="208" y="471"/>
			<point x="208" y="278" type="curve" smooth="yes"/>
			<point x="208" y="85"/>
			<point x="294" y="-68"/>
		</contour>
	</outline>
</glyph>
<glyph name="asterisk" format="1">
	<unicode hex="002A"/>
	<advance width="600"/>
	<outline>
		<contour>
			<point x="180" y="111" type="line"/>
			<point x="300" y="270" type="line"/>
			<point x="420" y="111" type="line"/>
			<point x="462" y="141" type="line"/>
			<point x="354" y="306" type="line"/>
			<point x="516" y="376" type="line"/>
			<point x="500" y="422" type="line"/>
			<point x="333" y="367" type="line"/>
			<point x="324" y="556" type="line"/>
			<point x="276" y="556" type="line"/>
			<point x="267" y="367" type="line"/>
			<point x="100" y="422" type="line"/>
			<point x="84" y="376" type="line"/>
			<point x="246" y="306" type="line"/>
			<point x="138" y="141" type="line"/>
		</contour>
	</outline>
</glyph>
<glyph name="slash" format="1">
	<unicode hex="002F"/>
	<advance width="600"/>
	<outline>
		<contour>
			<point x="99" y="-160" type="line"/>
			<point x="173" y="-160" type="line"/>
			<point x="501" y="710" type="line"/>
			<point x="427" y="710" type="line"/>
		</contour>
	</outline>
</glyph>
<glyph name="one" format="1">
	<unicode hex="0031"/>
	<advance width="600"/>
	<outline>
		<contour>
			<point x="97" y="0" type="line"/>
			<point x="530" y="0" type="line"/>
			<point x="530" y="68" type="line"/>
			<point x="363" y="68" type="line"/>
			<point x="363" y="638" type="line"/>
			<point x="302" y="638" type="line"/>
			<point x="261" y="616"/>
			<point x="213" y="601"/>
			<point x="138" y="591" type="curve"/>
			<point x="138" y="538" type="line"/>
			<point x="281" y="538" type="line"/>
			<point x="281" y="68" type="line"/>
			<point x="97" y="68" type="line"/>
		</contour>
	</outline>
</glyph>
<glyph name="five" format="1">
	<unicode hex="0035"/>
	<advance width="600"/>
	<outline>
		<contour>
			<point x="286" y="-12" type="curve" smooth="yes"/>
			<point x="408" y="-12"/>
			<point x="522" y="66"/>
			<point x="522" y="204" type="curve" smooth="yes"/>
			<point x="522" y="342"/>
			<point x="425" y="404"/>
			<point x="303" y="404" type="curve" smooth="yes"/>
			<point x="254" y="404"/>
			<point x="222" y="394"/>
			<point x="185" y="378" type="curve"/>
			<point x="202" y="567" type="line"/>
			<point x="490" y="567" type="line"/>
			<point x="490" y="638" type="line"/>
			<point x="129" y="638" type="line"/>
			<point x="108" y="331" type="line"/>
			<point x="152" y="303" type="line"/>
			<point x="197" y="328"/>
			<point x="229" y="342"/>
			<point x="282" y="342" type="curve" smooth="yes"/>
			<point x="377" y="342"/>
			<point x="439" y="290"/>
			<point x="439" y="202" type="curve" smooth="yes"/>
			<point x="439" y="113"/>
			<point x="367" y="56"/>
			<point x="277" y="56" type="curve" smooth="yes"/>
			<point x="191" y="56"/>
			<point x="139" y="91"/>
			<point x="97" y="129" type="curve"/>
			<point x="56" y="75" type="line"/>
			<point x="105" y="31"/>
			<point x="172" y="-12"/>
		</contour>
	</outline>
</glyph>
<glyph name="seven" format="1">
	<unicode hex="0037"/>
	<advance width="600"/>
	<outline>
		<contour>
			<point x="226" y="0" type="curve"/>
			<point x="312" y="0" type="line"/>
			<point x="321" y="250"/>
			<point x="363" y="394"/>
			<point x="532" y="587" type="curve"/>
			<point x="532" y="638" type="line"/>
			<point x="70" y="638" type="line"/>
			<point x="70" y="567" type="line"/>
			<point x="438" y="567" type="line"/>
			<point x="292" y="388"/>
			<point x="237" y="242"/>
		</contour>
	</outline>
</glyph>
<glyph name="eight" format="1">
	<unicode hex="0038"/>
	<advance width="600"/>
	<outline>
		<contour>
			<point x="302" y="-12" type="curve" smooth="yes"/>
			<point x="448" y="-12"/>
			<point x="531" y="63"/>
			<point x="531" y="158" type="curve" smooth="yes"/>
			<point x="531" y="249"/>
			<point x="476" y="289"/>
			<point x="406" y="324" type="curve"/>
			<point x="406" y="328" type="line"/>
			<point x="459" y="365"/>
			<point x="503" y="420"/>
			<point x="503" y="480" type="curve" smooth="yes"/>
			<point x="503" y="579"/>
			<point x="430" y="650"/>
			<point x="305" y="650" type="curve" smooth="yes"/>
			<point x="191" y="650"/>
			<point x="108" y="584"/>
			<point x="108" y="486" type="curve" smooth="yes"/>
			<point x="108" y="419"/>
			<point x="152" y="370"/>
			<point x="205" y="337" type="curve"/>
			<point x="205" y="333" type="line"/>
			<point x="137" y="301"/>
			<point x="68" y="251"/>
			<point x="68" y="163" type="curve" smooth="yes"/>
			<point x="68" y="62"/>
			<point x="158" y="-12"/>
		</contour>
		<contour>
			<point x="352" y="348" type="curve"/>
			<point x="257" y="378"/>
			<point x="183" y="410"/>
			<point x="183" y="486" type="curve" smooth="yes"/>
			<point x="183" y="548"/>
			<point x="232" y="589"/>
			<point x="303" y="589" type="curve" smooth="yes"/>
			<point x="387" y="589"/>
			<point x="432" y="539"/>
			<point x="432" y="476" type="curve" smooth="yes"/>
			<point x="432" y="429"/>
			<point x="404" y="386"/>
		</contour>
		<contour>
			<point x="304" y="49" type="curve" smooth="yes"/>
			<point x="206" y="49"/>
			<point x="143" y="100"/>
			<point x="143" y="171" type="curve" smooth="yes"/>
			<point x="143" y="235"/>
			<point x="190" y="276"/>
			<point x="252" y="310" type="curve"/>
			<point x="364" y="272"/>
			<point x="452" y="250"/>
			<point x="452" y="161" type="curve" smooth="yes"/>
			<point x="452" y="95"/>
			<point x="399" y="49"/>
		</contour>
	</outline>
</glyph>
<glyph name="nine" format="1">
	<unicode hex="0039"/>
	<advance width="600"/>
	<outline>
		<contour>
			<point x="257" y="-12" type="curve" smooth="yes"/>
			<point x="395" y="-12"/>
			<point x="524" y="87"/>
			<point x="524" y="343" type="curve" smooth="yes"/>
			<point x="524" y="548"/>
			<point x="418" y="650"/>
			<point x="279" y="650" type="curve" smooth="yes"/>
			<point x="166" y="650"/>
			<point x="67" y="567"/>
			<point x="67" y="445" type="curve" smooth="yes"/>
			<point x="67" y="314"/>
			<point x="147" y="248"/>
			<point x="265" y="248" type="curve" smooth="yes"/>
			<point x="332" y="248"/>
			<point x="398" y="281"/>
			<point x="451" y="335" type="curve"/>
			<point x="448" y="400" type="line"/>
			<point x="392" y="335"/>
			<point x="331" y="310"/>
			<point x="281" y="310" type="curve" smooth="yes"/>
			<point x="192" y="310"/>
			<point x="145" y="358"/>
			<point x="145" y="445" type="curve" smooth="yes"/>
			<point x="145" y="529"/>
			<point x="204" y="585"/>
			<point x="280" y="585" type="curve" smooth="yes"/>
			<point x="386" y="585"/>
			<point x="446" y="500"/>
			<point x="446" y="343" type="curve" smooth="yes"/>
			<point x="446" y="129"/>
			<point x="355" y="56"/>
			<point x="252" y="56" type="curve" smooth="yes"/>
			<point x="203" y="56"/>
			<point x="157" y="76"/>
			<point x="125" y="107" type="curve"/>
			<point x="79" y="55" type="line"/>
			<point x="121" y="17"/>
			<point x="179" y="-12"/>
		</contour>
	</outline>
</glyph>
<glyph name="less" format="1">
	<unicode hex="003C"/>
	<advance width="600"/>
	<outline>
		<contour>
			<point x="493" y="48" type="line"/>
			<point x="493" y="127" type="line"/>
			<point x="192" y="330" type="line"/>
			<point x="192" y="334" type="line"/>
			<point x="493" y="537" type="line"/>
			<point x="493" y="616" type="line"/>
			<point x="120" y="363" type="line"/>
			<point x="120" y="301" type="line"/>
		</contour>
	</outline>
</glyph>
<glyph name="greater" format="1">
	<unicode hex="003E"/>
	<advance width="600"/>
	<outline>
		<contour>
			<point x="107" y="48" type="line"/>
			<point x="480" y="301" type="line"/>
			<point x="480" y="363" type="line"/>
			<point x="107" y="616" type="line"/>
			<point x="107" y="537" type="line"/>
			<point x="408" y="334" type="line"/>
			<point x="408" y="330" type="line"/>
			<point x="107" y="127" type="line"/>
		</contour>
	</outline>
</glyph>
<glyph name="question" format="1">
	<unicode hex="003F"/>
	<advance width="600"/>
	<outline>
		<contour>
			<point x="242" y="232" type="curve"/>
			<point x="315" y="232" type="line"/>
			<point x="297" y="362"/>
			<point x="479" y="390"/>
			<point x="479" y="526" type="curve" smooth="yes"/>
			<point x="479" y="621"/>
			<point x="404" y="682"/>
			<point x="293" y="682" type="curve" smooth="yes"/>
			<point x="216" y="682"/>
			<point x="154" y="648"/>
			<point x="109" y="601" type="curve"/>
			<point x="158" y="556" type="line"/>
			<point x="194" y="592"/>
			<point x="237" y="614"/>
			<point x="288" y="614" type="curve" smooth="yes"/>
			<point x="361" y="614"/>
			<point x="398" y="572"/>
			<point x="398" y="517" type="curve" smooth="yes"/>
			<point x="398" y="415"/>
			<point x="218" y="375"/>
		</contour>
		<contour>
			<point x="286" y="-12" type="curve" smooth="yes"/>
			<point x="326" y="-12"/>
			<point x="359" y="18"/>
			<point x="359" y="66" type="curve" smooth="yes"/>
			<point x="359" y="113"/>
			<point x="326" y="142"/>
			<point x="286" y="142" type="curve" smooth="yes"/>
			<point x="246" y="142"/>
			<point x="213" y="113"/>
			<point x="213" y="66" type="curve" smooth="yes"/>
			<point x="213" y="18"/>
			<point x="246" y="-12"/>
		</contour>
	</outline>
</glyph>
<glyph name="at" format="1">
	<unicode hex="0040"/>
	<advance width="600"/>
	<outline>
		<contour>
			<point x="341" y="-144" type="curve" smooth="yes"/>
			<point x="407" y="-144"/>
			<point x="460" y="-125"/>
			<point x="512" y="-89" type="curve"/>
			<point x="484" y="-44" type="line"/>
			<point x="445" y="-73"/>
			<point x="403" y="-89"/>
			<point x="343" y="-89" type="curve" smooth="yes"/>
			<point x="213" y="-89"/>
			<point x="112" y="33"/>
			<point x="112" y="247" type="curve" smooth="yes"/>
			<point x="112" y="468"/>
			<point x="219" y="580"/>
			<point x="339" y="580" type="curve" smooth="yes"/>
			<point x="444" y="580"/>
			<point x="488" y="500"/>
			<point x="488" y="404" type="curve" smooth="yes"/>
			<point x="488" y="390" type="line"/>
			<point x="318" y="369"/>
			<point x="224" y="321"/>
			<point x="224" y="219" type="curve" smooth="yes"/>
			<point x="224" y="138"/>
			<point x="282" y="88"/>
			<point x="353" y="88" type="curve" smooth="yes"/>
			<point x="405" y="88"/>
			<point x="456" y="121"/>
			<point x="485" y="158" type="curve"/>
			<point x="489" y="158" type="line"/>
			<point x="496" y="100" type="line"/>
			<point x="546" y="100" type="line"/>
			<point x="546" y="397" type="line" smooth="yes"/>
			<point x="546" y="532"/>
			<point x="481" y="635"/>
			<point x="343" y="635" type="curve" smooth="yes"/>
			<point x="178" y="635"/>
			<point x="49" y="505"/>
			<point x="49" y="250" type="curve" smooth="yes"/>
			<point x="49" y="-7"/>
			<point x="183" y="-144"/>
		</contour>
		<contour>
			<point x="370" y="146" type="curve" smooth="yes"/>
			<point x="321" y="146"/>
			<point x="290" y="174"/>
			<point x="290" y="221" type="curve" smooth="yes"/>
			<point x="290" y="282"/>
			<point x="344" y="317"/>
			<point x="482" y="336" type="curve"/>
			<point x="482" y="210" type="line"/>
			<point x="445" y="168"/>
			<point x="406" y="146"/>
		</contour>
	</outline>
</glyph>
<glyph name="A" format="1">
	<unicode hex="0041"/>
	<advance width="600"/>
	<outline>
		<contour>
			<point x="32" y="0" type="line"/>
			<point x="117" y="0" type="line"/>
			<point x="232" y="367" type="line" smooth="yes"/>
			<point x="255" y="440"/>
			<point x="276" y="512"/>
			<point x="297" y="588" type="curve"/>
			<point x="301" y="588" type="line"/>
			<point x="321" y="512"/>
			<point x="343" y="440"/>
			<point x="366" y="367" type="curve" smooth="yes"/>
			<point x="480" y="0" type="line"/>
			<point x="568" y="0" type="line"/>
			<point x="347" y="656" type="line"/>
			<point x="253" y="656" type="line"/>
		</contour>
		<contour>
			<point x="148" y="200" type="line"/>
			<point x="449" y="200" type="line"/>
			<point x="449" y="267" type="line"/>
			<point x="148" y="267" type="line"/>
		</contour>
		<contour>
			<point name="aboveUC" x="300" y="676" type="move"/>
		</contour>
		<contour>
			<point name="ogonekCXT-ATH" x="300" y="0" type="move"/>
		</contour>
		<contour>
			<point name="ogonekUC" x="504" y="0" type="move"/>
		</contour>
		<contour>
			<point name="baseLC" x="520" y="0" type="move"/>
		</contour>
		<contour>
			<point name="belowLC" x="300" y="-20" type="move"/>
		</contour>
	</outline>
</glyph>
<glyph name="C" format="1">
	<unicode hex="0043"/>
	<advance width="600"/>
	<outline>
		<contour>
			<point x="351" y="-12" type="curve" smooth="yes"/>
			<point x="438" y="-12"/>
			<point x="502" y="23"/>
			<point x="554" y="83" type="curve"/>
			<point x="507" y="134" type="line"/>
			<point x="465" y="87"/>
			<point x="419" y="61"/>
			<point x="359" y="61" type="curve" smooth="yes"/>
			<point x="233" y="61"/>
			<point x="151" y="165"/>
			<point x="151" y="330" type="curve" smooth="yes"/>
			<point x="151" y="493"/>
			<point x="233" y="595"/>
			<point x="359" y="595" type="curve" smooth="yes"/>
			<point x="414" y="595"/>
			<point x="457" y="571"/>
			<point x="491" y="535" type="curve"/>
			<point x="538" y="588" type="line"/>
			<point x="500" y="630"/>
			<point x="437" y="668"/>
			<point x="359" y="668" type="curve" smooth="yes"/>
			<point x="188" y="668"/>
			<point x="65" y="539"/>
			<point x="65" y="328" type="curve" smooth="yes"/>
			<point x="65" y="114"/>
			<point x="189" y="-12"/>
		</contour>
		<contour>
			<point name="aboveUC" x="346" y="676" type="move"/>
		</contour>
		<contour>
			<point name="baseLC" x="350" y="0" type="move"/>
		</contour>
		<contour>
			<point name="belowLC" x="344" y="-20" type="move"/>
		</contour>
	</outline>
</glyph>
<glyph name="F" format="2">
	<unicode hex="0046"/>
	<advance width="600"/>
	<outline>
		<contour>
			<point x="133" y="0" type="line"/>
			<point x="217" y="0" type="line"/>
			<point x="217" y="294" type="line"/>
			<point x="487" y="294" type="line"/>
			<point x="487" y="364" type="line"/>
			<point x="217" y="364" type="line"/>
			<point x="217" y="586" type="line"/>
			<point x="536" y="586" type="line"/>
			<point x="536" y="656" type="line"/>
			<point x="133" y="656" type="line"/>
		</contour>
	</outline>
	<anchor name="aboveUC" x="342" y="676"/>
	<anchor name="baseLC" x="170" y="0"/>
	<anchor name="belowLC" x="181" y="-20"/>
</glyph>
<glyph name="H" format="1">
	<unicode hex="0048"/>
	<advance width="600"/>
	<outline>
		<contour>
			<point x="79" y="0" type="line"/>
			<point x="163" y="0" type="line"/>
			<point x="163" y="309" type="line"/>
			<point x="437" y="309" type="line"/>
			<point x="437" y="0" type="line"/>
			<point x="521" y="0" type="line"/>
			<point x="521" y="656" type="line"/>
			<point x="437" y="656" type="line"/>
			<point x="437" y="381" type="line"/>
			<point x="163" y="381" type="line"/>
			<point x="163" y="656" type="line"/>
			<point x="79" y="656" type="line"/>
		</contour>
		<contour>
			<point name="aboveUC" x="300" y="676" type="move"/>
		</contour>
		<contour>
			<point name="baseLC" x="122" y="0" type="move"/>
		</contour>
		<contour>
			<point name="belowLC" x="300" y="-20" type="move"/>
		</contour>
	</outline>
</glyph>
<glyph name="I" format="1">
	<unicode hex="0049"/>
	<advance width="600"/>
	<outline>
		<contour>
			<point x="95" y="0" type="line"/>
			<point x="505" y="0" type="line"/>
			<point x="505" y="71" type="line"/>
			<point x="342" y="71" type="line"/>
			<point x="342" y="586" type="line"/>
			<point x="505" y="586" type="line"/>
			<point x="505" y="656" type="line"/>
			<point x="95" y="656" type="line"/>
			<point x="95" y="586" type="line"/>
			<point x="258" y="586" type="line"/>
			<point x="258" y="71" type="line"/>
			<point x="95" y="71" type="line"/>
		</contour>
		<contour>
			<point name="aboveUC" x="300" y="676" type="move"/>
		</contour>
		<contour>
			<point name="ogonekUC" x="300" y="0" type="move"/>
		</contour>
		<contour>
			<point name="baseLC" x="300" y="0" type="move"/>
		</contour>
		<contour>
			<point name="belowLC" x="300" y="-20" type="move"/>
		</contour>
	</outline>
</glyph>
<glyph name="K" format="2">
	<unicode hex="004B"/>
	<advance width="600"/>
	<outline>
		<contour>
			<point x="98" y="0" type="line"/>
			<point x="182" y="0" type="line"/>
			<point x="182" y="209" type="line"/>
			<point x="556" y="656" type="line"/>
			<point x="461" y="656" type="line"/>
			<point x="185" y="327" type="line"/>
			<point x="182" y="327" type="line"/>
			<point x="182" y="656" type="line"/>
			<point x="98" y="656" type="line"/>
		</contour>
		<contour>
			<point x="486" y="0" type="line"/>
			<point x="580" y="0" type="line"/>
			<point x="334" y="432" type="line"/>
			<point x="283" y="366" type="line"/>
		</contour>
	</outline>
	<anchor name="aboveUC" x="326" y="676"/>
	<anchor name="belowLC" x="338" y="-20"/>
</glyph>
<glyph name="L" format="1">
	<unicode hex="004C"/>
	<advance width="600"/>
	<outline>
		<contour>
			<point x="134" y="0" type="line"/>
			<point x="541" y="0" type="line"/>
			<point x="541" y="71" type="line"/>
			<point x="216" y="71" type="line"/>
			<point x="216" y="656" type="line"/>
			<point x="134" y="656" type="line"/>
		</contour>
		<contour>
			<point name="aboveUC" x="189" y="676" type="move"/>
		</contour>
		<contour>
			<point name="center" x="176" y="337" type="move"/>
		</contour>
		<contour>
			<point name="baseLC" x="349" y="0" type="move"/>
		</contour>
		<contour>
			<point name="belowLC" x="349" y="-20" type="move"/>
		</contour>
	</outline>
</glyph>
<glyph name="N" format="1">
	<unicode hex="004E"/>
	<advance width="600"/>
	<outline>
		<contour>
			<point x="82" y="0" type="line"/>
			<point x="162" y="0" type="line"/>
			<point x="162" y="343" type="line"/>
			<point x="162" y="411"/>
			<point x="154" y="481"/>
			<point x="151" y="548" type="curve"/>
			<point x="153" y="548" type="line"/>
			<point x="216" y="412" type="line"/>
			<point x="426" y="0" type="line"/>
			<point x="518" y="0" type="line"/>
			<point x="518" y="656" type="line"/>
			<point x="438" y="656" type="line"/>
			<point x="438" y="316" type="line"/>
			<point x="438" y="247"/>
			<point x="446" y="173"/>
			<point x="449" y="108" type="curve"/>
			<point x="447" y="108" type="line"/>
			<point x="384" y="244" type="line"/>
			<point x="174" y="656" type="line"/>
			<point x="82" y="656" type="line"/>
		</contour>
		<contour>
			<point name="aboveUC" x="310" y="676" type="move"/>
		</contour>
		<contour>
			<point name="baseLC" x="473" y="0" type="move"/>
		</contour>
		<contour>
			<point name="belowLC" x="300" y="-20" type="move"/>
		</contour>
	</outline>
</glyph>
<glyph name="O" format="1">
	<unicode hex="004F"/>
	<advance width="600"/>
	<outline>
		<contour>
			<point x="300" y="-12" type="curve" smooth="yes"/>
			<point x="448" y="-12"/>
			<point x="552" y="116"/>
			<point x="552" y="331" type="curve" smooth="yes"/>
			<point x="552" y="543"/>
			<point x="448" y="668"/>
			<point x="300" y="668" type="curve" smooth="yes"/>
			<point x="152" y="668"/>
			<point x="48" y="543"/>
			<point x="48" y="331" type="curve" smooth="yes"/>
			<point x="48" y="116"/>
			<point x="152" y="-12"/>
		</contour>
		<contour>
			<point x="300" y="61" type="curve" smooth="yes"/>
			<point x="200" y="61"/>
			<point x="134" y="163"/>
			<point x="134" y="331" type="curve" smooth="yes"/>
			<point x="134" y="496"/>
			<point x="200" y="595"/>
			<point x="300" y="595" type="curve" smooth="yes"/>
			<point x="400" y="595"/>
			<point x="466" y="496"/>
			<point x="466" y="331" type="curve" smooth="yes"/>
			<point x="466" y="163"/>
			<point x="400" y="61"/>
		</contour>
		<contour>
			<point name="aboveUC" x="300" y="676" type="move"/>
		</contour>
		<contour>
			<point name="hornLC" x="420" y="646" type="move"/>
		</contour>
		<contour>
			<point name="ogonekUC" x="300" y="0" type="move"/>
		</contour>
		<contour>
			<point name="baseLC" x="300" y="0" type="move"/>
		</contour>
		<contour>
			<point name="belowLC" x="300" y="-20" type="move"/>
		</contour>
	</outline>
</glyph>
<glyph name="T" format="1">
	<unicode hex="0054"/>
	<advance width="600"/>
	<outline>
		<contour>
			<point x="258" y="0" type="line"/>
			<point x="342" y="0" type="line"/>
			<point x="342" y="586" type="line"/>
			<point x="558" y="586" type="line"/>
			<point x="558" y="656" type="line"/>
			<point x="42" y="656" type="line"/>
			<point x="42" y="586" type="line"/>
			<point x="258" y="586" type="line"/>
		</contour>
		<contour>
			<point name="aboveUC" x="300" y="676" type="move"/>
		</contour>
		<contour>
			<point name="baseLC" x="300" y="0" type="move"/>
		</contour>
		<contour>
			<point name="belowLC" x="300" y="-20" type="move"/>
		</contour>
	</outline>
</glyph>
<glyph name="U" format="2">
	<unicode hex="0055"/>
	<advance width="600"/>
	<outline>
		<contour>
			<point x="301" y="-12" type="curve" smooth="yes"/>
			<point x="429" y="-12"/>
			<point x="521" y="60"/>
			<point x="521" y="248" type="curve" smooth="yes"/>
			<point x="521" y="656" type="line"/>
			<point x="440" y="656" type="line"/>
			<point x="440" y="246" type="line" smooth="yes"/>
			<point x="440" y="110"/>
			<point x="380" y="61"/>
			<point x="301" y="61" type="curve" smooth="yes"/>
			<point x="222" y="61"/>
			<point x="163" y="110"/>
			<point x="163" y="246" type="curve" smooth="yes"/>
			<point x="163" y="656" type="line"/>
			<point x="79" y="656" type="line"/>
			<point x="79" y="248" type="line" smooth="yes"/>
			<point x="79" y="60"/>
			<point x="172" y="-12"/>
		</contour>
	</outline>
	<anchor name="aboveUC" x="300" y="676"/>
	<anchor name="baseLC" x="300" y="0"/>
	<anchor name="belowLC" x="300" y="-20"/>
	<anchor name="hornLC" x="503" y="666"/>
	<anchor name="ogonekUC" x="300" y="0"/>
</glyph>
<glyph name="W" format="1">
	<unicode hex="0057"/>
	<advance width="600"/>
	<outline>
		<contour>
			<point x="110" y="0" type="line"/>
			<point x="212" y="0" type="line"/>
			<point x="276" y="264" type="line" smooth="yes"/>
			<point x="286" y="304"/>
			<point x="292" y="342"/>
			<point x="299" y="382" type="curve"/>
			<point x="302" y="382" type="line"/>
			<point x="308" y="342"/>
			<point x="316" y="304"/>
			<point x="326" y="264" type="curve" smooth="yes"/>
			<point x="390" y="0" type="line"/>
			<point x="494" y="0" type="line"/>
			<point x="590" y="657" type="line"/>
			<point x="500" y="657" type="line"/>
			<point x="454" y="244" type="line"/>
			<point x="448" y="190"/>
			<point x="446" y="158"/>
			<point x="442" y="93" type="curve"/>
			<point x="438" y="93" type="line"/>
			<point x="426" y="158"/>
			<point x="420" y="190"/>
			<point x="406" y="244" type="curve" smooth="yes"/>
			<point x="344" y="488" type="line"/>
			<point x="264" y="488" type="line"/>
			<point x="200" y="244" type="line"/>
			<point x="187" y="190"/>
			<point x="180" y="158"/>
			<point x="168" y="93" type="curve"/>
			<point x="165" y="93" type="line"/>
			<point x="162" y="158"/>
			<point x="158" y="190"/>
			<point x="152" y="245" type="curve"/>
			<point x="104" y="657" type="line"/>
			<point x="10" y="657" type="line"/>
		</contour>
		<contour>
			<point name="aboveUC" x="300" y="676" type="move"/>
		</contour>
		<contour>
			<point name="belowLC" x="303" y="-20" type="move"/>
		</contour>
	</outline>
</glyph>
<glyph name="Z" format="2">
	<unicode hex="005A"/>
	<advance width="600"/>
	<outline>
		<contour>
			<point x="65" y="0" type="line"/>
			<point x="539" y="0" type="line"/>
			<point x="539" y="71" type="line"/>
			<point x="167" y="71" type="line"/>
			<point x="534" y="607" type="line"/>
			<point x="534" y="657" type="line"/>
			<point x="97" y="657" type="line"/>
			<point x="97" y="587" type="line"/>
			<point x="431" y="587" type="line"/>
			<point x="65" y="50" type="line"/>
		</contour>
	</outline>
	<anchor name="aboveUC" x="317" y="676"/>
	<anchor name="baseLC" x="320" y="0"/>
	<anchor name="belowLC" x="316" y="-20"/>
</glyph>
<glyph name="bracketleft" format="1">
	<unicode hex="005B"/>
	<advance width="600"/>
	<outline>
		<contour>
			<point x="225" y="-152" type="line"/>
			<point x="502" y="-152" type="line"/>
			<point x="502" y="-105" type="line"/>
			<point x="291" y="-105" type="line"/>
			<point x="291" y="661" type="line"/>
			<point x="502" y="661" type="line"/>
			<point x="502" y="708" type="line"/>
			<point x="225" y="708" type="line"/>
		</contour>
	</outline>
</glyph>
<glyph name="asciicircum" format="1">
	<unicode hex="005E"/>
	<advance width="600"/>
	<outline>
		<contour>
			<point x="111" y="284" type="line"/>
			<point x="183" y="284" type="line"/>
			<point x="249" y="460" type="line"/>
			<point x="298" y="593" type="line"/>
			<point x="302" y="593" type="line"/>
			<point x="351" y="460" type="line"/>
			<point x="417" y="284" type="line"/>
			<point x="489" y="284" type="line"/>
			<point x="336" y="670" type="line"/>
			<point x="264" y="670" type="line"/>
		</contour>
	</outline>
</glyph>
<glyph name="underscore" format="1">
	<unicode hex="005F"/>
	<advance width="600"/>
	<outline>
		<contour>
			<point x="60" y="-140" type="line"/>
			<point x="540" y="-140" type="line"/>
			<point x="540" y="-69" type="line"/>
			<point x="60" y="-69" type="line"/>
		</contour>
	</outline>
</glyph>
<glyph name="c" format="1">
	<unicode hex="0063"/>
	<advance width="600"/>
	<outline>
		<contour>
			<point x="346" y="-12" type="curve" smooth="yes"/>
			<point x="418" y="-12"/>
			<point x="485" y="16"/>
			<point x="539" y="64" type="curve"/>
			<point x="502" y="117" type="line"/>
			<point x="462" y="83"/>
			<point x="412" y="56"/>
			<point x="352" y="56" type="curve" smooth="yes"/>
			<point x="240" y="56"/>
			<point x="165" y="131"/>
			<point x="165" y="242" type="curve" smooth="yes"/>
			<point x="165" y="354"/>
			<point x="242" y="430"/>
			<point x="354" y="430" type="curve" smooth="yes"/>
			<point x="405" y="430"/>
			<point x="447" y="409"/>
			<point x="487" y="374" type="curve"/>
			<point x="528" y="427" type="line"/>
			<point x="488" y="466"/>
			<point x="430" y="498"/>
			<point x="351" y="498" type="curve" smooth="yes"/>
			<point x="204" y="498"/>
			<point x="80" y="405"/>
			<point x="80" y="242" type="curve" smooth="yes"/>
			<point x="80" y="81"/>
			<point x="194" y="-12"/>
		</contour>
		<contour>
			<point name="aboveLC" x="346" y="507" type="move"/>
		</contour>
		<contour>
			<point name="baseLC" x="346" y="0" type="move"/>
		</contour>
		<contour>
			<point name="belowLC" x="340" y="-20" type="move"/>
		</contour>
	</outline>
</glyph>
<glyph name="e" format="1">
	<unicode hex="0065"/>
	<advance width="600"/>
	<outline>
		<contour>
			<point x="330" y="-12" type="curve" smooth="yes"/>
			<point x="408" y="-12"/>
			<point x="470" y="14"/>
			<point x="518" y="46" type="curve"/>
			<point x="488" y="100" type="line"/>
			<point x="444" y="72"/>
			<point x="398" y="54"/>
			<point x="340" y="54" type="curve" smooth="yes"/>
			<point x="232" y="54"/>
			<point x="150" y="118"/>
			<point x="150" y="244" type="curve" smooth="yes"/>
			<point x="150" y="365"/>
			<point x="228" y="433"/>
			<point x="318" y="433" type="curve" smooth="yes"/>
			<point x="407" y="433"/>
			<point x="464" y="376"/>
			<point x="464" y="261" type="curve"/>
			<point x="485" y="284" type="line"/>
			<point x="123" y="284" type="line"/>
			<point x="123" y="220" type="line"/>
			<point x="534" y="220" type="line"/>
			<point x="536" y="233"/>
			<point x="538" y="251"/>
			<point x="538" y="270" type="curve" smooth="yes"/>
			<point x="538" y="407"/>
			<point x="456" y="498"/>
			<point x="316" y="498" type="curve" smooth="yes"/>
			<point x="186" y="498"/>
			<point x="68" y="402"/>
			<point x="68" y="244" type="curve" smooth="yes"/>
			<point x="68" y="82"/>
			<point x="184" y="-12"/>
		</contour>
		<contour>
			<point name="ogonekLC" x="404" y="0" type="move"/>
		</contour>
		<contour>
			<point name="aboveLC" x="316" y="507" type="move"/>
		</contour>
		<contour>
			<point name="baseLC" x="316" y="0" type="move"/>
		</contour>
		<contour>
			<point name="belowLC" x="316" y="-20" type="move"/>
		</contour>
		<contour>
			<point name="ogonekCXT-ATH" x="316" y="0" type="move"/>
		</contour>
	</outline>
</glyph>
<glyph name="f" format="1">
	<unicode hex="0066"/>
	<advance width="600"/>
	<outline>
		<contour>
			<point x="242" y="0" type="line"/>
			<point x="323" y="0" type="line"/>
			<point x="323" y="530" type="line" smooth="yes"/>
			<point x="323" y="609"/>
			<point x="359" y="657"/>
			<point x="446" y="657" type="curve" smooth="yes"/>
			<point x="488" y="657"/>
			<point x="519" y="652"/>
			<point x="559" y="634" type="curve"/>
			<point x="578" y="696" type="line"/>
			<point x="532" y="715"/>
			<point x="486" y="724"/>
			<point x="438" y="724" type="curve" smooth="yes"/>
			<point x="304" y="724"/>
			<point x="242" y="646"/>
			<point x="242" y="527" type="curve" smooth="yes"/>
		</contour>
		<contour>
			<point x="103" y="419" type="line"/>
			<point x="527" y="419" type="line"/>
			<point x="527" y="486" type="line"/>
			<point x="245" y="486" type="line"/>
			<point x="103" y="481" type="line"/>
		</contour>
		<contour>
			<point name="aboveUC" x="420" y="736" type="move"/>
		</contour>
		<contour>
			<point name="baseLC" x="298" y="0" type="move"/>
		</contour>
		<contour>
			<point name="belowLC" x="291" y="-20" type="move"/>
		</contour>
	</outline>
</glyph>
<glyph name="l" format="2">
	<unicode hex="006C"/>
	<advance width="600"/>
	<outline>
		<contour>
			<point x="407" y="-12" type="curve" smooth="yes"/>
			<point x="460" y="-12"/>
			<point x="492" y="-2"/>
			<point x="537" y="17" type="curve"/>
			<point x="516" y="78" type="line"/>
			<point x="483" y="63"/>
			<point x="453" y="56"/>
			<point x="425" y="56" type="curve" smooth="yes"/>
			<point x="367" y="56"/>
			<point x="329" y="86"/>
			<point x="329" y="157" type="curve" smooth="yes"/>
			<point x="329" y="712" type="line"/>
			<point x="74" y="712" type="line"/>
			<point x="74" y="645" type="line"/>
			<point x="247" y="645" type="line"/>
			<point x="247" y="163" type="line" smooth="yes"/>
			<point x="247" y="48"/>
			<point x="304" y="-12"/>
		</contour>
	</outline>
	<anchor name="aboveUC" x="285" y="736"/>
	<anchor name="baseLC" x="363" y="0"/>
	<anchor name="belowLC" x="385" y="-20"/>
	<anchor name="center" x="288" y="385"/>
</glyph>
<glyph name="n" format="1">
	<unicode hex="006E"/>
	<advance width="600"/>
	<outline>
		<contour>
			<point x="93" y="0" type="line"/>
			<point x="175" y="0" type="line"/>
			<point x="175" y="339" type="line"/>
			<point x="232" y="398"/>
			<point x="271" y="427"/>
			<point x="329" y="427" type="curve" smooth="yes"/>
			<point x="409" y="427"/>
			<point x="441" y="383"/>
			<point x="441" y="291" type="curve" smooth="yes"/>
			<point x="441" y="0" type="line"/>
			<point x="523" y="0" type="line"/>
			<point x="523" y="302" type="line" smooth="yes"/>
			<point x="523" y="430"/>
			<point x="470" y="498"/>
			<point x="355" y="498" type="curve" smooth="yes"/>
			<point x="279" y="498"/>
			<point x="223" y="457"/>
			<point x="172" y="403" type="curve"/>
			<point x="168" y="403" type="line"/>
			<point x="161" y="486" type="line"/>
			<point x="93" y="486" type="line"/>
		</contour>
		<contour>
			<point name="aboveLC" x="318" y="507" type="move"/>
		</contour>
		<contour>
			<point name="baseLC" x="480" y="0" type="move"/>
		</contour>
		<contour>
			<point name="belowLC" x="313" y="-20" type="move"/>
		</contour>
	</outline>
</glyph>
<glyph name="o" format="1">
	<unicode hex="006F"/>
	<advance width="600"/>
	<outline>
		<contour>
			<point x="300" y="-12" type="curve" smooth="yes"/>
			<point x="428" y="-12"/>
			<point x="540" y="81"/>
			<point x="540" y="242" type="curve" smooth="yes"/>
			<point x="540" y="405"/>
			<point x="428" y="498"/>
			<point x="300" y="498" type="curve" smooth="yes"/>
			<point x="172" y="498"/>
			<point x="60" y="405"/>
			<point x="60" y="242" type="curve" smooth="yes"/>
			<point x="60" y="81"/>
			<point x="172" y="-12"/>
		</contour>
		<contour>
			<point x="300" y="56" type="curve" smooth="yes"/>
			<point x="207" y="56"/>
			<point x="145" y="131"/>
			<point x="145" y="242" type="curve" smooth="yes"/>
			<point x="145" y="354"/>
			<point x="207" y="430"/>
			<point x="300" y="430" type="curve" smooth="yes"/>
			<point x="393" y="430"/>
			<point x="455" y="354"/>
			<point x="455" y="242" type="curve" smooth="yes"/>
			<point x="455" y="131"/>
			<point x="393" y="56"/>
		</contour>
		<contour>
			<point name="hornLC" x="411" y="486" type="move"/>
		</contour>
		<contour>
			<point name="aboveLC" x="300" y="507" type="move"/>
		</contour>
		<contour>
			<point name="ogonekLC" x="300" y="0" type="move"/>
		</contour>
		<contour>
			<point name="baseLC" x="300" y="0" type="move"/>
		</contour>
		<contour>
			<point name="belowLC" x="300" y="-20" type="move"/>
		</contour>
	</outline>
</glyph>
<glyph name="p" format="1">
	<unicode hex="0070"/>
	<advance width="600"/>
	<outline>
		<contour>
			<point x="93" y="-205" type="line"/>
			<point x="175" y="-205" type="line"/>
			<point x="175" y="-41" type="line"/>
			<point x="171" y="51" type="line"/>
			<point x="174" y="51" type="line"/>
			<point x="217" y="11"/>
			<point x="274" y="-12"/>
			<point x="319" y="-12" type="curve" smooth="yes"/>
			<point x="436" y="-12"/>
			<point x="540" y="85"/>
			<point x="540" y="250" type="curve" smooth="yes"/>
			<point x="540" y="401"/>
			<point x="470" y="498"/>
			<point x="339" y="498" type="curve" smooth="yes"/>
			<point x="279" y="498"/>
			<point x="216" y="467"/>
			<point x="171" y="424" type="curve"/>
			<point x="168" y="424" type="line"/>
			<point x="161" y="486" type="line"/>
			<point x="93" y="486" type="line"/>
		</contour>
		<contour>
			<point x="305" y="57" type="curve" smooth="yes"/>
			<point x="272" y="57"/>
			<point x="221" y="73"/>
			<point x="175" y="114" type="curve"/>
			<point x="175" y="356" type="line"/>
			<point x="225" y="406"/>
			<point x="275" y="429"/>
			<point x="318" y="429" type="curve" smooth="yes"/>
			<point x="415" y="429"/>
			<point x="455" y="357"/>
			<point x="455" y="250" type="curve" smooth="yes"/>
			<point x="455" y="130"/>
			<point x="392" y="57"/>
		</contour>
		<contour>
			<point name="aboveLC" x="321" y="507" type="move"/>
		</contour>
		<contour>
			<point name="belowLC" x="137" y="-219" type="move"/>
		</contour>
	</outline>
</glyph>
<glyph name="r" format="1">
	<unicode hex="0072"/>
	<advance width="600"/>
	<outline>
		<contour>
			<point x="146" y="0" type="line"/>
			<point x="228" y="0" type="line"/>
			<point x="228" y="285" type="line"/>
			<point x="286" y="386"/>
			<point x="355" y="424"/>
			<point x="428" y="424" type="curve" smooth="yes"/>
			<point x="466" y="424"/>
			<point x="484" y="419"/>
			<point x="518" y="407" type="curve"/>
			<point x="537" y="478" type="line"/>
			<point x="507" y="493"/>
			<point x="477" y="498"/>
			<point x="441" y="498" type="curve" smooth="yes"/>
			<point x="351" y="498"/>
			<point x="275" y="449"/>
			<point x="224" y="371" type="curve"/>
			<point x="221" y="371" type="line"/>
			<point x="214" y="486" type="line"/>
			<point x="146" y="486" type="line"/>
		</contour>
		<contour>
			<point name="aboveLC" x="356" y="507" type="move"/>
		</contour>
		<contour>
			<point name="baseLC" x="183" y="0" type="move"/>
		</contour>
		<contour>
			<point name="belowLC" x="191" y="-20" type="move"/>
		</contour>
	</outline>
</glyph>
<glyph name="t" format="1">
	<unicode hex="0074"/>
	<advance width="600"/>
	<outline>
		<contour>
			<point x="394" y="-12" type="curve" smooth="yes"/>
			<point x="455" y="-12"/>
			<point x="502" y="1"/>
			<point x="546" y="17" type="curve"/>
			<point x="528" y="77" type="line"/>
			<point x="493" y="64"/>
			<point x="457" y="55"/>
			<point x="411" y="55" type="curve" smooth="yes"/>
			<point x="317" y="55"/>
			<point x="288" y="101"/>
			<point x="288" y="188" type="curve" smooth="yes"/>
			<point x="288" y="419" type="line"/>
			<point x="527" y="419" type="line"/>
			<point x="527" y="486" type="line"/>
			<point x="288" y="486" type="line"/>
			<point x="288" y="642" type="line"/>
			<point x="220" y="642" type="line"/>
			<point x="209" y="486" type="line"/>
			<point x="69" y="481" type="line"/>
			<point x="69" y="419" type="line"/>
			<point x="206" y="419" type="line"/>
			<point x="206" y="189" type="line" smooth="yes"/>
			<point x="206" y="69"/>
			<point x="252" y="-12"/>
		</contour>
		<contour>
			<point name="aboveLC" x="256" y="643" type="move"/>
		</contour>
		<contour>
			<point name="baseLC" x="389" y="0" type="move"/>
		</contour>
		<contour>
			<point name="belowLC" x="380" y="-20" type="move"/>
		</contour>
	</outline>
</glyph>
<glyph name="v" format="1">
	<unicode hex="0076"/>
	<advance width="600"/>
	<outline>
		<contour>
			<point x="256" y="0" type="line"/>
			<point x="348" y="0" type="line"/>
			<point x="549" y="486" type="line"/>
			<point x="470" y="486" type="line"/>
			<point x="358" y="210" type="line" smooth="yes"/>
			<point x="338" y="161"/>
			<point x="322" y="113"/>
			<point x="305" y="67" type="curve"/>
			<point x="301" y="67" type="line"/>
			<point x="284" y="113"/>
			<point x="266" y="161"/>
			<point x="246" y="210" type="curve" smooth="yes"/>
			<point x="134" y="486" type="line"/>
			<point x="51" y="486" type="line"/>
		</contour>
		<contour>
			<point name="aboveLC" x="300" y="507" type="move"/>
		</contour>
		<contour>
			<point name="belowLC" x="300" y="-20" type="move"/>
		</contour>
	</outline>
</glyph>
<glyph name="y" format="1">
	<unicode hex="0079"/>
	<advance width="600"/>
	<outline>
		<contour>
			<point x="131" y="-209" type="curve" smooth="yes"/>
			<point x="241" y="-209"/>
			<point x="301" y="-136"/>
			<point x="337" y="-40" type="curve"/>
			<point x="551" y="486" type="line"/>
			<point x="473" y="486" type="line"/>
			<point x="367" y="217" type="line" smooth="yes"/>
			<point x="351" y="173"/>
			<point x="332" y="122"/>
			<point x="315" y="76" type="curve"/>
			<point x="311" y="76" type="line"/>
			<point x="291" y="123"/>
			<point x="270" y="174"/>
			<point x="251" y="217" type="curve" smooth="yes"/>
			<point x="132" y="486" type="line"/>
			<point x="49" y="486" type="line"/>
			<point x="276" y="-1" type="line"/>
			<point x="261" y="-37" type="line" smooth="yes"/>
			<point x="237" y="-97"/>
			<point x="196" y="-141"/>
			<point x="128" y="-141" type="curve" smooth="yes"/>
			<point x="113" y="-141"/>
			<point x="97" y="-138"/>
			<point x="84" y="-134" type="curve"/>
			<point x="67" y="-199" type="line"/>
			<point x="84" y="-205"/>
			<point x="108" y="-209"/>
		</contour>
		<contour>
			<point name="ogonekLC" x="262" y="-105" type="move"/>
		</contour>
		<contour>
			<point name="aboveLC" x="304" y="507" type="move"/>
		</contour>
		<contour>
			<point name="belowLC" x="267" y="-219" type="move"/>
		</contour>
	</outline>
</glyph>
<glyph name="bar" format="1">
	<unicode hex="007C"/>
	<advance width="600"/>
	<outline>
		<contour>
			<point x="263" y="-250" type="line"/>
			<point x="337" y="-250" type="line"/>
			<point x="337" y="750" type="line"/>
			<point x="263" y="750" type="line"/>
		</contour>
	</outline>
</glyph>
<glyph name="braceright" format="1">
	<unicode hex="007D"/>
	<advance width="600"/>
	<outline>
		<contour>
			<point x="99" y="-152" type="line"/>
			<point x="160" y="-152" type="line" smooth="yes"/>
			<point x="285" y="-152"/>
			<point x="344" y="-122"/>
			<point x="344" y="-19" type="curve" smooth="yes"/>
			<point x="344" y="54"/>
			<point x="335" y="107"/>
			<point x="335" y="174" type="curve" smooth="yes"/>
			<point x="335" y="213"/>
			<point x="362" y="251"/>
			<point x="480" y="252" type="curve"/>
			<point x="480" y="304" type="line"/>
			<point x="362" y="305"/>
			<point x="335" y="343"/>
			<point x="335" y="382" type="curve" smooth="yes"/>
			<point x="335" y="445"/>
			<point x="344" y="506"/>
			<point x="344" y="575" type="curve" smooth="yes"/>
			<point x="344" y="678"/>
			<point x="285" y="708"/>
			<point x="160" y="708" type="curve" smooth="yes"/>
			<point x="99" y="708" type="line"/>
			<point x="99" y="661" type="line"/>
			<point x="150" y="661" type="line" smooth="yes"/>
			<point x="252" y="661"/>
			<point x="275" y="635"/>
			<point x="275" y="570" type="curve" smooth="yes"/>
			<point x="275" y="513"/>
			<point x="269" y="451"/>
			<point x="269" y="389" type="curve" smooth="yes"/>
			<point x="269" y="324"/>
			<point x="290" y="292"/>
			<point x="359" y="280" type="curve"/>
			<point x="359" y="276" type="line"/>
			<point x="290" y="264"/>
			<point x="269" y="232"/>
			<point x="269" y="167" type="curve" smooth="yes"/>
			<point x="269" y="99"/>
			<point x="275" y="47"/>
			<point x="275" y="-14" type="curve" smooth="yes"/>
			<point x="275" y="-79"/>
			<point x="252" y="-105"/>
			<point x="150" y="-105" type="curve" smooth="yes"/>
			<point x="99" y="-105" type="line"/>
		</contour>
	</outline>
</glyph>
<glyph name="asciitilde" format="1">
	<unicode hex="007E"/>
	<advance width="600"/>
	<outline>
		<contour>
			<point x="388" y="257" type="curve" smooth="yes"/>
			<point x="439" y="257"/>
			<point x="489" y="288"/>
			<point x="524" y="381" type="curve"/>
			<point x="471" y="405" type="line"/>
			<point x="448" y="335"/>
			<point x="421" y="319"/>
			<point x="390" y="319" type="curve" smooth="yes"/>
			<point x="333" y="319"/>
			<point x="291" y="403"/>
			<point x="212" y="403" type="curve" smooth="yes"/>
			<point x="161" y="403"/>
			<point x="111" y="372"/>
			<point x="76" y="278" type="curve"/>
			<point x="129" y="255" type="line"/>
			<point x="152" y="324"/>
			<point x="179" y="341"/>
			<point x="210" y="341" type="curve" smooth="yes"/>
			<point x="267" y="341"/>
			<point x="309" y="257"/>
		</contour>
	</outline>
</glyph>
<glyph name="cent" format="1">
	<unicode hex="00A2"/>
	<advance width="600"/>
	<outline>
		<contour>
			<point x="348" y="69" type="curve" smooth="yes"/>
			<point x="406" y="69"/>
			<point x="462" y="94"/>
			<point x="506" y="133" type="curve"/>
			<point x="470" y="185" type="line"/>
			<point x="440" y="159"/>
			<point x="401" y="138"/>
			<point x="355" y="138" type="curve" smooth="yes"/>
			<point x="256" y="138"/>
			<point x="194" y="206"/>
			<point x="194" y="310" type="curve" smooth="yes"/>
			<point x="194" y="414"/>
			<point x="259" y="482"/>
			<point x="358" y="482" type="curve" smooth="yes"/>
			<point x="396" y="482"/>
			<point x="428" y="466"/>
			<point x="456" y="440" type="curve"/>
			<point x="496" y="492" type="line"/>
			<point x="463" y="523"/>
			<point x="418" y="550"/>
			<point x="354" y="550" type="curve" smooth="yes"/>
			<point x="222" y="550"/>
			<point x="113" y="464"/>
			<point x="113" y="310" type="curve" smooth="yes"/>
			<point x="113" y="156"/>
			<point x="211" y="69"/>
		</contour>
		<contour>
			<point x="314" y="-33" type="line"/>
			<point x="365" y="-33" type="line"/>
			<point x="365" y="653" type="line"/>
			<point x="314" y="653" type="line"/>
		</contour>
	</outline>
</glyph>
<glyph name="sterling" format="1">
	<unicode hex="00A3"/>
	<advance width="600"/>
	<outline>
		<contour>
			<point x="78" y="0" type="line"/>
			<point x="531" y="0" type="line"/>
			<point x="531" y="71" type="line"/>
			<point x="203" y="71" type="line"/>
			<point x="203" y="75" type="line"/>
			<point x="251" y="116"/>
			<point x="275" y="159"/>
			<point x="275" y="229" type="curve" smooth="yes"/>
			<point x="275" y="319"/>
			<point x="223" y="387"/>
			<point x="223" y="464" type="curve" smooth="yes"/>
			<point x="223" y="533"/>
			<point x="271" y="581"/>
			<point x="358" y="581" type="curve" smooth="yes"/>
			<point x="414" y="581"/>
			<point x="451" y="559"/>
			<point x="482" y="528" type="curve"/>
			<point x="530" y="575" type="line"/>
			<point x="491" y="618"/>
			<point x="436" y="650"/>
			<point x="354" y="650" type="curve" smooth="yes"/>
			<point x="227" y="650"/>
			<point x="144" y="579"/>
			<point x="144" y="466" type="curve" smooth="yes"/>
			<point x="144" y="388"/>
			<point x="202" y="311"/>
			<point x="202" y="230" type="curve" smooth="yes"/>
			<point x="202" y="155"/>
			<point x="161" y="87"/>
			<point x="78" y="50" type="curve"/>
		</contour>
		<contour>
			<point x="77" y="285" type="line"/>
			<point x="442" y="285" type="line"/>
			<point x="442" y="341" type="line"/>
			<point x="180" y="341" type="line"/>
			<point x="77" y="337" type="line"/>
		</contour>
	</outline>
</glyph>
<glyph name="brokenbar" format="1">
	<unicode hex="00A6"/>
	<advance width="600"/>
	<outline>
		<contour>
			<point x="263" y="-250" type="line"/>
			<point x="337" y="-250" type="line"/>
			<point x="337" y="190" type="line"/>
			<point x="263" y="190" type="line"/>
		</contour>
		<contour>
			<point x="263" y="310" type="line"/>
			<point x="337" y="310" type="line"/>
			<point x="337" y="750" type="line"/>
			<point x="263" y="750" type="line"/>
		</contour>
	</outline>
</glyph>
<glyph name="copyright" format="1">
	<unicode hex="00A9"/>
	<advance width="600"/>
	<outline>
		<contour>
			<point x="300" y="-11" type="curve" smooth="yes"/>
			<point x="453" y="-11"/>
			<point x="570" y="119"/>
			<point x="570" y="323" type="curve" smooth="yes"/>
			<point x="570" y="527"/>
			<point x="453" y="653"/>
			<point x="300" y="653" type="curve" smooth="yes"/>
			<point x="147" y="653"/>
			<point x="30" y="527"/>
			<point x="30" y="323" type="curve" smooth="yes"/>
			<point x="30" y="119"/>
			<point x="147" y="-11"/>
		</contour>
		<contour>
			<point x="300" y="31" type="curve" smooth="yes"/>
			<point x="166" y="31"/>
			<point x="76" y="148"/>
			<point x="76" y="323" type="curve" smooth="yes"/>
			<point x="76" y="498"/>
			<point x="166" y="612"/>
			<point x="300" y="612" type="curve" smooth="yes"/>
			<point x="434" y="612"/>
			<point x="524" y="498"/>
			<point x="524" y="323" type="curve" smooth="yes"/>
			<point x="524" y="148"/>
			<point x="434" y="31"/>
		</contour>
		<contour>
			<point x="308" y="125" type="curve" smooth="yes"/>
			<point x="358" y="125"/>
			<point x="391" y="145"/>
			<point x="421" y="172" type="curve"/>
			<point x="391" y="214" type="line"/>
			<point x="368" y="195"/>
			<point x="345" y="180"/>
			<point x="310" y="180" type="curve" smooth="yes"/>
			<point x="251" y="180"/>
			<point x="212" y="235"/>
			<point x="212" y="323" type="curve" smooth="yes"/>
			<point x="212" y="401"/>
			<point x="253" y="457"/>
			<point x="314" y="457" type="curve" smooth="yes"/>
			<point x="341" y="457"/>
			<point x="360" y="445"/>
			<point x="381" y="426" type="curve"/>
			<point x="415" y="465" type="line"/>
			<point x="389" y="492"/>
			<point x="358" y="512"/>
			<point x="311" y="512" type="curve" smooth="yes"/>
			<point x="224" y="512"/>
			<point x="146" y="439"/>
			<point x="146" y="323" type="curve" smooth="yes"/>
			<point x="146" y="199"/>
			<point x="218" y="125"/>
		</contour>
	</outline>
</glyph>
<glyph name="registered" format="1">
	<unicode hex="00AE"/>
	<advance width="600"/>
	<outline>
		<contour>
			<point x="300" y="319" type="curve" smooth="yes"/>
			<point x="403" y="319"/>
			<point x="488" y="399"/>
			<point x="488" y="516" type="curve" smooth="yes"/>
			<point x="488" y="633"/>
			<point x="403" y="713"/>
			<point x="300" y="713" type="curve" smooth="yes"/>
			<point x="196" y="713"/>
			<point x="112" y="633"/>
			<point x="112" y="516" type="curve" smooth="yes"/>
			<point x="112" y="399"/>
			<point x="196" y="319"/>
		</contour>
		<contour>
			<point x="300" y="356" type="curve" smooth="yes"/>
			<point x="216" y="356"/>
			<point x="151" y="421"/>
			<point x="151" y="516" type="curve" smooth="yes"/>
			<point x="151" y="610"/>
			<point x="216" y="677"/>
			<point x="300" y="677" type="curve" smooth="yes"/>
			<point x="384" y="677"/>
			<point x="448" y="610"/>
			<point x="448" y="516" type="curve" smooth="yes"/>
			<point x="448" y="421"/>
			<point x="384" y="356"/>
		</contour>
		<contour>
			<point x="227" y="417" type="line"/>
			<point x="268" y="417" type="line"/>
			<point x="268" y="487" type="line"/>
			<point x="309" y="487" type="line"/>
			<point x="344" y="417" type="line"/>
			<point x="390" y="417" type="line"/>
			<point x="344" y="500" type="line"/>
			<point x="366" y="508"/>
			<point x="382" y="531"/>
			<point x="382" y="555" type="curve" smooth="yes"/>
			<point x="382" y="603"/>
			<point x="345" y="620"/>
			<point x="303" y="620" type="curve" smooth="yes"/>
			<point x="227" y="620" type="line"/>
		</contour>
		<contour>
			<point x="268" y="519" type="line"/>
			<point x="268" y="586" type="line"/>
			<point x="296" y="586" type="line" smooth="yes"/>
			<point x="326" y="586"/>
			<point x="338" y="573"/>
			<point x="338" y="553" type="curve" smooth="yes"/>
			<point x="338" y="531"/>
			<point x="321" y="519"/>
			<point x="294" y="519" type="curve" smooth="yes"/>
		</contour>
	</outline>
</glyph>
<glyph name="degree" format="1">
	<unicode hex="00B0"/>
	<advance width="600"/>
	<outline>
		<contour>
			<point x="300" y="429" type="curve" smooth="yes"/>
			<point x="367" y="429"/>
			<point x="426" y="479"/>
			<point x="426" y="556" type="curve" smooth="yes"/>
			<point x="426" y="635"/>
			<point x="367" y="685"/>
			<point x="300" y="685" type="curve" smooth="yes"/>
			<point x="233" y="685"/>
			<point x="175" y="635"/>
			<point x="175" y="556" type="curve" smooth="yes"/>
			<point x="175" y="479"/>
			<point x="233" y="429"/>
		</contour>
		<contour>
			<point x="300" y="475" type="curve" smooth="yes"/>
			<point x="256" y="475"/>
			<point x="225" y="509"/>
			<point x="225" y="556" type="curve" smooth="yes"/>
			<point x="225" y="605"/>
			<point x="256" y="639"/>
			<point x="300" y="639" type="curve" smooth="yes"/>
			<point x="345" y="639"/>
			<point x="376" y="605"/>
			<point x="376" y="556" type="curve" smooth="yes"/>
			<point x="376" y="509"/>
			<point x="345" y="475"/>
		</contour>
	</outline>
</glyph>
<glyph name="plusminus" format="1">
	<unicode hex="00B1"/>
	<advance width="600"/>
	<outline>
		<contour>
			<point x="267" y="127" type="line"/>
			<point x="333" y="127" type="line"/>
			<point x="333" y="304" type="line"/>
			<point x="515" y="304" type="line"/>
			<point x="515" y="366" type="line"/>
			<point x="333" y="366" type="line"/>
			<point x="333" y="556" type="line"/>
			<point x="267" y="556" type="line"/>
			<point x="267" y="366" type="line"/>
			<point x="85" y="366" type="line"/>
			<point x="85" y="304" type="line"/>
			<point x="267" y="304" type="line"/>
		</contour>
		<contour>
			<point x="85" y="0" type="line"/>
			<point x="515" y="0" type="line"/>
			<point x="515" y="62" type="line"/>
			<point x="85" y="62" type="line"/>
		</contour>
	</outline>
</glyph>
<glyph name="paragraph" format="1">
	<unicode hex="00B6"/>
	<advance width="600"/>
	<outline>
		<contour>
			<point x="318" y="226" type="curve" smooth="yes"/>
			<point x="350" y="226" type="line"/>
			<point x="350" y="656" type="line"/>
			<point x="307" y="656" type="line" smooth="yes"/>
			<point x="173" y="656"/>
			<point x="72" y="600"/>
			<point x="72" y="443" type="curve" smooth="yes"/>
			<point x="72" y="292"/>
			<point x="177" y="226"/>
		</contour>
		<contour>
			<point x="404" y="-80" type="line"/>
			<point x="485" y="-80" type="line"/>
			<point x="485" y="656" type="line"/>
			<point x="404" y="656" type="line"/>
		</contour>
	</outline>
</glyph>
<glyph name="Aring" format="1">
	<unicode hex="00C5"/>
	<advance width="600"/>
	<outline>
		<component base="A"/>
		<component base="ringcmb.cap"/>
		<contour>
			<point name="ogonekUC" x="504" y="0" type="move"/>
		</contour>
	</outline>
</glyph>
<glyph name="Oslash" format="1">
	<unicode hex="00D8"/>
	<advance width="600"/>
	<outline>
		<contour>
			<point x="36" y="4" type="line"/>
			<point x="92" y="-32" type="line"/>
			<point x="560" y="652" type="line"/>
			<point x="504" y="688" type="line"/>
		</contour>
		<component base="O"/>
		<contour>
			<point name="aboveUC" x="300" y="676" type="move"/>
		</contour>
		<contour>
			<point name="baseLC" x="300" y="0" type="move"/>
		</contour>
	</outline>
</glyph>
<glyph name="germandbls" format="1">
	<unicode hex="00DF"/>
	<advance width="600"/>
	<outline>
		<contour>
			<point x="401" y="-12" type="curve" smooth="yes"/>
			<point x="500" y="-12"/>
			<point x="564" y="53"/>
			<point x="564" y="137" type="curve" smooth="yes"/>
			<point x="564" y="295"/>
			<point x="363" y="277"/>
			<point x="363" y="374" type="curve" smooth="yes"/>
			<point x="363" y="443"/>
			<point x="453" y="476"/>
			<point x="453" y="576" type="curve" smooth="yes"/>
			<point x="453" y="655"/>
			<point x="395" y="724"/>
			<point x="289" y="724" type="curve" smooth="yes"/>
			<point x="164" y="724"/>
			<point x="88" y="642"/>
			<point x="88" y="519" type="curve" smooth="yes"/>
			<point x="88" y="0" type="line"/>
			<point x="170" y="0" type="line"/>
			<point x="170" y="507" type="line" smooth="yes"/>
			<point x="170" y="606"/>
			<point x="215" y="657"/>
			<point x="288" y="657" type="curve" smooth="yes"/>
			<point x="343" y="657"/>
			<point x="374" y="620"/>
			<point x="374" y="571" type="curve" smooth="yes"/>
			<point x="374" y="486"/>
			<point x="284" y="455"/>
			<point x="284" y="364" type="curve" smooth="yes"/>
			<point x="284" y="225"/>
			<point x="486" y="246"/>
			<point x="486" y="130" type="curve" smooth="yes"/>
			<point x="486" y="89"/>
			<point x="455" y="52"/>
			<point x="399" y="52" type="curve" smooth="yes"/>
			<point x="360" y="52"/>
			<point x="327" y="65"/>
			<point x="290" y="91" type="curve"/>
			<point x="257" y="33" type="line"/>
			<point x="299" y="5"/>
			<point x="345" y="-12"/>
		</contour>
	</outline>
</glyph>
<glyph name="aacute" format="1">
	<unicode hex="00E1"/>
	<advance width="600"/>
	<outline>
		<component base="a"/>
		<component base="acutecmb" xOffset="20"/>
		<contour>
			<point name="ogonekLC" x="436" y="0" type="move"/>
		</contour>
	</outline>
</glyph>
<glyph name="adieresis" format="1">
	<unicode hex="00E4"/>
	<advance width="600"/>
	<outline>
		<component base="a"/>
		<component base="dieresiscmb" xOffset="20"/>
		<contour>
			<point name="ogonekLC" x="436" y="0" type="move"/>
		</contour>
	</outline>
</glyph>
<glyph name="divide" format="1">
	<unicode hex="00F7"/>
	<advance width="600"/>
	<outline>
		<contour>
			<point x="300" y="456" type="curve" smooth="yes"/>
			<point x="331" y="456"/>
			<point x="354" y="478"/>
			<point x="354" y="510" type="curve" smooth="yes"/>
			<point x="354" y="541"/>
			<point x="331" y="563"/>
			<point x="300" y="563" type="curve" smooth="yes"/>
			<point x="269" y="563"/>
			<point x="246" y="541"/>
			<point x="246" y="510" type="curve" smooth="yes"/>
			<point x="246" y="478"/>
			<point x="269" y="456"/>
		</contour>
		<contour>
			<point x="300" y="96" type="curve" smooth="yes"/>
			<point x="331" y="96"/>
			<point x="354" y="118"/>
			<point x="354" y="150" type="curve" smooth="yes"/>
			<point x="354" y="181"/>
			<point x="331" y="203"/>
			<point x="300" y="203" type="curve" smooth="yes"/>
			<point x="269" y="203"/>
			<point x="246" y="181"/>
			<point x="246" y="150" type="curve" smooth="yes"/>
			<point x="246" y="118"/>
			<point x="269" y="96"/>
		</contour>
		<contour>
			<point x="85" y="299" type="line"/>
			<point x="515" y="299" type="line"/>
			<point x="515" y="361" type="line"/>
			<point x="85" y="361" type="line"/>
		</contour>
	</outline>
</glyph>
<glyph name="Aogonek" format="1">
	<unicode hex="0104"/>
	<advance width="600"/>
	<outline>
		<contour>
			<point x="515" y="-225" type="curve" smooth="yes"/>
			<point x="553" y="-225"/>
			<point x="584" y="-209"/>
			<point x="607" y="-189" type="curve"/>
			<point x="581" y="-146" type="line"/>
			<point x="569" y="-157"/>
			<point x="553" y="-167"/>
			<point x="531" y="-167" type="curve" smooth="yes"/>
			<point x="502" y="-167"/>
			<point x="477" y="-150"/>
			<point x="477" y="-116" type="curve" smooth="yes"/>
			<point x="477" y="-67"/>
			<point x="517" y="-23"/>
			<point x="568" y="0" type="curve"/>
			<point x="347" y="656" type="line"/>
			<point x="253" y="656" type="line"/>
			<point x="32" y="0" type="line"/>
			<point x="117" y="0" type="line"/>
			<point x="232" y="367" type="line" smooth="yes"/>
			<point x="255" y="440"/>
			<point x="276" y="512"/>
			<point x="297" y="588" type="curve"/>
			<point x="301" y="588" type="line"/>
			<point x="321" y="512"/>
			<point x="343" y="440"/>
			<point x="366" y="367" type="curve" smooth="yes"/>
			<point x="480" y="0" type="line"/>
			<point x="499" y="0" type="line"/>
			<point x="459" y="-26"/>
			<point x="412" y="-72"/>
			<point x="412" y="-134" type="curve" smooth="yes"/>
			<point x="412" y="-195"/>
			<point x="457" y="-225"/>
		</contour>
		<contour>
			<point x="148" y="200" type="line"/>
			<point x="450" y="200" type="line"/>
			<point x="450" y="267" type="line"/>
			<point x="148" y="267" type="line"/>
		</contour>
		<contour>
			<point name="aboveUC" x="300" y="676" type="move"/>
		</contour>
	</outline>
</glyph>
<glyph name="dcroat" format="1">
	<unicode hex="0111"/>
	<advance width="600"/>
	<outline>
		<contour>
			<point x="271" y="-12" type="curve" smooth="yes"/>
			<point x="331" y="-12"/>
			<point x="389" y="23"/>
			<point x="429" y="64" type="curve"/>
			<point x="432" y="64" type="line"/>
			<point x="439" y="0" type="line"/>
			<point x="507" y="0" type="line"/>
			<point x="507" y="712" type="line"/>
			<point x="425" y="712" type="line"/>
			<point x="425" y="505" type="line"/>
			<point x="429" y="415" type="line"/>
			<point x="426" y="415" type="line"/>
			<point x="384" y="454"/>
			<point x="340" y="478"/>
			<point x="281" y="478" type="curve" smooth="yes"/>
			<point x="166" y="478"/>
			<point x="60" y="384"/>
			<point x="60" y="232" type="curve" smooth="yes"/>
			<point x="60" y="76"/>
			<point x="144" y="-12"/>
		</contour>
		<contour>
			<point x="288" y="57" type="curve" smooth="yes"/>
			<point x="198" y="57"/>
			<point x="145" y="123"/>
			<point x="145" y="233" type="curve" smooth="yes"/>
			<point x="145" y="337"/>
			<point x="213" y="409"/>
			<point x="298" y="409" type="curve" smooth="yes"/>
			<point x="339" y="409"/>
			<point x="381" y="393"/>
			<point x="425" y="352" type="curve"/>
			<point x="425" y="130" type="line"/>
			<point x="382" y="82"/>
			<point x="336" y="57"/>
		</contour>
		<contour>
			<point x="250" y="562" type="line"/>
			<point x="504" y="562" type="line"/>
			<point x="580" y="568" type="line"/>
			<point x="580" y="626" type="line"/>
			<point x="250" y="626" type="line"/>
		</contour>
		<contour>
			<point name="aboveUC" x="459" y="736" type="move"/>
		</contour>
		<contour>
			<point name="belowLC" x="304" y="-20" type="move"/>
		</contour>
	</outline>
</glyph>
<glyph name="eogonek" format="1">
	<unicode hex="0119"/>
	<advance width="600"/>
	<outline>
		<contour>
			<point x="422" y="-225" type="curve" smooth="yes"/>
			<point x="460" y="-225"/>
			<point x="492" y="-211"/>
			<point x="516" y="-189" type="curve"/>
			<point x="492" y="-150" type="line"/>
			<point x="479" y="-162"/>
			<point x="462" y="-171"/>
			<point x="439" y="-171" type="curve" smooth="yes"/>
			<point x="408" y="-171"/>
			<point x="380" y="-153"/>
			<point x="380" y="-116" type="curve" smooth="yes"/>
			<point x="380" y="-64"/>
			<point x="416" y="-26"/>
			<point x="518" y="46" type="curve"/>
			<point x="488" y="100" type="line"/>
			<point x="444" y="72"/>
			<point x="398" y="54"/>
			<point x="340" y="54" type="curve" smooth="yes"/>
			<point x="232" y="54"/>
			<point x="150" y="118"/>
			<point x="150" y="244" type="curve" smooth="yes"/>
			<point x="150" y="365"/>
			<point x="228" y="433"/>
			<point x="318" y="433" type="curve" smooth="yes"/>
			<point x="407" y="433"/>
			<point x="464" y="376"/>
			<point x="464" y="261" type="curve"/>
			<point x="485" y="284" type="line"/>
			<point x="123" y="284" type="line"/>
			<point x="123" y="220" type="line"/>
			<point x="534" y="220" type="line"/>
			<point x="536" y="233"/>
			<point x="538" y="251"/>
			<point x="538" y="270" type="curve" smooth="yes"/>
			<point x="538" y="407"/>
			<point x="456" y="498"/>
			<point x="316" y="498" type="curve" smooth="yes"/>
			<point x="186" y="498"/>
			<point x="68" y="402"/>
			<point x="68" y="242" type="curve" smooth="yes"/>
			<point x="68" y="82"/>
			<point x="184" y="-12"/>
			<point x="330" y="-12" type="curve" smooth="yes"/>
			<point x="342" y="-12"/>
			<point x="372" y="-14"/>
			<point x="424" y="11" type="curve"/>
			<point x="419" y="18" type="line"/>
			<point x="362" y="-26"/>
			<point x="319" y="-70"/>
			<point x="319" y="-132" type="curve" smooth="yes"/>
			<point x="319" y="-195"/>
			<point x="362" y="-225"/>
		</contour>
		<contour>
			<point name="aboveLC" x="314" y="507" type="move"/>
		</contour>
	</outline>
</glyph>
<glyph name="Iogonek" format="1">
	<unicode hex="012E"/>
	<advance width="600"/>
	<outline>
		<contour>
			<point x="311" y="-225" type="curve" smooth="yes"/>
			<point x="349" y="-225"/>
			<point x="379" y="-209"/>
			<point x="402" y="-189" type="curve"/>
			<point x="377" y="-146" type="line"/>
			<point x="365" y="-157"/>
			<point x="349" y="-167"/>
			<point x="327" y="-167" type="curve" smooth="yes"/>
			<point x="300" y="-167"/>
			<point x="273" y="-151"/>
			<point x="273" y="-116" type="curve" smooth="yes"/>
			<point x="273" y="-79"/>
			<point x="296" y="-38"/>
			<point x="347" y="0" type="curve"/>
			<point x="505" y="0" type="line"/>
			<point x="505" y="71" type="line"/>
			<point x="342" y="71" type="line"/>
			<point x="342" y="586" type="line"/>
			<point x="505" y="586" type="line"/>
			<point x="505" y="656" type="line"/>
			<point x="95" y="656" type="line"/>
			<point x="95" y="586" type="line"/>
			<point x="258" y="586" type="line"/>
			<point x="258" y="71" type="line"/>
			<point x="95" y="71" type="line"/>
			<point x="95" y="0" type="line"/>
			<point x="279" y="0" type="line"/>
			<point x="246" y="-32"/>
			<point x="208" y="-78"/>
			<point x="208" y="-134" type="curve" smooth="yes"/>
			<point x="208" y="-195"/>
			<point x="253" y="-225"/>
		</contour>
		<contour>
			<point name="aboveUC" x="300" y="676" type="move"/>
		</contour>
	</outline>
</glyph>
<glyph name="ij" format="1">
	<unicode hex="0133"/>
	<advance width="600"/>
	<outline>
		<contour>
			<point x="112" y="0" type="line"/>
			<point x="194" y="0" type="line"/>
			<point x="194" y="486" type="line"/>
			<point x="112" y="486" type="line"/>
		</contour>
		<contour>
			<point x="154" y="586" type="curve" smooth="yes"/>
			<point x="188" y="586"/>
			<point x="214" y="609"/>
			<point x="214" y="644" type="curve" smooth="yes"/>
			<point x="214" y="679"/>
			<point x="188" y="702"/>
			<point x="154" y="702" type="curve" smooth="yes"/>
			<point x="119" y="702"/>
			<point x="93" y="679"/>
			<point x="93" y="644" type="curve" smooth="yes"/>
			<point x="93" y="609"/>
			<point x="119" y="586"/>
		</contour>
		<contour>
			<point x="371" y="-217" type="curve" smooth="yes"/>
			<point x="468" y="-217"/>
			<point x="504" y="-154"/>
			<point x="504" y="-55" type="curve" smooth="yes"/>
			<point x="504" y="486" type="line"/>
			<point x="422" y="486" type="line"/>
			<point x="422" y="-55" type="line" smooth="yes"/>
			<point x="422" y="-114"/>
			<point x="411" y="-150"/>
			<point x="362" y="-150" type="curve" smooth="yes"/>
			<point x="345" y="-150"/>
			<point x="329" y="-146"/>
			<point x="316" y="-142" type="curve"/>
			<point x="300" y="-204" type="line"/>
			<point x="317" y="-211"/>
			<point x="341" y="-217"/>
		</contour>
		<contour>
			<point x="464" y="586" type="curve" smooth="yes"/>
			<point x="498" y="586"/>
			<point x="524" y="609"/>
			<point x="524" y="644" type="curve" smooth="yes"/>
			<point x="524" y="679"/>
			<point x="498" y="702"/>
			<point x="464" y="702" type="curve" smooth="yes"/>
			<point x="429" y="702"/>
			<point x="403" y="679"/>
			<point x="403" y="644" type="curve" smooth="yes"/>
			<point x="403" y="609"/>
			<point x="429" y="586"/>
		</contour>
	</outline>
</glyph>
<glyph name="Lslash" format="2">
	<unicode hex="0141"/>
	<advance width="600"/>
	<outline>
		<contour>
			<point x="39" y="181" type="line"/>
			<point x="142" y="237" type="line"/>
			<point x="209" y="265" type="line"/>
			<point x="456" y="397" type="line"/>
			<point x="427" y="450" type="line"/>
			<point x="209" y="333" type="line"/>
			<point x="142" y="304" type="line"/>
			<point x="10" y="234" type="line"/>
		</contour>
		<component base="L"/>
	</outline>
	<anchor name="aboveUC" x="189" y="676"/>
	<anchor name="belowLC" x="349" y="-20"/>
</glyph>
<glyph name="lslash" format="2">
	<unicode hex="0142"/>
	<advance width="600"/>
	<outline>
		<contour>
			<point x="139" y="271" type="line"/>
			<point x="251" y="337" type="line"/>
			<point x="316" y="366" type="line"/>
			<point x="505" y="473" type="line"/>
			<point x="477" y="527" type="line"/>
			<point x="316" y="436" type="line"/>
			<point x="251" y="407" type="line"/>
			<point x="110" y="325" type="line"/>
		</contour>
		<component base="l"/>
	</outline>
	<anchor name="aboveUC" x="285" y="736"/>
	<anchor name="belowLC" x="385" y="-20"/>
</glyph>
<glyph name="napostrophe" format="1">
	<unicode hex="0149"/>
	<advance width="600"/>
	<outline>
		<contour>
			<point x="196" y="0" type="line"/>
			<point x="278" y="0" type="line"/>
			<point x="278" y="346" type="line"/>
			<point x="330" y="399"/>
			<point x="365" y="427"/>
			<point x="417" y="427" type="curve" smooth="yes"/>
			<point x="486" y="427"/>
			<point x="515" y="385"/>
			<point x="515" y="297" type="curve" smooth="yes"/>
			<point x="515" y="0" type="line"/>
			<point x="598" y="0" type="line"/>
			<point x="598" y="308" type="line" smooth="yes"/>
			<point x="598" y="432"/>
			<point x="548" y="498"/>
			<point x="443" y="498" type="curve" smooth="yes"/>
			<point x="372" y="498"/>
			<point x="322" y="459"/>
			<point x="275" y="410" type="curve"/>
			<point x="271" y="410" type="line"/>
			<point x="264" y="486" type="line"/>
			<point x="196" y="486" type="line"/>
		</contour>
		<component base="quoteright" xOffset="-239"/>
	</outline>
</glyph>
<glyph name="OE" format="1">
	<unicode hex="0152"/>
	<advance width="600"/>
	<outline>
		<contour>
			<point x="296" y="0" type="curve" smooth="yes"/>
			<point x="591" y="0" type="line"/>
			<point x="591" y="71" type="line"/>
			<point x="387" y="71" type="line"/>
			<point x="387" y="309" type="line"/>
			<point x="535" y="309" type="line"/>
			<point x="535" y="380" type="line"/>
			<point x="387" y="380" type="line"/>
			<point x="387" y="587" type="line"/>
			<point x="581" y="587" type="line"/>
			<point x="581" y="657" type="line"/>
			<point x="299" y="657" type="line" smooth="yes"/>
			<point x="133" y="657"/>
			<point x="33" y="539"/>
			<point x="33" y="331" type="curve" smooth="yes"/>
			<point x="33" y="122"/>
			<point x="131" y="0"/>
		</contour>
		<contour>
			<point x="289" y="68" type="line" smooth="yes"/>
			<point x="175" y="68"/>
			<point x="119" y="164"/>
			<point x="119" y="331" type="curve" smooth="yes"/>
			<point x="119" y="497"/>
			<point x="175" y="588"/>
			<point x="289" y="588" type="curve" smooth="yes"/>
			<point x="311" y="588" type="line"/>
			<point x="311" y="68" type="line"/>
		</contour>
		<contour>
			<point name="aboveUC" x="383" y="676" type="move"/>
		</contour>
		<contour>
			<point name="baseLC" x="452" y="0" type="move"/>
		</contour>
	</outline>
</glyph>
<glyph name="tbar" format="1">
	<unicode hex="0167"/>
	<advance width="600"/>
	<outline>
		<contour>
			<point x="70" y="220" type="line"/>
			<point x="508" y="220" type="line"/>
			<point x="508" y="284" type="line"/>
			<point x="210" y="284" type="line"/>
			<point x="70" y="278" type="line"/>
		</contour>
		<component base="t"/>
		<contour>
			<point name="aboveLC" x="256" y="643" type="move"/>
		</contour>
		<contour>
			<point name="belowLC" x="380" y="-20" type="move"/>
		</contour>
	</outline>
</glyph>
<glyph name="longs" format="1">
	<unicode hex="017F"/>
	<advance width="600"/>
	<outline>
		<contour>
			<point x="242" y="0" type="line"/>
			<point x="323" y="0" type="line"/>
			<point x="323" y="530" type="line" smooth="yes"/>
			<point x="323" y="609"/>
			<point x="359" y="657"/>
			<point x="446" y="657" type="curve" smooth="yes"/>
			<point x="488" y="657"/>
			<point x="519" y="652"/>
			<point x="559" y="634" type="curve"/>
			<point x="578" y="696" type="line"/>
			<point x="532" y="715"/>
			<point x="486" y="724"/>
			<point x="438" y="724" type="curve" smooth="yes"/>
			<point x="304" y="724"/>
			<point x="242" y="646"/>
			<point x="242" y="527" type="curve" smooth="yes"/>
		</contour>
		<contour>
			<point x="103" y="419" type="line"/>
			<point x="294" y="419" type="line"/>
			<point x="294" y="486" type="line"/>
			<point x="245" y="486" type="line"/>
			<point x="103" y="481" type="line"/>
		</contour>
	</outline>
</glyph>
<glyph name="bstroke" format="1">
	<unicode hex="0180"/>
	<advance width="600"/>
	<outline>
		<contour>
			<point x="320" y="-12" type="curve" smooth="yes"/>
			<point x="436" y="-12"/>
			<point x="540" y="81"/>
			<point x="540" y="241" type="curve" smooth="yes"/>
			<point x="540" y="385"/>
			<point x="469" y="478"/>
			<point x="338" y="478" type="curve" smooth="yes"/>
			<point x="281" y="478"/>
			<point x="219" y="449"/>
			<point x="175" y="404" type="curve"/>
			<point x="172" y="404" type="line"/>
			<point x="175" y="495" type="line"/>
			<point x="175" y="712" type="line"/>
			<point x="93" y="712" type="line"/>
			<point x="93" y="0" type="line"/>
			<point x="159" y="0" type="line"/>
			<point x="166" y="54" type="line"/>
			<point x="169" y="54" type="line"/>
			<point x="215" y="13"/>
			<point x="273" y="-12"/>
		</contour>
		<contour>
			<point x="307" y="57" type="curve" smooth="yes"/>
			<point x="272" y="57"/>
			<point x="221" y="73"/>
			<point x="175" y="114" type="curve"/>
			<point x="175" y="336" type="line"/>
			<point x="225" y="386"/>
			<point x="275" y="409"/>
			<point x="318" y="409" type="curve" smooth="yes"/>
			<point x="415" y="409"/>
			<point x="455" y="341"/>
			<point x="455" y="240" type="curve" smooth="yes"/>
			<point x="455" y="126"/>
			<point x="392" y="57"/>
		</contour>
		<contour>
			<point x="20" y="562" type="line"/>
			<point x="388" y="562" type="line"/>
			<point x="388" y="626" type="line"/>
			<point x="97" y="626" type="line"/>
			<point x="20" y="621" type="line"/>
		</contour>
	</outline>
</glyph>
<glyph name="Dhook" format="1">
	<unicode hex="018A"/>
	<advance width="600"/>
	<outline>
		<contour>
			<point x="209" y="0" type="line"/>
			<point x="308" y="0" type="line" smooth="yes"/>
			<point x="470" y="0"/>
			<point x="567" y="123"/>
			<point x="567" y="338" type="curve" smooth="yes"/>
			<point x="567" y="549"/>
			<point x="470" y="668"/>
			<point x="269" y="668" type="curve" smooth="yes"/>
			<point x="104" y="668"/>
			<point x="20" y="574"/>
			<point x="20" y="445" type="curve" smooth="yes"/>
			<point x="20" y="353"/>
			<point x="62" y="296"/>
			<point x="130" y="262" type="curve"/>
			<point x="170" y="320" type="line"/>
			<point x="120" y="350"/>
			<point x="94" y="385"/>
			<point x="94" y="449" type="curve" smooth="yes"/>
			<point x="94" y="534"/>
			<point x="148" y="599"/>
			<point x="251" y="599" type="curve" smooth="yes"/>
			<point x="279" y="599" type="line" smooth="yes"/>
			<point x="420" y="599"/>
			<point x="481" y="505"/>
			<point x="481" y="338" type="curve" smooth="yes"/>
			<point x="481" y="167"/>
			<point x="422" y="68"/>
			<point x="313" y="68" type="curve" smooth="yes"/>
			<point x="292" y="68" type="line"/>
			<point x="292" y="627" type="line"/>
			<point x="209" y="627" type="line"/>
		</contour>
		<contour>
			<point name="aboveUC" x="344" y="676" type="move"/>
		</contour>
		<contour>
			<point name="belowLC" x="370" y="-24" type="move"/>
		</contour>
	</outline>
</glyph>
<glyph name="Schwa" format="1">
	<unicode hex="018F"/>
	<advance width="600"/>
	<outline>
		<contour>
			<point x="300" y="-12" type="curve" smooth="yes"/>
			<point x="448" y="-12"/>
			<point x="550" y="120"/>
			<point x="550" y="330" type="curve" smooth="yes"/>
			<point x="550" y="540"/>
			<point x="456" y="668"/>
			<point x="301" y="668" type="curve" smooth="yes"/>
			<point x="224" y="668"/>
			<point x="166" y="637"/>
			<point x="125" y="595" type="curve"/>
			<point x="165" y="538" type="line"/>
			<point x="198" y="572"/>
			<point x="243" y="596"/>
			<point x="297" y="596" type="curve" smooth="yes"/>
			<point x="408" y="596"/>
			<point x="467" y="499"/>
			<point x="467" y="330" type="curve" smooth="yes"/>
			<point x="467" y="153"/>
			<point x="401" y="60"/>
			<point x="300" y="60" type="curve" smooth="yes"/>
			<point x="201" y="60"/>
			<point x="140" y="150"/>
			<point x="140" y="330" type="curve"/>
			<point x="119" y="286" type="line"/>
			<point x="486" y="286" type="line"/>
			<point x="486" y="350" type="line"/>
			<point x="60" y="350" type="line"/>
			<point x="59" y="342"/>
			<point x="59" y="335"/>
			<point x="59" y="327" type="curve" smooth="yes"/>
			<point x="59" y="123"/>
			<point x="153" y="-12"/>
		</contour>
		<contour>
			<point name="aboveUC" x="317" y="676" type="move"/>
		</contour>
		<contour>
			<point name="ogonekUC" x="310" y="0" type="move"/>
		</contour>
		<contour>
			<point name="baseLC" x="310" y="0" type="move"/>
		</contour>
		<contour>
			<point name="belowLC" x="304" y="-20" type="move"/>
		</contour>
	</outline>
</glyph>
<glyph name="florin" format="1">
	<unicode hex="0192"/>
	<advance width="600"/>
	<outline>
		<contour>
			<point x="132" y="-97" type="curve" smooth="yes"/>
			<point x="250" y="-97"/>
			<point x="292" y="-14"/>
			<point x="307" y="108" type="curve" smooth="yes"/>
			<point x="348" y="471" type="line" smooth="yes"/>
			<point x="356" y="539"/>
			<point x="383" y="601"/>
			<point x="449" y="601" type="curve" smooth="yes"/>
			<point x="478" y="601"/>
			<point x="498" y="595"/>
			<point x="516" y="586" type="curve"/>
			<point x="536" y="648" type="line"/>
			<point x="514" y="659"/>
			<point x="479" y="668"/>
			<point x="445" y="668" type="curve" smooth="yes"/>
			<point x="333" y="668"/>
			<point x="285" y="597"/>
			<point x="268" y="464" type="curve" smooth="yes"/>
			<point x="231" y="126" type="line" smooth="yes"/>
			<point x="218" y="24"/>
			<point x="193" y="-30"/>
			<point x="124" y="-30" type="curve" smooth="yes"/>
			<point x="103" y="-30"/>
			<point x="83" y="-24"/>
			<point x="65" y="-17" type="curve"/>
			<point x="49" y="-79" type="line"/>
			<point x="69" y="-88"/>
			<point x="97" y="-97"/>
		</contour>
		<contour>
			<point x="151" y="345" type="line"/>
			<point x="483" y="345" type="line"/>
			<point x="483" y="408" type="line"/>
			<point x="221" y="408" type="line"/>
			<point x="151" y="404" type="line"/>
		</contour>
	</outline>
</glyph>
<glyph name="Ghook" format="1">
	<unicode hex="0193"/>
	<advance width="600"/>
	<outline>
		<contour>
			<point x="525" y="588" type="line"/>
			<point x="499" y="626"/>
			<point x="485" y="647"/>
			<point x="485" y="683" type="curve" smooth="yes"/>
			<point x="485" y="713"/>
			<point x="505" y="737"/>
			<point x="539" y="737" type="curve" smooth="yes"/>
			<point x="553" y="737"/>
			<point x="562" y="732"/>
			<point x="573" y="728" type="curve"/>
			<point x="589" y="791" type="line"/>
			<point x="573" y="797"/>
			<point x="553" y="804"/>
			<point x="526" y="804" type="curve" smooth="yes"/>
			<point x="460" y="804"/>
			<point x="415" y="761"/>
			<point x="415" y="699" type="curve" smooth="yes"/>
			<point x="415" y="662"/>
			<point x="428" y="632"/>
			<point x="455" y="588" type="curve"/>
		</contour>
		<component base="G"/>
	</outline>
</glyph>
<glyph name="Istroke" format="2">
	<unicode hex="0197"/>
	<advance width="600"/>
	<outline>
		<contour>
			<point x="148" y="316" type="line"/>
			<point x="447" y="316" type="line"/>
			<point x="447" y="375" type="line"/>
			<point x="262" y="375" type="line"/>
			<point x="148" y="370" type="line"/>
		</contour>
		<component base="I"/>
	</outline>
</glyph>
<glyph name="Ohorn" format="1">
	<unicode hex="01A0"/>
	<advance width="600"/>
	<outline>
		<contour>
			<point x="452" y="604" type="line"/>
			<point x="522" y="622"/>
			<point x="562" y="664"/>
			<point x="562" y="732" type="curve" smooth="yes"/>
			<point x="562" y="762"/>
			<point x="553" y="791"/>
			<point x="539" y="813" type="curve"/>
			<point x="474" y="784" type="line"/>
			<point x="483" y="768"/>
			<point x="489" y="746"/>
			<point x="489" y="726" type="curve" smooth="yes"/>
			<point x="489" y="678"/>
			<point x="462" y="649"/>
			<point x="404" y="639" type="curve"/>
		</contour>
		<component base="O"/>
		<contour>
			<point name="aboveUC" x="300" y="676" type="move"/>
		</contour>
		<contour>
			<point name="belowLC" x="300" y="-20" type="move"/>
		</contour>
	</outline>
</glyph>
<glyph name="ohorn" format="1">
	<unicode hex="01A1"/>
	<advance width="600"/>
	<outline>
		<contour>
			<point x="441" y="442" type="line"/>
			<point x="503" y="459"/>
			<point x="559" y="500"/>
			<point x="559" y="582" type="curve" smooth="yes"/>
			<point x="559" y="612"/>
			<point x="550" y="641"/>
			<point x="536" y="664" type="curve"/>
			<point x="472" y="634" type="line"/>
			<point x="482" y="618"/>
			<point x="487" y="596"/>
			<point x="487" y="576" type="curve" smooth="yes"/>
			<point x="487" y="516"/>
			<point x="453" y="486"/>
			<point x="393" y="475" type="curve"/>
		</contour>
		<component base="o"/>
		<contour>
			<point name="aboveLC" x="300" y="507" type="move"/>
		</contour>
		<contour>
			<point name="belowLC" x="300" y="-20" type="move"/>
		</contour>
	</outline>
</glyph>
<glyph name="clickalveolar" format="1">
	<unicode hex="01C2"/>
	<advance width="600"/>
	<outline>
		<contour>
			<point x="260" y="-205" type="line"/>
			<point x="340" y="-205" type="line"/>
			<point x="340" y="712" type="line"/>
			<point x="260" y="712" type="line"/>
		</contour>
		<contour>
			<point x="84" y="324" type="line"/>
			<point x="516" y="324" type="line"/>
			<point x="516" y="386" type="line"/>
			<point x="264" y="386" type="line"/>
			<point x="84" y="382" type="line"/>
		</contour>
		<contour>
			<point x="84" y="154" type="line"/>
			<point x="516" y="154" type="line"/>
			<point x="516" y="216" type="line"/>
			<point x="264" y="216" type="line"/>
			<point x="84" y="212" type="line"/>
		</contour>
	</outline>
</glyph>
<glyph name="clickretroflex" format="2">
	<unicode hex="01C3"/>
	<advance width="378"/>
	<outline>
		<contour>
			<point x="161" y="206" type="line"/>
			<point x="217" y="206" type="line"/>
			<point x="229" y="576" type="line"/>
			<point x="231" y="712" type="line"/>
			<point x="146" y="712" type="line"/>
			<point x="148" y="576" type="line"/>
		</contour>
		<contour>
			<point x="189" y="-12" type="curve" smooth="yes"/>
			<point x="224" y="-12"/>
			<point x="252" y="14"/>
			<point x="252" y="53" type="curve" smooth="yes"/>
			<point x="252" y="93"/>
			<point x="224" y="118"/>
			<point x="189" y="118" type="curve" smooth="yes"/>
			<point x="154" y="118"/>
			<point x="126" y="93"/>
			<point x="126" y="53" type="curve" smooth="yes"/>
			<point x="126" y="14"/>
			<point x="154" y="-12"/>
		</contour>
	</outline>
	<anchor name="aboveUC" x="189" y="728"/>
	<anchor name="belowLC" x="189" y="-22"/>
</glyph>
<glyph name="Oogonek" format="1">
	<unicode hex="01EA"/>
	<advance width="600"/>
	<outline>
		<contour>
			<point x="318" y="-225" type="curve" smooth="yes"/>
			<point x="356" y="-225"/>
			<point x="386" y="-209"/>
			<point x="409" y="-189" type="curve"/>
			<point x="384" y="-146" type="line"/>
			<point x="371" y="-157"/>
			<point x="355" y="-167"/>
			<point x="334" y="-167" type="curve" smooth="yes"/>
			<point x="306" y="-167"/>
			<point x="279" y="-151"/>
			<point x="279" y="-116" type="curve" smooth="yes"/>
			<point x="279" y="-75"/>
			<point x="310" y="-28"/>
			<point x="371" y="-2" type="curve" smooth="yes"/>
			<point x="487" y="47"/>
			<point x="552" y="156"/>
			<point x="552" y="331" type="curve" smooth="yes"/>
			<point x="552" y="540"/>
			<point x="448" y="668"/>
			<point x="300" y="668" type="curve" smooth="yes"/>
			<point x="152" y="668"/>
			<point x="48" y="541"/>
			<point x="48" y="331" type="curve" smooth="yes"/>
			<point x="48" y="143"/>
			<point x="131" y="1"/>
			<point x="286" y="-11" type="curve"/>
			<point x="249" y="-42"/>
			<point x="215" y="-81"/>
			<point x="215" y="-134" type="curve" smooth="yes"/>
			<point x="215" y="-195"/>
			<point x="259" y="-225"/>
		</contour>
		<contour>
			<point x="300" y="60" type="curve" smooth="yes"/>
			<point x="200" y="60"/>
			<point x="134" y="159"/>
			<point x="134" y="331" type="curve" smooth="yes"/>
			<point x="134" y="496"/>
			<point x="200" y="595"/>
			<point x="300" y="595" type="curve" smooth="yes"/>
			<point x="400" y="595"/>
			<point x="466" y="496"/>
			<point x="466" y="331" type="curve" smooth="yes"/>
			<point x="466" y="159"/>
			<point x="400" y="60"/>
		</contour>
		<contour>
			<point name="aboveUC" x="300" y="676" type="move"/>
		</contour>
	</outline>
</glyph>
<glyph name="oogonek" format="1">
	<unicode hex="01EB"/>
	<advance width="600"/>
	<outline>
		<contour>
			<point x="324" y="-225" type="curve" smooth="yes"/>
			<point x="365" y="-225"/>
			<point x="396" y="-210"/>
			<point x="419" y="-189" type="curve"/>
			<point x="395" y="-150" type="line"/>
			<point x="383" y="-161"/>
			<point x="366" y="-171"/>
			<point x="341" y="-171" type="curve" smooth="yes"/>
			<point x="313" y="-171"/>
			<point x="284" y="-154"/>
			<point x="284" y="-116" type="curve" smooth="yes"/>
			<point x="284" y="-75"/>
			<point x="315" y="-27"/>
			<point x="369" y="-3" type="curve" smooth="yes"/>
			<point x="472" y="42"/>
			<point x="540" y="107"/>
			<point x="540" y="242" type="curve" smooth="yes"/>
			<point x="540" y="405"/>
			<point x="428" y="498"/>
			<point x="300" y="498" type="curve" smooth="yes"/>
			<point x="172" y="498"/>
			<point x="60" y="405"/>
			<point x="60" y="242" type="curve" smooth="yes"/>
			<point x="60" y="92"/>
			<point x="158" y="-5"/>
			<point x="291" y="-11" type="curve"/>
			<point x="256" y="-39"/>
			<point x="223" y="-80"/>
			<point x="223" y="-132" type="curve" smooth="yes"/>
			<point x="223" y="-195"/>
			<point x="267" y="-225"/>
		</contour>
		<contour>
			<point x="300" y="55" type="curve" smooth="yes"/>
			<point x="207" y="55"/>
			<point x="145" y="130"/>
			<point x="145" y="242" type="curve" smooth="yes"/>
			<point x="145" y="354"/>
			<point x="207" y="430"/>
			<point x="300" y="430" type="curve" smooth="yes"/>
			<point x="393" y="430"/>
			<point x="455" y="354"/>
			<point x="455" y="242" type="curve" smooth="yes"/>
			<point x="455" y="130"/>
			<point x="393" y="55"/>
		</contour>
		<contour>
			<point name="aboveLC" x="300" y="507" type="move"/>
		</contour>
	</outline>
</glyph>
<glyph name="aringacute" format="1">
	<unicode hex="01FB"/>
	<advance width="600"/>
	<outline>
		<contour>
			<point x="288" y="727" type="line"/>
			<point x="425" y="793" type="line"/>
			<point x="390" y="843" type="line"/>
			<point x="250" y="741" type="line"/>
		</contour>
		<component base="aring"/>
	</outline>
</glyph>
<glyph name="dotlessj" format="1">
	<unicode hex="0237"/>
	<advance width="600"/>
	<outline>
		<contour>
			<point x="194" y="-217" type="curve" smooth="yes"/>
			<point x="351" y="-217"/>
			<point x="398" y="-132"/>
			<point x="398" y="-12" type="curve" smooth="yes"/>
			<point x="398" y="486" type="line"/>
			<point x="90" y="486" type="line"/>
			<point x="90" y="419" type="line"/>
			<point x="316" y="419" type="line"/>
			<point x="316" y="-18" type="line" smooth="yes"/>
			<point x="316" y="-101"/>
			<point x="290" y="-150"/>
			<point x="193" y="-150" type="curve" smooth="yes"/>
			<point x="156" y="-150"/>
			<point x="117" y="-140"/>
			<point x="82" y="-123" type="curve"/>
			<point x="55" y="-184" type="line"/>
			<point x="94" y="-203"/>
			<point x="143" y="-217"/>
		</contour>
		<contour>
			<point name="aboveLC" x="348" y="507" type="move"/>
		</contour>
		<contour>
			<point name="belowLC" x="237" y="-219" type="move"/>
		</contour>
	</outline>
</glyph>
<glyph name="Glottalstop" format="2">
	<unicode hex="0241"/>
	<advance width="482"/>
	<outline>
		<contour>
			<point x="176" y="0" type="line"/>
			<point x="259" y="0" type="line"/>
			<point x="259" y="234" type="line"/>
			<point x="376" y="284"/>
			<point x="451" y="362"/>
			<point x="451" y="475" type="curve" smooth="yes"/>
			<point x="451" y="601"/>
			<point x="348" y="668"/>
			<point x="223" y="668" type="curve" smooth="yes"/>
			<point x="125" y="668"/>
			<point x="49" y="625"/>
			<point x="0" y="576" type="curve"/>
			<point x="46" y="522" type="line"/>
			<point x="87" y="561"/>
			<point x="150" y="595"/>
			<point x="218" y="595" type="curve" smooth="yes"/>
			<point x="309" y="595"/>
			<point x="365" y="547"/>
			<point x="365" y="470" type="curve" smooth="yes"/>
			<point x="365" y="388"/>
			<point x="314" y="325"/>
			<point x="176" y="274" type="curve"/>
		</contour>
	</outline>
	<anchor name="aboveUC" x="238" y="678"/>
	<anchor name="belowLC" x="215" y="-22"/>
</glyph>
<glyph name="alphalatin" format="1">
	<unicode hex="0251"/>
	<advance width="600"/>
	<outline>
		<contour>
			<point x="270" y="-12" type="curve" smooth="yes"/>
			<point x="331" y="-12"/>
			<point x="390" y="23"/>
			<point x="429" y="64" type="curve"/>
			<point x="432" y="64" type="line"/>
			<point x="439" y="0" type="line"/>
			<point x="507" y="0" type="line"/>
			<point x="507" y="486" type="line"/>
			<point x="441" y="486" type="line"/>
			<point x="434" y="432" type="line"/>
			<point x="431" y="432" type="line"/>
			<point x="386" y="475"/>
			<point x="339" y="498"/>
			<point x="282" y="498" type="curve" smooth="yes"/>
			<point x="165" y="498"/>
			<point x="60" y="400"/>
			<point x="60" y="242" type="curve" smooth="yes"/>
			<point x="60" y="80"/>
			<point x="145" y="-12"/>
		</contour>
		<contour>
			<point x="288" y="57" type="curve" smooth="yes"/>
			<point x="198" y="57"/>
			<point x="145" y="127"/>
			<point x="145" y="243" type="curve" smooth="yes"/>
			<point x="145" y="354"/>
			<point x="213" y="429"/>
			<point x="297" y="429" type="curve" smooth="yes"/>
			<point x="339" y="429"/>
			<point x="381" y="413"/>
			<point x="425" y="372" type="curve"/>
			<point x="425" y="130" type="line"/>
			<point x="382" y="82"/>
			<point x="336" y="57"/>
		</contour>
		<contour>
			<point name="aboveLC" x="304" y="507" type="move"/>
		</contour>
		<contour>
			<point name="baseLC" x="465" y="0" type="move"/>
		</contour>
		<contour>
			<point name="belowLC" x="304" y="-20" type="move"/>
		</contour>
	</outline>
</glyph>
<glyph name="alphalatinturned" format="1">
	<unicode hex="0252"/>
	<advance width="600"/>
	<outline>
		<contour>
			<point x="320" y="-12" type="curve" smooth="yes"/>
			<point x="436" y="-12"/>
			<point x="540" y="85"/>
			<point x="540" y="251" type="curve" smooth="yes"/>
			<point x="540" y="401"/>
			<point x="469" y="498"/>
			<point x="339" y="498" type="curve" smooth="yes"/>
			<point x="274" y="498"/>
			<point x="210" y="463"/>
			<point x="171" y="422" type="curve"/>
			<point x="168" y="422" type="line"/>
			<point x="161" y="486" type="line"/>
			<point x="93" y="486" type="line"/>
			<point x="93" y="0" type="line"/>
			<point x="159" y="0" type="line"/>
			<point x="166" y="54" type="line"/>
			<point x="169" y="54" type="line"/>
			<point x="215" y="13"/>
			<point x="272" y="-12"/>
		</contour>
		<contour>
			<point x="306" y="57" type="curve" smooth="yes"/>
			<point x="270" y="57"/>
			<point x="222" y="72"/>
			<point x="175" y="114" type="curve"/>
			<point x="175" y="356" type="line"/>
			<point x="218" y="404"/>
			<point x="269" y="429"/>
			<point x="317" y="429" type="curve" smooth="yes"/>
			<point x="414" y="429"/>
			<point x="455" y="357"/>
			<point x="455" y="247" type="curve" smooth="yes"/>
			<point x="455" y="130"/>
			<point x="391" y="57"/>
		</contour>
		<contour>
			<point name="aboveLC" x="319" y="507" type="move"/>
		</contour>
		<contour>
			<point name="belowLC" x="316" y="-20" type="move"/>
		</contour>
	</outline>
</glyph>
<glyph name="oopen" format="1">
	<unicode hex="0254"/>
	<advance width="600"/>
	<outline>
		<contour>
			<point x="257" y="-12" type="curve" smooth="yes"/>
			<point x="405" y="-12"/>
			<point x="520" y="81"/>
			<point x="520" y="242" type="curve" smooth="yes"/>
			<point x="520" y="405"/>
			<point x="402" y="498"/>
			<point x="263" y="498" type="curve" smooth="yes"/>
			<point x="175" y="498"/>
			<point x="112" y="466"/>
			<point x="71" y="427" type="curve"/>
			<point x="113" y="374" type="line"/>
			<point x="154" y="409"/>
			<point x="200" y="430"/>
			<point x="258" y="430" type="curve" smooth="yes"/>
			<point x="361" y="430"/>
			<point x="435" y="354"/>
			<point x="435" y="242" type="curve" smooth="yes"/>
			<point x="435" y="131"/>
			<point x="360" y="56"/>
			<point x="249" y="56" type="curve" smooth="yes"/>
			<point x="189" y="56"/>
			<point x="137" y="83"/>
			<point x="98" y="117" type="curve"/>
			<point x="61" y="64" type="line"/>
			<point x="113" y="16"/>
			<point x="182" y="-12"/>
		</contour>
		<contour>
			<point name="aboveLC" x="290" y="507" type="move"/>
		</contour>
		<contour>
			<point name="baseLC" x="280" y="0" type="move"/>
		</contour>
		<contour>
			<point name="belowLC" x="280" y="-20" type="move"/>
		</contour>
	</outline>
</glyph>
<glyph name="eopen" format="1">
	<unicode hex="025B"/>
	<advance width="600"/>
	<outline>
		<contour>
			<point x="318" y="-12" type="curve" smooth="yes"/>
			<point x="406" y="-12"/>
			<point x="474" y="6"/>
			<point x="535" y="59" type="curve"/>
			<point x="499" y="113" type="line"/>
			<point x="451" y="70"/>
			<point x="396" y="54"/>
			<point x="331" y="54" type="curve" smooth="yes"/>
			<point x="230" y="54"/>
			<point x="173" y="85"/>
			<point x="173" y="142" type="curve" smooth="yes"/>
			<point x="173" y="197"/>
			<point x="229" y="220"/>
			<point x="331" y="220" type="curve" smooth="yes"/>
			<point x="398" y="220" type="line"/>
			<point x="398" y="284" type="line"/>
			<point x="345" y="284" type="line"/>
			<point x="248" y="284"/>
			<point x="198" y="310"/>
			<point x="198" y="358" type="curve" smooth="yes"/>
			<point x="198" y="408"/>
			<point x="245" y="433"/>
			<point x="330" y="433" type="curve" smooth="yes"/>
			<point x="396" y="433"/>
			<point x="443" y="414"/>
			<point x="490" y="382" type="curve"/>
			<point x="523" y="436" type="line"/>
			<point x="471" y="473"/>
			<point x="407" y="498"/>
			<point x="326" y="498" type="curve" smooth="yes"/>
			<point x="204" y="498"/>
			<point x="116" y="456"/>
			<point x="116" y="368" type="curve" smooth="yes"/>
			<point x="116" y="320"/>
			<point x="150" y="281"/>
			<point x="205" y="260" type="curve"/>
			<point x="205" y="256" type="line"/>
			<point x="141" y="239"/>
			<point x="91" y="204"/>
			<point x="91" y="135" type="curve" smooth="yes"/>
			<point x="91" y="41"/>
			<point x="183" y="-12"/>
		</contour>
		<contour>
			<point name="aboveLC" x="330" y="507" type="move"/>
		</contour>
		<contour>
			<point name="baseLC" x="316" y="0" type="move"/>
		</contour>
		<contour>
			<point name="belowLC" x="316" y="-20" type="move"/>
		</contour>
	</outline>
</glyph>
<glyph name="gammalatin" format="1">
	<unicode hex="0263"/>
	<advance width="600"/>
	<outline>
		<contour>
			<point x="254" y="38" type="line"/>
			<point x="350" y="38" type="line"/>
			<point x="549" y="486" type="line"/>
			<point x="469" y="486" type="line"/>
			<point x="357" y="220" type="line"/>
			<point x="338" y="174"/>
			<point x="324" y="142"/>
			<point x="304" y="97" type="curve"/>
			<point x="300" y="97" type="line"/>
			<point x="280" y="142"/>
			<point x="267" y="174"/>
			<point x="248" y="220" type="curve"/>
			<point x="135" y="486" type="line"/>
			<point x="51" y="486" type="line"/>
		</contour>
		<contour>
			<point x="302" y="-224" type="curve" smooth="yes"/>
			<point x="376" y="-224"/>
			<point x="418" y="-176"/>
			<point x="418" y="-106" type="curve" smooth="yes"/>
			<point x="418" y="-54"/>
			<point x="386" y="-9"/>
			<point x="344" y="76" type="curve"/>
			<point x="260" y="76" type="line"/>
			<point x="218" y="-9"/>
			<point x="186" y="-54"/>
			<point x="186" y="-106" type="curve" smooth="yes"/>
			<point x="186" y="-176"/>
			<point x="228" y="-224"/>
		</contour>
		<contour>
			<point x="302" y="-167" type="curve" smooth="yes"/>
			<point x="272" y="-167"/>
			<point x="257" y="-141"/>
			<point x="257" y="-108" type="curve" smooth="yes"/>
			<point x="257" y="-76"/>
			<point x="275" y="-34"/>
			<point x="299" y="11" type="curve"/>
			<point x="304" y="11" type="line"/>
			<point x="329" y="-34"/>
			<point x="347" y="-74"/>
			<point x="347" y="-108" type="curve" smooth="yes"/>
			<point x="347" y="-141"/>
			<point x="333" y="-167"/>
		</contour>
		<contour>
			<point name="aboveLC" x="300" y="507" type="move"/>
		</contour>
		<contour>
			<point name="belowLC" x="300" y="-93" type="move"/>
		</contour>
	</outline>
</glyph>
<glyph name="henghook" format="1">
	<unicode hex="0267"/>
	<advance width="600"/>
	<outline>
		<contour>
			<point x="384" y="-183" type="curve" smooth="yes"/>
			<point x="485" y="-183"/>
			<point x="523" y="-118"/>
			<point x="523" y="-14" type="curve"/>
			<point x="523" y="294" type="line" smooth="yes"/>
			<point x="523" y="423"/>
			<point x="470" y="491"/>
			<point x="355" y="491" type="curve" smooth="yes"/>
			<point x="279" y="491"/>
			<point x="223" y="449"/>
			<point x="173" y="396" type="curve"/>
			<point x="169" y="396" type="line"/>
			<point x="175" y="539" type="line"/>
			<point x="178" y="613"/>
			<point x="209" y="657"/>
			<point x="281" y="657" type="curve" smooth="yes"/>
			<point x="301" y="657"/>
			<point x="324" y="652"/>
			<point x="347" y="642" type="curve"/>
			<point x="366" y="705" type="line"/>
			<point x="340" y="715"/>
			<point x="307" y="724"/>
			<point x="273" y="724" type="curve" smooth="yes"/>
			<point x="152" y="724"/>
			<point x="93" y="648"/>
			<point x="93" y="537" type="curve"/>
			<point x="93" y="0" type="line"/>
			<point x="175" y="0" type="line"/>
			<point x="175" y="332" type="line"/>
			<point x="232" y="390"/>
			<point x="271" y="419"/>
			<point x="329" y="419" type="curve" smooth="yes"/>
			<point x="409" y="419"/>
			<point x="441" y="376"/>
			<point x="441" y="284" type="curve" smooth="yes"/>
			<point x="441" y="-14" type="line"/>
			<point x="441" y="-77"/>
			<point x="428" y="-116"/>
			<point x="375" y="-116" type="curve" smooth="yes"/>
			<point x="355" y="-116"/>
			<point x="336" y="-111"/>
			<point x="322" y="-106" type="curve"/>
			<point x="306" y="-169" type="line"/>
			<point x="324" y="-176"/>
			<point x="352" y="-183"/>
		</contour>
		<contour>
			<point name="aboveUC" x="271" y="736" type="move"/>
		</contour>
		<contour>
			<point name="belowLC" x="361" y="-219" type="move"/>
		</contour>
	</outline>
</glyph>
<glyph name="ismall" format="1">
	<unicode hex="026A"/>
	<advance width="600"/>
	<outline>
		<contour>
			<point x="86" y="0" type="line"/>
			<point x="514" y="0" type="line"/>
			<point x="514" y="67" type="line"/>
			<point x="340" y="67" type="line"/>
			<point x="340" y="419" type="line"/>
			<point x="514" y="419" type="line"/>
			<point x="514" y="486" type="line"/>
			<point x="86" y="486" type="line"/>
			<point x="86" y="419" type="line"/>
			<point x="258" y="419" type="line"/>
			<point x="258" y="67" type="line"/>
			<point x="86" y="67" type="line"/>
		</contour>
		<contour>
			<point name="aboveLC" x="300" y="507" type="move"/>
		</contour>
		<contour>
			<point name="belowLC" x="300" y="-20" type="move"/>
		</contour>
	</outline>
</glyph>
<glyph name="lmiddletilde" format="1">
	<unicode hex="026B"/>
	<advance width="600"/>
	<outline>
		<component base="l"/>
		<component base="tildeoverlaycmb" xOffset="-12" yOffset="142"/>
		<contour>
			<point name="aboveUC" x="285" y="736" type="move"/>
		</contour>
		<contour>
			<point name="belowLC" x="385" y="-20" type="move"/>
		</contour>
	</outline>
</glyph>
<glyph name="lbelt" format="1">
	<unicode hex="026C"/>
	<advance width="600"/>
	<outline>
		<contour>
			<point x="232" y="302" type="curve" smooth="yes"/>
			<point x="469" y="302" type="line"/>
			<point x="469" y="366" type="line"/>
			<point x="214" y="366" type="line" smooth="yes"/>
			<point x="166" y="366"/>
			<point x="142" y="380"/>
			<point x="142" y="404" type="curve" smooth="yes"/>
			<point x="142" y="424"/>
			<point x="156" y="436"/>
			<point x="174" y="436" type="curve" smooth="yes"/>
			<point x="224" y="436"/>
			<point x="247" y="402"/>
			<point x="247" y="372" type="curve"/>
			<point x="282" y="360" type="line"/>
			<point x="282" y="402"/>
			<point x="262" y="494"/>
			<point x="166" y="494" type="curve" smooth="yes"/>
			<point x="114" y="494"/>
			<point x="76" y="458"/>
			<point x="76" y="408" type="curve" smooth="yes"/>
			<point x="76" y="346"/>
			<point x="120" y="302"/>
		</contour>
		<component base="l"/>
		<contour>
			<point name="aboveUC" x="285" y="736" type="move"/>
		</contour>
		<contour>
			<point name="belowLC" x="385" y="-20" type="move"/>
		</contour>
	</outline>
</glyph>
<glyph name="lezh" format="1">
	<unicode hex="026E"/>
	<advance width="600"/>
	<outline>
		<contour>
			<point x="79" y="0" type="line"/>
			<point x="161" y="0" type="line"/>
			<point x="161" y="712" type="line"/>
			<point x="79" y="712" type="line"/>
		</contour>
		<contour>
			<point x="358" y="-217" type="curve" smooth="yes"/>
			<point x="468" y="-217"/>
			<point x="571" y="-138"/>
			<point x="571" y="2" type="curve" smooth="yes"/>
			<point x="571" y="120"/>
			<point x="485" y="214"/>
			<point x="327" y="186" type="curve"/>
			<point x="339" y="165" type="line"/>
			<point x="549" y="442" type="line"/>
			<point x="549" y="486" type="line"/>
			<point x="157" y="486" type="line"/>
			<point x="157" y="419" type="line"/>
			<point x="446" y="419" type="line"/>
			<point x="251" y="161" type="line"/>
			<point x="285" y="117" type="line"/>
			<point x="307" y="127"/>
			<point x="321" y="132"/>
			<point x="355" y="132" type="curve" smooth="yes"/>
			<point x="437" y="132"/>
			<point x="487" y="82"/>
			<point x="487" y="0" type="curve" smooth="yes"/>
			<point x="487" y="-90"/>
			<point x="426" y="-149"/>
			<point x="351" y="-149" type="curve" smooth="yes"/>
			<point x="277" y="-149"/>
			<point x="231" y="-120"/>
			<point x="196" y="-87" type="curve"/>
			<point x="155" y="-139" type="line"/>
			<point x="197" y="-179"/>
			<point x="258" y="-217"/>
		</contour>
		<contour>
			<point name="aboveUC" x="123" y="736" type="move"/>
		</contour>
		<contour>
			<point name="belowLC" x="357" y="-219" type="move"/>
		</contour>
	</outline>
</glyph>
<glyph name="mturned" format="1">
	<unicode hex="026F"/>
	<advance width="600"/>
	<outline>
		<component base="m" xScale="-1" yScale="-1" xOffset="600" yOffset="486"/>
		<contour>
			<point name="aboveLC" x="294" y="508" type="move"/>
		</contour>
		<contour>
			<point name="belowLC" x="294" y="-20" type="move"/>
		</contour>
	</outline>
</glyph>
<glyph name="nretroflex" format="1">
	<unicode hex="0273"/>
	<advance width="600"/>
	<outline>
		<contour>
			<point x="560" y="-183" type="curve" smooth="yes"/>
			<point x="585" y="-183"/>
			<point x="607" y="-177"/>
			<point x="621" y="-170" type="curve"/>
			<point x="605" y="-107" type="line"/>
			<point x="595" y="-111"/>
			<point x="582" y="-116"/>
			<point x="569" y="-116" type="curve" smooth="yes"/>
			<point x="530" y="-116"/>
			<point x="519" y="-83"/>
			<point x="519" y="-28" type="curve"/>
			<point x="519" y="302" type="line" smooth="yes"/>
			<point x="519" y="430"/>
			<point x="466" y="498"/>
			<point x="351" y="498" type="curve" smooth="yes"/>
			<point x="277" y="498"/>
			<point x="223" y="457"/>
			<point x="172" y="403" type="curve"/>
			<point x="168" y="403" type="line"/>
			<point x="161" y="486" type="line"/>
			<point x="93" y="486" type="line"/>
			<point x="93" y="0" type="line"/>
			<point x="175" y="0" type="line"/>
			<point x="175" y="339" type="line"/>
			<point x="232" y="398"/>
			<point x="270" y="427"/>
			<point x="327" y="427" type="curve" smooth="yes"/>
			<point x="404" y="427"/>
			<point x="437" y="386"/>
			<point x="437" y="291" type="curve" smooth="yes"/>
			<point x="437" y="-28" type="line"/>
			<point x="437" y="-124"/>
			<point x="470" y="-183"/>
		</contour>
		<contour>
			<point name="aboveLC" x="324" y="507" type="move"/>
		</contour>
		<contour>
			<point name="belowLC" x="430" y="-219" type="move"/>
		</contour>
	</outline>
</glyph>
<glyph name="nsmall" format="1">
	<unicode hex="0274"/>
	<advance width="600"/>
	<outline>
		<contour>
			<point x="96" y="0" type="line"/>
			<point x="174" y="0" type="line"/>
			<point x="174" y="202" type="line"/>
			<point x="174" y="254"/>
			<point x="170" y="316"/>
			<point x="166" y="379" type="curve"/>
			<point x="170" y="379" type="line"/>
			<point x="190" y="348"/>
			<point x="217" y="305"/>
			<point x="237" y="275" type="curve" smooth="yes"/>
			<point x="425" y="0" type="line"/>
			<point x="504" y="0" type="line"/>
			<point x="504" y="486" type="line"/>
			<point x="426" y="486" type="line"/>
			<point x="426" y="284" type="line"/>
			<point x="426" y="232"/>
			<point x="430" y="170"/>
			<point x="434" y="107" type="curve"/>
			<point x="430" y="107" type="line"/>
			<point x="409" y="138"/>
			<point x="383" y="181"/>
			<point x="363" y="211" type="curve" smooth="yes"/>
			<point x="175" y="486" type="line"/>
			<point x="96" y="486" type="line"/>
		</contour>
		<contour>
			<point name="aboveLC" x="309" y="507" type="move"/>
		</contour>
		<contour>
			<point name="belowLC" x="302" y="-20" type="move"/>
		</contour>
	</outline>
</glyph>
<glyph name="obar" format="1">
	<unicode hex="0275"/>
	<advance width="600"/>
	<outline>
		<contour>
			<point x="300" y="-12" type="curve" smooth="yes"/>
			<point x="429" y="-12"/>
			<point x="540" y="75"/>
			<point x="540" y="242" type="curve" smooth="yes"/>
			<point x="540" y="411"/>
			<point x="429" y="498"/>
			<point x="300" y="498" type="curve" smooth="yes"/>
			<point x="171" y="498"/>
			<point x="60" y="411"/>
			<point x="60" y="242" type="curve" smooth="yes"/>
			<point x="60" y="75"/>
			<point x="171" y="-12"/>
		</contour>
		<contour>
			<point x="300" y="53" type="curve" smooth="yes"/>
			<point x="204" y="53"/>
			<point x="138" y="123"/>
			<point x="138" y="242" type="curve" smooth="yes"/>
			<point x="138" y="362"/>
			<point x="204" y="434"/>
			<point x="300" y="434" type="curve" smooth="yes"/>
			<point x="396" y="434"/>
			<point x="462" y="362"/>
			<point x="462" y="242" type="curve" smooth="yes"/>
			<point x="462" y="123"/>
			<point x="396" y="53"/>
		</contour>
		<contour>
			<point x="120" y="220" type="line"/>
			<point x="476" y="220" type="line"/>
			<point x="476" y="284" type="line"/>
			<point x="120" y="284" type="line"/>
		</contour>
		<contour>
			<point name="aboveLC" x="300" y="507" type="move"/>
		</contour>
		<contour>
			<point name="belowLC" x="300" y="-20" type="move"/>
		</contour>
	</outline>
</glyph>
<glyph name="oesmall" format="1">
	<unicode hex="0276"/>
	<advance width="600"/>
	<outline>
		<contour>
			<point x="238" y="-12" type="curve" smooth="yes"/>
			<point x="270" y="-12"/>
			<point x="299" y="-9"/>
			<point x="336" y="0" type="curve"/>
			<point x="587" y="0" type="line"/>
			<point x="587" y="68" type="line"/>
			<point x="387" y="68" type="line"/>
			<point x="387" y="220" type="line"/>
			<point x="540" y="220" type="line"/>
			<point x="540" y="284" type="line"/>
			<point x="387" y="284" type="line"/>
			<point x="387" y="418" type="line"/>
			<point x="577" y="418" type="line"/>
			<point x="577" y="486" type="line"/>
			<point x="336" y="486" type="line"/>
			<point x="297" y="496"/>
			<point x="270" y="498"/>
			<point x="238" y="498" type="curve" smooth="yes"/>
			<point x="126" y="498"/>
			<point x="33" y="410"/>
			<point x="33" y="243" type="curve" smooth="yes"/>
			<point x="33" y="76"/>
			<point x="126" y="-12"/>
		</contour>
		<contour>
			<point x="245" y="55" type="curve" smooth="yes"/>
			<point x="174" y="55"/>
			<point x="118" y="114"/>
			<point x="118" y="243" type="curve" smooth="yes"/>
			<point x="118" y="369"/>
			<point x="174" y="430"/>
			<point x="245" y="430" type="curve" smooth="yes"/>
			<point x="266" y="430"/>
			<point x="291" y="424"/>
			<point x="311" y="418" type="curve"/>
			<point x="311" y="67" type="line"/>
			<point x="290" y="61"/>
			<point x="265" y="55"/>
		</contour>
		<contour>
			<point name="aboveLC" x="354" y="507" type="move"/>
		</contour>
		<contour>
			<point name="belowLC" x="350" y="-20" type="move"/>
		</contour>
	</outline>
</glyph>
<glyph name="philatin" format="1">
	<unicode hex="0278"/>
	<advance width="600"/>
	<outline>
		<contour>
			<point x="274" y="-9" type="curve"/>
			<point x="271" y="56" type="line"/>
			<point x="190" y="57"/>
			<point x="128" y="126"/>
			<point x="128" y="244" type="curve" smooth="yes"/>
			<point x="128" y="361"/>
			<point x="190" y="429"/>
			<point x="271" y="430" type="curve"/>
			<point x="274" y="495" type="line"/>
			<point x="152" y="495"/>
			<point x="44" y="406"/>
			<point x="44" y="244" type="curve" smooth="yes"/>
			<point x="44" y="81"/>
			<point x="152" y="-9"/>
		</contour>
		<contour>
			<point x="326" y="-9" type="line"/>
			<point x="448" y="-9"/>
			<point x="556" y="81"/>
			<point x="556" y="244" type="curve" smooth="yes"/>
			<point x="556" y="406"/>
			<point x="448" y="495"/>
			<point x="326" y="495" type="curve"/>
			<point x="329" y="430" type="line"/>
			<point x="410" y="429"/>
			<point x="472" y="361"/>
			<point x="472" y="244" type="curve" smooth="yes"/>
			<point x="472" y="126"/>
			<point x="410" y="57"/>
			<point x="329" y="56" type="curve"/>
		</contour>
		<contour>
			<point x="260" y="-205" type="line"/>
			<point x="340" y="-205" type="line"/>
			<point x="340" y="712" type="line"/>
			<point x="260" y="712" type="line"/>
		</contour>
		<contour>
			<point name="aboveUC" x="300" y="736" type="move"/>
		</contour>
		<contour>
			<point name="belowLC" x="300" y="-219" type="move"/>
		</contour>
	</outline>
</glyph>
<glyph name="rturned" format="1">
	<unicode hex="0279"/>
	<advance width="600"/>
	<outline>
		<component base="r" xScale="-1" yScale="-1" xOffset="600" yOffset="486"/>
		<contour>
			<point name="aboveLC" x="410" y="507" type="move"/>
		</contour>
		<contour>
			<point name="belowLC" x="271" y="-20" type="move"/>
		</contour>
	</outline>
</glyph>
<glyph name="rlonglegturned" format="1">
	<unicode hex="027A"/>
	<advance width="600"/>
	<outline>
		<contour>
			<point x="159" y="-12" type="curve" smooth="yes"/>
			<point x="249" y="-12"/>
			<point x="325" y="37"/>
			<point x="376" y="115" type="curve"/>
			<point x="379" y="115" type="line"/>
			<point x="386" y="0" type="line"/>
			<point x="454" y="0" type="line"/>
			<point x="454" y="712" type="line"/>
			<point x="372" y="712" type="line"/>
			<point x="372" y="201" type="line"/>
			<point x="314" y="100"/>
			<point x="245" y="62"/>
			<point x="172" y="62" type="curve" smooth="yes"/>
			<point x="134" y="62"/>
			<point x="116" y="67"/>
			<point x="82" y="79" type="curve"/>
			<point x="63" y="8" type="line"/>
			<point x="93" y="-7"/>
			<point x="123" y="-12"/>
		</contour>
		<contour>
			<point name="aboveUC" x="410" y="736" type="move"/>
		</contour>
		<contour>
			<point name="belowLC" x="271" y="-20" type="move"/>
		</contour>
	</outline>
</glyph>
<glyph name="shook" format="1">
	<unicode hex="0282"/>
	<advance width="600"/>
	<outline>
		<contour>
			<point x="197" y="-183" type="curve" smooth="yes"/>
			<point x="227" y="-183"/>
			<point x="252" y="-177"/>
			<point x="268" y="-170" type="curve"/>
			<point x="252" y="-109" type="line"/>
			<point x="240" y="-113"/>
			<point x="223" y="-117"/>
			<point x="206" y="-117" type="curve" smooth="yes"/>
			<point x="158" y="-117"/>
			<point x="145" y="-82"/>
			<point x="145" y="-30" type="curve"/>
			<point x="145" y="56" type="line"/>
			<point x="71" y="64" type="line"/>
			<point x="71" y="-21" type="line" smooth="yes"/>
			<point x="71" y="-127"/>
			<point x="108" y="-183"/>
		</contour>
		<component base="s"/>
		<contour>
			<point name="aboveLC" x="303" y="507" type="move"/>
		</contour>
		<contour>
			<point name="belowLC" x="310" y="-219" type="move"/>
		</contour>
	</outline>
</glyph>
<glyph name="dotlessjstrokehook" format="1">
	<unicode hex="0284"/>
	<advance width="600"/>
	<outline>
		<contour>
			<point x="84" y="222" type="line"/>
			<point x="516" y="222" type="line"/>
			<point x="516" y="286" type="line"/>
			<point x="262" y="286" type="line"/>
			<point x="84" y="280" type="line"/>
		</contour>
		<component base="esh"/>
		<contour>
			<point name="aboveUC" x="362" y="736" type="move"/>
		</contour>
		<contour>
			<point name="belowLC" x="256" y="-219" type="move"/>
		</contour>
	</outline>
</glyph>
<glyph name="tturned" format="1">
	<unicode hex="0287"/>
	<advance width="600"/>
	<outline>
		<component base="t" xScale="-1" yScale="-1" xOffset="600" yOffset="486"/>
		<contour>
			<point name="aboveLC" x="235" y="507" type="move"/>
		</contour>
		<contour>
			<point name="belowLC" x="352" y="-72" type="move"/>
		</contour>
	</outline>
</glyph>
<glyph name="tretroflex" format="1">
	<unicode hex="0288"/>
	<advance width="600"/>
	<outline>
		<contour>
			<point x="393" y="-183" type="curve" smooth="yes"/>
			<point x="446" y="-183"/>
			<point x="502" y="-170"/>
			<point x="546" y="-154" type="curve"/>
			<point x="528" y="-94" type="line"/>
			<point x="494" y="-107"/>
			<point x="457" y="-116"/>
			<point x="411" y="-116" type="curve" smooth="yes"/>
			<point x="317" y="-116"/>
			<point x="288" y="-70"/>
			<point x="288" y="17" type="curve" smooth="yes"/>
			<point x="288" y="419" type="line"/>
			<point x="527" y="419" type="line"/>
			<point x="527" y="486" type="line"/>
			<point x="288" y="486" type="line"/>
			<point x="288" y="642" type="line"/>
			<point x="220" y="642" type="line"/>
			<point x="209" y="486" type="line"/>
			<point x="69" y="481" type="line"/>
			<point x="69" y="419" type="line"/>
			<point x="206" y="419" type="line"/>
			<point x="206" y="18" type="line" smooth="yes"/>
			<point x="206" y="-102"/>
			<point x="252" y="-183"/>
		</contour>
		<contour>
			<point name="aboveLC" x="253" y="643" type="move"/>
		</contour>
		<contour>
			<point name="belowLC" x="380" y="-219" type="move"/>
		</contour>
	</outline>
</glyph>
<glyph name="upsilonlatin" format="1">
	<unicode hex="028A"/>
	<advance width="600"/>
	<outline>
		<contour>
			<point x="300" y="-12" type="curve" smooth="yes"/>
			<point x="451" y="-12"/>
			<point x="538" y="96"/>
			<point x="538" y="209" type="curve" smooth="yes"/>
			<point x="538" y="308"/>
			<point x="488" y="375"/>
			<point x="444" y="417" type="curve"/>
			<point x="444" y="419" type="line"/>
			<point x="550" y="419" type="line"/>
			<point x="550" y="486" type="line"/>
			<point x="355" y="486" type="line"/>
			<point x="355" y="433" type="line"/>
			<point x="412" y="385"/>
			<point x="454" y="323"/>
			<point x="454" y="226" type="curve" smooth="yes"/>
			<point x="454" y="135"/>
			<point x="402" y="56"/>
			<point x="300" y="56" type="curve" smooth="yes"/>
			<point x="198" y="56"/>
			<point x="146" y="135"/>
			<point x="146" y="226" type="curve" smooth="yes"/>
			<point x="146" y="323"/>
			<point x="188" y="385"/>
			<point x="245" y="433" type="curve"/>
			<point x="245" y="486" type="line"/>
			<point x="50" y="486" type="line"/>
			<point x="50" y="419" type="line"/>
			<point x="156" y="419" type="line"/>
			<point x="156" y="417" type="line"/>
			<point x="112" y="375"/>
			<point x="62" y="308"/>
			<point x="62" y="209" type="curve" smooth="yes"/>
			<point x="62" y="96"/>
			<point x="149" y="-12"/>
		</contour>
		<contour>
			<point name="aboveLC" x="300" y="507" type="move"/>
		</contour>
		<contour>
			<point name="belowLC" x="300" y="-20" type="move"/>
		</contour>
	</outline>
</glyph>
<glyph name="vhook" format="1">
	<unicode hex="028B"/>
	<advance width="600"/>
	<outline>
		<contour>
			<point x="297" y="-12" type="curve" smooth="yes"/>
			<point x="457" y="-12"/>
			<point x="540" y="117"/>
			<point x="540" y="293" type="curve" smooth="yes"/>
			<point x="540" y="433"/>
			<point x="479" y="498"/>
			<point x="384" y="498" type="curve" smooth="yes"/>
			<point x="352" y="498"/>
			<point x="338" y="495"/>
			<point x="319" y="490" type="curve"/>
			<point x="332" y="426" type="line"/>
			<point x="345" y="430"/>
			<point x="349" y="432"/>
			<point x="367" y="432" type="curve" smooth="yes"/>
			<point x="427" y="432"/>
			<point x="455" y="379"/>
			<point x="455" y="281" type="curve" smooth="yes"/>
			<point x="455" y="153"/>
			<point x="400" y="56"/>
			<point x="300" y="56" type="curve" smooth="yes"/>
			<point x="222" y="56"/>
			<point x="160" y="102"/>
			<point x="160" y="219" type="curve" smooth="yes"/>
			<point x="160" y="486" type="line"/>
			<point x="77" y="486" type="line"/>
			<point x="77" y="212" type="line" smooth="yes"/>
			<point x="77" y="57"/>
			<point x="171" y="-12"/>
		</contour>
		<contour>
			<point name="aboveLC" x="303" y="507" type="move"/>
		</contour>
		<contour>
			<point name="belowLC" x="303" y="-20" type="move"/>
		</contour>
	</outline>
</glyph>
<glyph name="vturned" format="1">
	<unicode hex="028C"/>
	<advance width="600"/>
	<outline>
		<component base="v" xScale="-1" yScale="-1" xOffset="600" yOffset="486"/>
		<contour>
			<point name="aboveLC" x="300" y="507" type="move"/>
		</contour>
		<contour>
			<point name="belowLC" x="300" y="-20" type="move"/>
		</contour>
	</outline>
</glyph>
<glyph name="yturned" format="1">
	<unicode hex="028E"/>
	<advance width="600"/>
	<outline>
		<contour>
			<point x="49" y="0" type="line"/>
			<point x="127" y="0" type="line"/>
			<point x="233" y="269" type="line" smooth="yes"/>
			<point x="249" y="313"/>
			<point x="268" y="364"/>
			<point x="285" y="410" type="curve"/>
			<point x="289" y="410" type="line"/>
			<point x="309" y="363"/>
			<point x="330" y="312"/>
			<point x="349" y="269" type="curve" smooth="yes"/>
			<point x="468" y="0" type="line"/>
			<point x="551" y="0" type="line"/>
			<point x="324" y="487" type="line"/>
			<point x="351" y="550" type="line"/>
			<point x="374" y="611"/>
			<point x="413" y="656"/>
			<point x="477" y="656" type="curve" smooth="yes"/>
			<point x="493" y="656"/>
			<point x="507" y="653"/>
			<point x="519" y="649" type="curve"/>
			<point x="537" y="714" type="line"/>
			<point x="519" y="720"/>
			<point x="496" y="724"/>
			<point x="473" y="724" type="curve" smooth="yes"/>
			<point x="368" y="724"/>
			<point x="311" y="650"/>
			<point x="275" y="554" type="curve"/>
		</contour>
		<contour>
			<point name="aboveUC" x="397" y="736" type="move"/>
		</contour>
		<contour>
			<point name="belowLC" x="306" y="-20" type="move"/>
		</contour>
	</outline>
</glyph>
<glyph name="ysmall" format="1">
	<unicode hex="028F"/>
	<advance width="600"/>
	<outline>
		<contour>
			<point x="260" y="0" type="line"/>
			<point x="342" y="0" type="line"/>
			<point x="342" y="164" type="line"/>
			<point x="545" y="486" type="line"/>
			<point x="457" y="486" type="line"/>
			<point x="373" y="348" type="line" smooth="yes"/>
			<point x="347" y="305"/>
			<point x="326" y="270"/>
			<point x="304" y="226" type="curve"/>
			<point x="300" y="226" type="line"/>
			<point x="277" y="270"/>
			<point x="254" y="306"/>
			<point x="231" y="348" type="curve" smooth="yes"/>
			<point x="146" y="486" type="line"/>
			<point x="57" y="486" type="line"/>
			<point x="260" y="164" type="line"/>
		</contour>
		<contour>
			<point name="aboveLC" x="300" y="507" type="move"/>
		</contour>
		<contour>
			<point name="belowLC" x="300" y="-20" type="move"/>
		</contour>
	</outline>
</glyph>
<glyph name="zcurl" format="1">
	<unicode hex="0291"/>
	<advance width="600"/>
	<outline>
		<contour>
			<point x="358" y="-116" type="line"/>
			<point x="388" y="84"/>
			<point x="440" y="156"/>
			<point x="486" y="156" type="curve" smooth="yes"/>
			<point x="506" y="156"/>
			<point x="520" y="144"/>
			<point x="520" y="122" type="curve" smooth="yes"/>
			<point x="520" y="92"/>
			<point x="494" y="64"/>
			<point x="445" y="64" type="curve" smooth="yes"/>
			<point x="356" y="64"/>
			<point x="280" y="66"/>
			<point x="180" y="67" type="curve"/>
			<point x="503" y="442" type="line"/>
			<point x="503" y="486" type="line"/>
			<point x="108" y="486" type="line"/>
			<point x="108" y="419" type="line"/>
			<point x="395" y="419" type="line"/>
			<point x="71" y="44" type="line"/>
			<point x="71" y="0" type="line"/>
			<point x="426" y="0" type="line"/>
			<point x="530" y="0"/>
			<point x="582" y="54"/>
			<point x="582" y="126" type="curve" smooth="yes"/>
			<point x="582" y="180"/>
			<point x="544" y="216"/>
			<point x="492" y="216" type="curve" smooth="yes"/>
			<point x="400" y="216"/>
			<point x="332" y="108"/>
			<point x="296" y="-106" type="curve"/>
		</contour>
		<contour>
			<point name="aboveLC" x="311" y="507" type="move"/>
		</contour>
	</outline>
</glyph>
<glyph name="glottalstop" format="1">
	<unicode hex="0294"/>
	<advance width="600"/>
	<outline>
		<contour>
			<point x="239" y="0" type="line"/>
			<point x="321" y="0" type="line"/>
			<point x="321" y="275" type="line"/>
			<point x="431" y="346"/>
			<point x="510" y="408"/>
			<point x="510" y="524" type="curve" smooth="yes"/>
			<point x="510" y="656"/>
			<point x="409" y="724"/>
			<point x="283" y="724" type="curve" smooth="yes"/>
			<point x="181" y="724"/>
			<point x="115" y="677"/>
			<point x="71" y="628" type="curve"/>
			<point x="115" y="575" type="line"/>
			<point x="150" y="617"/>
			<point x="201" y="656"/>
			<point x="277" y="656" type="curve" smooth="yes"/>
			<point x="372" y="656"/>
			<point x="426" y="604"/>
			<point x="426" y="523" type="curve" smooth="yes"/>
			<point x="426" y="436"/>
			<point x="370" y="385"/>
			<point x="239" y="311" type="curve"/>
		</contour>
		<contour>
			<point name="aboveUC" x="300" y="736" type="move"/>
		</contour>
		<contour>
			<point name="belowLC" x="279" y="-20" type="move"/>
		</contour>
	</outline>
</glyph>
<glyph name="clickbilabial" format="1">
	<unicode hex="0298"/>
	<advance width="600"/>
	<outline>
		<contour>
			<point x="300" y="-12" type="curve" smooth="yes"/>
			<point x="446" y="-12"/>
			<point x="541" y="102"/>
			<point x="541" y="359" type="curve" smooth="yes"/>
			<point x="541" y="597"/>
			<point x="446" y="724"/>
			<point x="300" y="724" type="curve" smooth="yes"/>
			<point x="154" y="724"/>
			<point x="60" y="597"/>
			<point x="60" y="359" type="curve" smooth="yes"/>
			<point x="60" y="102"/>
			<point x="154" y="-12"/>
		</contour>
		<contour>
			<point x="300" y="56" type="curve" smooth="yes"/>
			<point x="208" y="56"/>
			<point x="138" y="136"/>
			<point x="138" y="359" type="curve" smooth="yes"/>
			<point x="138" y="563"/>
			<point x="208" y="656"/>
			<point x="300" y="656" type="curve" smooth="yes"/>
			<point x="392" y="656"/>
			<point x="462" y="563"/>
			<point x="462" y="359" type="curve" smooth="yes"/>
			<point x="462" y="136"/>
			<point x="392" y="56"/>
		</contour>
		<contour>
			<point x="300" y="296" type="curve" smooth="yes"/>
			<point x="333" y="296"/>
			<point x="362" y="323"/>
			<point x="362" y="359" type="curve" smooth="yes"/>
			<point x="362" y="398"/>
			<point x="333" y="423"/>
			<point x="300" y="423" type="curve" smooth="yes"/>
			<point x="267" y="423"/>
			<point x="238" y="398"/>
			<point x="238" y="359" type="curve" smooth="yes"/>
			<point x="238" y="323"/>
			<point x="267" y="296"/>
		</contour>
	</outline>
</glyph>
<glyph name="bsmall" format="1">
	<unicode hex="0299"/>
	<advance width="600"/>
	<outline>
		<component base="ve" xOffset="11"/>
		<contour>
			<point name="aboveLC" x="320" y="507" type="move"/>
		</contour>
		<contour>
			<point name="belowLC" x="320" y="-20" type="move"/>
		</contour>
	</outline>
</glyph>
<glyph name="kturned" format="1">
	<unicode hex="029E"/>
	<advance width="600"/>
	<outline>
		<contour>
			<point x="412" y="-205" type="line"/>
			<point x="494" y="-205" type="line"/>
			<point x="494" y="486" type="line"/>
			<point x="412" y="486" type="line"/>
			<point x="412" y="354" type="line"/>
			<point x="28" y="0" type="line"/>
			<point x="127" y="0" type="line"/>
			<point x="408" y="256" type="line"/>
			<point x="412" y="256" type="line"/>
		</contour>
		<contour>
			<point x="264" y="174" type="line"/>
			<point x="312" y="227" type="line"/>
			<point x="139" y="486" type="line"/>
			<point x="54" y="486" type="line"/>
		</contour>
		<contour>
			<point name="aboveLC" x="284" y="507" type="move"/>
		</contour>
		<contour>
			<point name="belowLC" x="450" y="-219" type="move"/>
		</contour>
	</outline>
</glyph>
<glyph name="lsmall" format="2">
	<unicode hex="029F"/>
	<advance width="600"/>
	<outline>
		<contour>
			<point x="148" y="0" type="line"/>
			<point x="532" y="0" type="line"/>
			<point x="532" y="67" type="line"/>
			<point x="230" y="67" type="line"/>
			<point x="230" y="486" type="line"/>
			<point x="148" y="486" type="line"/>
		</contour>
	</outline>
	<anchor name="aboveLC" x="191" y="507"/>
	<anchor name="belowLC" x="343" y="-20"/>
</glyph>
<glyph name="glottalstopstroke" format="1">
	<unicode hex="02A1"/>
	<advance width="600"/>
	<outline>
		<contour>
			<point x="239" y="0" type="line"/>
			<point x="321" y="0" type="line"/>
			<point x="321" y="251" type="line"/>
			<point x="518" y="251" type="line"/>
			<point x="518" y="314" type="line"/>
			<point x="366" y="314" type="line"/>
			<point x="442" y="366"/>
			<point x="510" y="429"/>
			<point x="510" y="524" type="curve" smooth="yes"/>
			<point x="510" y="656"/>
			<point x="411" y="724"/>
			<point x="287" y="724" type="curve" smooth="yes"/>
			<point x="183" y="724"/>
			<point x="115" y="676"/>
			<point x="71" y="628" type="curve"/>
			<point x="115" y="575" type="line"/>
			<point x="152" y="616"/>
			<point x="204" y="656"/>
			<point x="281" y="656" type="curve" smooth="yes"/>
			<point x="374" y="656"/>
			<point x="426" y="604"/>
			<point x="426" y="523" type="curve" smooth="yes"/>
			<point x="426" y="443"/>
			<point x="362" y="377"/>
			<point x="252" y="314" type="curve"/>
			<point x="150" y="314" type="line"/>
			<point x="74" y="309" type="line"/>
			<point x="74" y="251" type="line"/>
			<point x="239" y="251" type="line"/>
		</contour>
		<contour>
			<point name="aboveUC" x="300" y="736" type="move"/>
		</contour>
		<contour>
			<point name="belowLC" x="279" y="-20" type="move"/>
		</contour>
	</outline>
</glyph>
<glyph name="ts" format="1">
	<unicode hex="02A6"/>
	<advance width="600"/>
	<outline>
		<contour>
			<point x="328" y="-12" type="curve" smooth="yes"/>
			<point x="506" y="-12"/>
			<point x="570" y="43"/>
			<point x="570" y="133" type="curve" smooth="yes"/>
			<point x="570" y="301"/>
			<point x="378" y="288"/>
			<point x="378" y="379" type="curve" smooth="yes"/>
			<point x="378" y="416"/>
			<point x="403" y="437"/>
			<point x="442" y="437" type="curve" smooth="yes"/>
			<point x="476" y="437"/>
			<point x="503" y="425"/>
			<point x="532" y="402" type="curve"/>
			<point x="564" y="450" type="line"/>
			<point x="529" y="480"/>
			<point x="485" y="498"/>
			<point x="436" y="498" type="curve" smooth="yes"/>
			<point x="356" y="498"/>
			<point x="300" y="458"/>
			<point x="300" y="381" type="curve" smooth="yes"/>
			<point x="300" y="243"/>
			<point x="495" y="258"/>
			<point x="495" y="134" type="curve" smooth="yes"/>
			<point x="495" y="84"/>
			<point x="455" y="52"/>
			<point x="332" y="52" type="curve" smooth="yes"/>
			<point x="218" y="52"/>
			<point x="180" y="88"/>
			<point x="180" y="175" type="curve" smooth="yes"/>
			<point x="180" y="419" type="line"/>
			<point x="389" y="419" type="line"/>
			<point x="389" y="486" type="line"/>
			<point x="180" y="486" type="line"/>
			<point x="180" y="642" type="line"/>
			<point x="111" y="642" type="line"/>
			<point x="101" y="486" type="line"/>
			<point x="25" y="481" type="line"/>
			<point x="25" y="419" type="line"/>
			<point x="98" y="419" type="line"/>
			<point x="98" y="176" type="line" smooth="yes"/>
			<point x="98" y="55"/>
			<point x="156" y="-12"/>
		</contour>
		<contour>
			<point name="aboveLC" x="330" y="643" type="move"/>
		</contour>
		<contour>
			<point name="belowLC" x="334" y="-20" type="move"/>
		</contour>
	</outline>
</glyph>
<glyph name="tesh" format="1">
	<unicode hex="02A7"/>
	<advance width="600"/>
	<outline>
		<contour>
			<point x="257" y="-12" type="curve" smooth="yes"/>
			<point x="287" y="-12"/>
			<point x="318" y="-3"/>
			<point x="345" y="6" type="curve"/>
			<point x="330" y="68" type="line"/>
			<point x="312" y="61"/>
			<point x="291" y="55"/>
			<point x="272" y="55" type="curve" smooth="yes"/>
			<point x="220" y="55"/>
			<point x="203" y="89"/>
			<point x="203" y="149" type="curve" smooth="yes"/>
			<point x="203" y="419" type="line"/>
			<point x="428" y="419" type="line"/>
			<point x="428" y="486" type="line"/>
			<point x="203" y="486" type="line"/>
			<point x="203" y="642" type="line"/>
			<point x="134" y="642" type="line"/>
			<point x="123" y="486" type="line"/>
			<point x="48" y="481" type="line"/>
			<point x="48" y="419" type="line"/>
			<point x="120" y="419" type="line"/>
			<point x="120" y="150" type="line" smooth="yes"/>
			<point x="120" y="54"/>
			<point x="155" y="-12"/>
		</contour>
		<contour>
			<point x="353" y="-217" type="curve" smooth="yes"/>
			<point x="447" y="-217"/>
			<point x="484" y="-154"/>
			<point x="484" y="-55" type="curve" smooth="yes"/>
			<point x="484" y="563" type="line" smooth="yes"/>
			<point x="484" y="622"/>
			<point x="497" y="659"/>
			<point x="551" y="659" type="curve" smooth="yes"/>
			<point x="564" y="659"/>
			<point x="577" y="654"/>
			<point x="587" y="650" type="curve"/>
			<point x="603" y="713" type="line"/>
			<point x="588" y="720"/>
			<point x="568" y="726"/>
			<point x="543" y="726" type="curve" smooth="yes"/>
			<point x="442" y="726"/>
			<point x="402" y="663"/>
			<point x="402" y="566" type="curve" smooth="yes"/>
			<point x="402" y="-55" type="line"/>
			<point x="402" y="-114"/>
			<point x="391" y="-150"/>
			<point x="346" y="-150" type="curve" smooth="yes"/>
			<point x="329" y="-150"/>
			<point x="312" y="-146"/>
			<point x="300" y="-142" type="curve"/>
			<point x="283" y="-204" type="line"/>
			<point x="300" y="-211"/>
			<point x="324" y="-217"/>
		</contour>
		<contour>
			<point name="aboveUC" x="293" y="730" type="move"/>
		</contour>
		<contour>
			<point name="belowLC" x="331" y="-219" type="move"/>
		</contour>
	</outline>
</glyph>
<glyph name="ringhalfrightmod" format="1">
	<unicode hex="02BE"/>
	<advance width="600"/>
	<outline>
		<contour>
			<point x="226" y="538" type="line"/>
			<point x="347" y="534"/>
			<point x="410" y="591"/>
			<point x="410" y="682" type="curve" smooth="yes"/>
			<point x="410" y="773"/>
			<point x="347" y="830"/>
			<point x="226" y="826" type="curve"/>
			<point x="226" y="777" type="line"/>
			<point x="303" y="777"/>
			<point x="344" y="742"/>
			<point x="344" y="682" type="curve" smooth="yes"/>
			<point x="344" y="623"/>
			<point x="303" y="588"/>
			<point x="226" y="588" type="curve"/>
		</contour>
	</outline>
</glyph>
<glyph name="glottalstopreversedmod" format="1">
	<unicode hex="02C1"/>
	<advance width="600"/>
	<outline>
		<contour>
			<point x="282" y="438" type="line"/>
			<point x="345" y="438" type="line"/>
			<point x="345" y="556" type="line"/>
			<point x="264" y="599"/>
			<point x="224" y="640"/>
			<point x="224" y="695" type="curve" smooth="yes"/>
			<point x="224" y="744"/>
			<point x="263" y="774"/>
			<point x="320" y="774" type="curve" smooth="yes"/>
			<point x="363" y="774"/>
			<point x="393" y="753"/>
			<point x="418" y="728" type="curve"/>
			<point x="452" y="768" type="line"/>
			<point x="423" y="799"/>
			<point x="378" y="827"/>
			<point x="315" y="827" type="curve" smooth="yes"/>
			<point x="232" y="827"/>
			<point x="160" y="781"/>
			<point x="160" y="696" type="curve" smooth="yes"/>
			<point x="160" y="619"/>
			<point x="215" y="573"/>
			<point x="282" y="529" type="curve"/>
		</contour>
	</outline>
</glyph>
<glyph name="verticallinemod" format="1">
	<unicode hex="02C8"/>
	<advance width="600"/>
	<outline>
		<contour>
			<point x="272" y="397" type="line"/>
			<point x="328" y="397" type="line"/>
			<point x="351" y="716" type="line"/>
			<point x="249" y="716" type="line"/>
		</contour>
	</outline>
</glyph>
<glyph name="verticallinelowmod" format="1">
	<unicode hex="02CC"/>
	<advance width="600"/>
	<outline>
		<contour>
			<point x="249" y="-254" type="line"/>
			<point x="351" y="-254" type="line"/>
			<point x="328" y="66" type="line"/>
			<point x="272" y="66" type="line"/>
		</contour>
	</outline>
</glyph>
<glyph name="colontriangularmod" format="1">
	<unicode hex="02D0"/>
	<advance width="600"/>
	<outline>
		<contour>
			<point x="202" y="0" type="line"/>
			<point x="398" y="0" type="line"/>
			<point x="305" y="162" type="line"/>
			<point x="295" y="162" type="line"/>
		</contour>
		<contour>
			<point x="295" y="343" type="line"/>
			<point x="305" y="343" type="line"/>
			<point x="398" y="503" type="line"/>
			<point x="202" y="503" type="line"/>
		</contour>
	</outline>
</glyph>
<glyph name="glottalstopreversedsupmod" format="1">
	<unicode hex="02E4"/>
	<advance width="600"/>
	<outline>
		<contour>
			<point x="282" y="395" type="line"/>
			<point x="345" y="395" type="line"/>
			<point x="345" y="600" type="line"/>
			<point x="264" y="643"/>
			<point x="224" y="684"/>
			<point x="224" y="739" type="curve" smooth="yes"/>
			<point x="224" y="788"/>
			<point x="263" y="818"/>
			<point x="320" y="818" type="curve" smooth="yes"/>
			<point x="363" y="818"/>
			<point x="393" y="797"/>
			<point x="418" y="772" type="curve"/>
			<point x="452" y="812" type="line"/>
			<point x="423" y="843"/>
			<point x="378" y="871"/>
			<point x="315" y="871" type="curve" smooth="yes"/>
			<point x="232" y="871"/>
			<point x="160" y="825"/>
			<point x="160" y="741" type="curve" smooth="yes"/>
			<point x="160" y="664"/>
			<point x="215" y="617"/>
			<point x="282" y="574" type="curve"/>
		</contour>
	</outline>
</glyph>
<glyph name="acutecmb" format="1">
	<unicode hex="0301"/>
	<advance width="600"/>
	<outline>
		<contour>
			<point x="279" y="568" type="line"/>
			<point x="436" y="721" type="line"/>
			<point x="378" y="777" type="line"/>
			<point x="236" y="609" type="line"/>
		</contour>
		<contour>
			<point name="_aboveLC" x="300" y="507" type="move"/>
		</contour>
		<contour>
			<point name="aboveLC" x="300" y="618" type="move"/>
		</contour>
	</outline>
</glyph>
<glyph name="macroncmb" format="1">
	<unicode hex="0304"/>
	<advance width="600"/>
	<outline>
		<contour>
			<point x="167" y="601" type="line"/>
			<point x="433" y="601" type="line"/>
			<point x="433" y="658" type="line"/>
			<point x="167" y="658" type="line"/>
		</contour>
		<contour>
			<point name="_aboveLC" x="300" y="507" type="move"/>
		</contour>
		<contour>
			<point name="aboveLC" x="300" y="574" type="move"/>
		</contour>
	</outline>
</glyph>
<glyph name="brevecmb" format="1">
	<unicode hex="0306"/>
	<advance width="600"/>
	<outline>
		<contour>
			<point x="300" y="571" type="curve" smooth="yes"/>
			<point x="407" y="571"/>
			<point x="451" y="648"/>
			<point x="456" y="722" type="curve"/>
			<point x="405" y="730" type="line"/>
			<point x="397" y="679"/>
			<point x="365" y="626"/>
			<point x="300" y="626" type="curve" smooth="yes"/>
			<point x="235" y="626"/>
			<point x="203" y="679"/>
			<point x="195" y="730" type="curve"/>
			<point x="144" y="722" type="line"/>
			<point x="149" y="648"/>
			<point x="193" y="571"/>
		</contour>
		<contour>
			<point name="_aboveLC" x="300" y="507" type="move"/>
		</contour>
		<contour>
			<point name="aboveLC" x="300" y="588" type="move"/>
		</contour>
	</outline>
</glyph>
<glyph name="dotaccentcmb" format="2">
	<unicode hex="0307"/>
	<advance width="600"/>
	<outline>
		<contour>
			<point x="300" y="588" type="curve" smooth="yes"/>
			<point x="337" y="588"/>
			<point x="366" y="613"/>
			<point x="366" y="652" type="curve" smooth="yes"/>
			<point x="366" y="690"/>
			<point x="337" y="716"/>
			<point x="300" y="716" type="curve" smooth="yes"/>
			<point x="263" y="716"/>
			<point x="234" y="690"/>
			<point x="234" y="652" type="curve" smooth="yes"/>
			<point x="234" y="613"/>
			<point x="263" y="588"/>
		</contour>
	</outline>
	<anchor name="_aboveLC" x="300" y="507"/>
	<anchor name="aboveLC" x="300" y="709"/>
</glyph>
<glyph name="dieresiscmb" format="2">
	<unicode hex="0308"/>
	<advance width="600"/>
	<outline>
		<contour>
			<point x="203" y="588" type="curve" smooth="yes"/>
			<point x="235" y="588"/>
			<point x="258" y="612"/>
			<point x="258" y="644" type="curve" smooth="yes"/>
			<point x="258" y="675"/>
			<point x="235" y="700"/>
			<point x="203" y="700" type="curve" smooth="yes"/>
			<point x="171" y="700"/>
			<point x="148" y="675"/>
			<point x="148" y="644" type="curve" smooth="yes"/>
			<point x="148" y="612"/>
			<point x="171" y="588"/>
		</contour>
		<contour>
			<point x="397" y="588" type="curve" smooth="yes"/>
			<point x="429" y="588"/>
			<point x="452" y="612"/>
			<point x="452" y="644" type="curve" smooth="yes"/>
			<point x="452" y="675"/>
			<point x="429" y="700"/>
			<point x="397" y="700" type="curve" smooth="yes"/>
			<point x="365" y="700"/>
			<point x="342" y="675"/>
			<point x="342" y="644" type="curve" smooth="yes"/>
			<point x="342" y="612"/>
			<point x="365" y="588"/>
		</contour>
	</outline>
	<anchor name="_aboveLC" x="300" y="507"/>
	<anchor name="aboveLC" x="300" y="617"/>
</glyph>
<glyph name="hoicmb" format="1">
	<unicode hex="0309"/>
	<advance width="600"/>
	<outline>
		<contour>
			<point x="268" y="572" type="line"/>
			<point x="326" y="583"/>
			<point x="380" y="608"/>
			<point x="380" y="666" type="curve" smooth="yes"/>
			<point x="380" y="725"/>
			<point x="328" y="758"/>
			<point x="237" y="760" type="curve"/>
			<point x="232" y="706" type="line"/>
			<point x="288" y="703"/>
			<point x="315" y="688"/>
			<point x="315" y="659" type="curve" smooth="yes"/>
			<point x="315" y="633"/>
			<point x="291" y="620"/>
			<point x="259" y="612" type="curve"/>
		</contour>
		<contour>
			<point name="_aboveLC" x="300" y="507" type="move"/>
		</contour>
		<contour>
			<point name="aboveLC" x="300" y="603" type="move"/>
		</contour>
	</outline>
</glyph>
<glyph name="caroncmb" format="1">
	<unicode hex="030C"/>
	<advance width="600"/>
	<outline>
		<contour>
			<point x="259" y="574" type="line"/>
			<point x="341" y="574" type="line"/>
			<point x="455" y="714" type="line"/>
			<point x="420" y="746" type="line"/>
			<point x="302" y="633" type="line"/>
			<point x="298" y="633" type="line"/>
			<point x="180" y="746" type="line"/>
			<point x="145" y="714" type="line"/>
		</contour>
		<contour>
			<point name="_aboveLC" x="300" y="507" type="move"/>
		</contour>
	</outline>
</glyph>
<glyph name="dblgravecmb" format="1">
	<unicode hex="030F"/>
	<advance width="600"/>
	<outline>
		<contour>
			<point x="206" y="568" type="line"/>
			<point x="252" y="589" type="line"/>
			<point x="165" y="761" type="line"/>
			<point x="107" y="733" type="line"/>
		</contour>
		<contour>
			<point x="357" y="568" type="line"/>
			<point x="403" y="589" type="line"/>
			<point x="316" y="761" type="line"/>
			<point x="258" y="733" type="line"/>
		</contour>
		<contour>
			<point name="_aboveLC" x="300" y="507" type="move"/>
		</contour>
	</outline>
</glyph>
<glyph name="candrabinducmb" format="1">
	<unicode hex="0310"/>
	<advance width="600"/>
	<outline>
		<contour>
			<point x="300" y="571" type="curve" smooth="yes"/>
			<point x="409" y="571"/>
			<point x="455" y="648"/>
			<point x="461" y="722" type="curve"/>
			<point x="413" y="730" type="line"/>
			<point x="406" y="677"/>
			<point x="368" y="622"/>
			<point x="300" y="622" type="curve" smooth="yes"/>
			<point x="231" y="622"/>
			<point x="194" y="677"/>
			<point x="187" y="730" type="curve"/>
			<point x="139" y="722" type="line"/>
			<point x="145" y="648"/>
			<point x="191" y="571"/>
		</contour>
		<contour>
			<point x="300" y="701" type="curve" smooth="yes"/>
			<point x="332" y="701"/>
			<point x="356" y="723"/>
			<point x="356" y="757" type="curve" smooth="yes"/>
			<point x="356" y="791"/>
			<point x="332" y="813"/>
			<point x="300" y="813" type="curve" smooth="yes"/>
			<point x="268" y="813"/>
			<point x="244" y="791"/>
			<point x="244" y="757" type="curve" smooth="yes"/>
			<point x="244" y="723"/>
			<point x="268" y="701"/>
		</contour>
		<contour>
			<point name="_aboveLC" x="300" y="507" type="move"/>
		</contour>
	</outline>
</glyph>
<glyph name="commaturnedabovecmb" format="1">
	<unicode hex="0312"/>
	<advance width="600"/>
	<outline>
		<contour>
			<point x="303" y="553" type="curve" smooth="yes"/>
			<point x="329" y="553"/>
			<point x="349" y="570"/>
			<point x="349" y="601" type="curve" smooth="yes"/>
			<point x="349" y="631"/>
			<point x="326" y="645"/>
			<point x="304" y="645" type="curve" smooth="yes"/>
			<point x="291" y="645"/>
			<point x="280" y="639"/>
			<point x="270" y="626" type="curve"/>
			<point x="306" y="585" type="line"/>
			<point x="306" y="592"/>
			<point x="290" y="630"/>
			<point x="291" y="638" type="curve"/>
			<point x="291" y="669"/>
			<point x="310" y="694"/>
			<point x="353" y="713" type="curve"/>
			<point x="335" y="747" type="line"/>
			<point x="272" y="722"/>
			<point x="245" y="677"/>
			<point x="245" y="628" type="curve" smooth="yes"/>
			<point x="245" y="580"/>
			<point x="268" y="553"/>
		</contour>
		<contour>
			<point name="_aboveLC" x="300" y="507" type="move"/>
		</contour>
	</outline>
</glyph>
<glyph name="commaabovecmb" format="1">
	<unicode hex="0313"/>
	<advance width="600"/>
	<outline>
		<contour>
			<point x="265" y="553" type="line"/>
			<point x="328" y="578"/>
			<point x="355" y="623"/>
			<point x="355" y="672" type="curve" smooth="yes"/>
			<point x="355" y="720"/>
			<point x="332" y="747"/>
			<point x="297" y="747" type="curve" smooth="yes"/>
			<point x="271" y="747"/>
			<point x="251" y="730"/>
			<point x="251" y="699" type="curve" smooth="yes"/>
			<point x="251" y="669"/>
			<point x="274" y="655"/>
			<point x="296" y="655" type="curve" smooth="yes"/>
			<point x="309" y="655"/>
			<point x="320" y="661"/>
			<point x="330" y="674" type="curve"/>
			<point x="294" y="715" type="line"/>
			<point x="294" y="708"/>
			<point x="310" y="670"/>
			<point x="309" y="662" type="curve"/>
			<point x="309" y="631"/>
			<point x="290" y="606"/>
			<point x="247" y="587" type="curve"/>
		</contour>
		<contour>
			<point name="_aboveLC" x="300" y="507" type="move"/>
		</contour>
	</outline>
</glyph>
<glyph name="leftangleabovecmb" format="1">
	<unicode hex="031A"/>
	<advance width="600"/>
	<outline>
		<contour>
			<point x="335" y="573" type="line"/>
			<point x="385" y="573" type="line"/>
			<point x="385" y="714" type="line"/>
			<point x="224" y="714" type="line"/>
			<point x="224" y="667" type="line"/>
			<point x="335" y="667" type="line"/>
		</contour>
		<contour>
			<point name="_aboverightLC" x="300" y="507" type="move"/>
		</contour>
	</outline>
</glyph>
<glyph name="uptackbelowcmb" format="1">
	<unicode hex="031D"/>
	<advance width="600"/>
	<outline>
		<contour>
			<point x="184" y="-211" type="line"/>
			<point x="416" y="-211" type="line"/>
			<point x="416" y="-164" type="line"/>
			<point x="327" y="-164" type="line"/>
			<point x="327" y="-58" type="line"/>
			<point x="273" y="-58" type="line"/>
			<point x="273" y="-164" type="line"/>
			<point x="184" y="-164" type="line"/>
		</contour>
		<contour>
			<point name="_belowLC" x="300" y="-20" type="move"/>
		</contour>
	</outline>
</glyph>
<glyph name="plusbelowcmb" format="1">
	<unicode hex="031F"/>
	<advance width="600"/>
	<outline>
		<contour>
			<point x="273" y="-249" type="line"/>
			<point x="327" y="-249" type="line"/>
			<point x="327" y="-177" type="line"/>
			<point x="416" y="-177" type="line"/>
			<point x="416" y="-130" type="line"/>
			<point x="327" y="-130" type="line"/>
			<point x="327" y="-58" type="line"/>
			<point x="273" y="-58" type="line"/>
			<point x="273" y="-130" type="line"/>
			<point x="184" y="-130" type="line"/>
			<point x="184" y="-177" type="line"/>
			<point x="273" y="-177" type="line"/>
		</contour>
		<contour>
			<point name="_belowLC" x="300" y="-20" type="move"/>
		</contour>
	</outline>
</glyph>
<glyph name="dotbelowcmb" format="1">
	<unicode hex="0323"/>
	<advance width="600"/>
	<outline>
		<component base="dotaccentcmb" yOffset="-803"/>
		<contour>
			<point name="_belowLC" x="300" y="-20" type="move"/>
		</contour>
	</outline>
</glyph>
<glyph name="dieresisbelowcmb" format="1">
	<unicode hex="0324"/>
	<advance width="600"/>
	<outline>
		<component base="dieresiscmb" yOffset="-796"/>
		<contour>
			<point name="_belowLC" x="300" y="-20" type="move"/>
		</contour>
	</outline>
</glyph>
<glyph name="verticallinebelowcmb" format="2">
	<unicode hex="0329"/>
	<advance width="600"/>
	<outline>
		<contour>
			<point x="265" y="-266" type="line"/>
			<point x="335" y="-266" type="line"/>
			<point x="329" y="-71" type="line"/>
			<point x="271" y="-71" type="line"/>
		</contour>
	</outline>
	<anchor name="_belowLC" x="300" y="-20"/>
</glyph>
<glyph name="bridgebelowcmb" format="1">
	<unicode hex="032A"/>
	<advance width="600"/>
	<outline>
		<contour>
			<point x="177" y="-226" type="line"/>
			<point x="225" y="-226" type="line"/>
			<point x="225" y="-129" type="line"/>
			<point x="375" y="-129" type="line"/>
			<point x="375" y="-226" type="line"/>
			<point x="423" y="-226" type="line"/>
			<point x="423" y="-82" type="line"/>
			<point x="177" y="-82" type="line"/>
		</contour>
		<contour>
			<point name="_belowLC" x="300" y="-20" type="move"/>
		</contour>
	</outline>
</glyph>
<glyph name="caronbelowcmb" format="1">
	<unicode hex="032C"/>
	<advance width="600"/>
	<outline>
		<component base="caroncmb" yOffset="-798"/>
		<contour>
			<point name="_belowLC" x="300" y="-20" type="move"/>
		</contour>
	</outline>
</glyph>
<glyph name="macronbelowcmb" format="1">
	<unicode hex="0331"/>
	<advance width="600"/>
	<outline>
		<component base="macroncmb" yOffset="-771"/>
		<contour>
			<point name="_belowLC" x="300" y="-20" type="move"/>
		</contour>
	</outline>
</glyph>
<glyph name="tildeoverlaycmb" format="1">
	<unicode hex="0334"/>
	<advance width="600"/>
	<outline>
		<contour>
			<point x="394" y="173" type="curve" smooth="yes"/>
			<point x="459" y="173"/>
			<point x="485" y="229"/>
			<point x="489" y="301" type="curve"/>
			<point x="434" y="310" type="line"/>
			<point x="431" y="265"/>
			<point x="417" y="233"/>
			<point x="388" y="233" type="curve" smooth="yes"/>
			<point x="330" y="233"/>
			<point x="294" y="317"/>
			<point x="206" y="317" type="curve" smooth="yes"/>
			<point x="141" y="317"/>
			<point x="115" y="261"/>
			<point x="111" y="189" type="curve"/>
			<point x="166" y="179" type="line"/>
			<point x="169" y="225"/>
			<point x="183" y="257"/>
			<point x="212" y="257" type="curve" smooth="yes"/>
			<point x="270" y="257"/>
			<point x="307" y="173"/>
		</contour>
		<contour>
			<point name="_center" x="300" y="244" type="move"/>
		</contour>
	</outline>
</glyph>
<glyph name="squarebelowcmb" format="1">
	<unicode hex="033B"/>
	<advance width="600"/>
	<outline>
		<contour>
			<point x="177" y="-240" type="line"/>
			<point x="423" y="-240" type="line"/>
			<point x="423" y="-77" type="line"/>
			<point x="177" y="-77" type="line"/>
		</contour>
		<contour>
			<point x="225" y="-200" type="line"/>
			<point x="225" y="-116" type="line"/>
			<point x="375" y="-116" type="line"/>
			<point x="375" y="-200" type="line"/>
		</contour>
		<contour>
			<point name="_belowLC" x="300" y="-20" type="move"/>
		</contour>
	</outline>
</glyph>
<glyph name="xabovecmb" format="1">
	<unicode hex="033D"/>
	<advance width="600"/>
	<outline>
		<contour>
			<point x="238" y="565" type="line"/>
			<point x="300" y="623" type="line"/>
			<point x="362" y="565" type="line"/>
			<point x="394" y="595" type="line"/>
			<point x="333" y="652" type="line"/>
			<point x="394" y="709" type="line"/>
			<point x="362" y="739" type="line"/>
			<point x="300" y="681" type="line"/>
			<point x="238" y="739" type="line"/>
			<point x="206" y="709" type="line"/>
			<point x="267" y="652" type="line"/>
			<point x="206" y="595" type="line"/>
		</contour>
		<contour>
			<point name="_aboveLC" x="300" y="507" type="move"/>
		</contour>
	</outline>
</glyph>
<glyph name="iotasubscriptcmb" format="1">
	<unicode hex="0345"/>
	<advance width="600"/>
	<outline>
		<contour>
			<point x="344" y="-201" type="curve" smooth="yes"/>
			<point x="366" y="-201"/>
			<point x="377" y="-197"/>
			<point x="390" y="-192" type="curve"/>
			<point x="381" y="-143" type="line"/>
			<point x="368" y="-146"/>
			<point x="364" y="-146"/>
			<point x="359" y="-146" type="curve" smooth="yes"/>
			<point x="343" y="-146"/>
			<point x="329" y="-137"/>
			<point x="329" y="-115" type="curve" smooth="yes"/>
			<point x="329" y="-100"/>
			<point x="329" y="-79"/>
			<point x="331" y="-62" type="curve"/>
			<point x="267" y="-62" type="line"/>
			<point x="267" y="-109" type="line" smooth="yes"/>
			<point x="267" y="-169"/>
			<point x="291" y="-201"/>
		</contour>
		<contour>
			<point name="_belowLC" x="300" y="-20" type="move"/>
		</contour>
	</outline>
</glyph>
<glyph name="breveinverteddoublecmb" format="1">
	<unicode hex="0361"/>
	<advance width="600"/>
	<outline>
		<contour>
			<point x="-130" y="600" type="line"/>
			<point x="-3" y="677"/>
			<point x="155" y="711"/>
			<point x="300" y="711" type="curve" smooth="yes"/>
			<point x="445" y="711"/>
			<point x="603" y="677"/>
			<point x="730" y="600" type="curve"/>
			<point x="754" y="642" type="line"/>
			<point x="620" y="724"/>
			<point x="469" y="769"/>
			<point x="300" y="769" type="curve" smooth="yes"/>
			<point x="131" y="769"/>
			<point x="-20" y="724"/>
			<point x="-154" y="642" type="curve"/>
		</contour>
	</outline>
</glyph>
<glyph name="dieresistonos" format="1">
	<unicode hex="0385"/>
	<advance width="600"/>
	<outline>
		<component base="dieresistonoscmb"/>
		<contour>
			<point name="_aboveLC" x="300" y="507" type="move"/>
		</contour>
	</outline>
</glyph>
<glyph name="Alphatonos" format="1">
	<unicode hex="0386"/>
	<advance width="600"/>
	<outline>
		<contour>
			<point x="54" y="0" type="line"/>
			<point x="139" y="0" type="line"/>
			<point x="248" y="367" type="line" smooth="yes"/>
			<point x="270" y="440"/>
			<point x="287" y="501"/>
			<point x="308" y="580" type="curve"/>
			<point x="312" y="580" type="line"/>
			<point x="332" y="501"/>
			<point x="351" y="440"/>
			<point x="372" y="367" type="curve" smooth="yes"/>
			<point x="480" y="0" type="line"/>
			<point x="568" y="0" type="line"/>
			<point x="358" y="656" type="line"/>
			<point x="264" y="656" type="line"/>
		</contour>
		<contour>
			<point x="170" y="200" type="line"/>
			<point x="449" y="200" type="line"/>
			<point x="449" y="267" type="line"/>
			<point x="170" y="267" type="line"/>
		</contour>
		<component base="tonos.cap" xOffset="-204"/>
	</outline>
</glyph>
<glyph name="Epsilontonos" format="1">
	<unicode hex="0388"/>
	<advance width="600"/>
	<outline>
		<contour>
			<point x="200" y="0" type="line"/>
			<point x="530" y="0" type="line"/>
			<point x="530" y="71" type="line"/>
			<point x="276" y="71" type="line"/>
			<point x="276" y="309" type="line"/>
			<point x="470" y="309" type="line"/>
			<point x="470" y="380" type="line"/>
			<point x="276" y="380" type="line"/>
			<point x="276" y="586" type="line"/>
			<point x="520" y="586" type="line"/>
			<point x="520" y="656" type="line"/>
			<point x="200" y="656" type="line"/>
		</contour>
		<component base="tonos.cap" xOffset="-216"/>
	</outline>
</glyph>
<glyph name="Etatonos" format="1">
	<unicode hex="0389"/>
	<advance width="600"/>
	<outline>
		<contour>
			<point x="194" y="0" type="line"/>
			<point x="270" y="0" type="line"/>
			<point x="270" y="309" type="line"/>
			<point x="452" y="309" type="line"/>
			<point x="452" y="0" type="line"/>
			<point x="528" y="0" type="line"/>
			<point x="528" y="656" type="line"/>
			<point x="452" y="656" type="line"/>
			<point x="452" y="381" type="line"/>
			<point x="270" y="381" type="line"/>
			<point x="270" y="656" type="line"/>
			<point x="194" y="656" type="line"/>
		</contour>
		<component base="tonos.cap" xOffset="-216"/>
	</outline>
</glyph>
<glyph name="Iotatonos" format="1">
	<unicode hex="038A"/>
	<advance width="600"/>
	<outline>
		<contour>
			<point x="185" y="0" type="line"/>
			<point x="505" y="0" type="line"/>
			<point x="505" y="71" type="line"/>
			<point x="386" y="71" type="line"/>
			<point x="386" y="586" type="line"/>
			<point x="505" y="586" type="line"/>
			<point x="505" y="656" type="line"/>
			<point x="185" y="656" type="line"/>
			<point x="185" y="586" type="line"/>
			<point x="303" y="586" type="line"/>
			<point x="303" y="71" type="line"/>
			<point x="185" y="71" type="line"/>
		</contour>
		<component base="tonos.cap" xOffset="-216"/>
	</outline>
</glyph>
<glyph name="Omicrontonos" format="1">
	<unicode hex="038C"/>
	<advance width="600"/>
	<outline>
		<contour>
			<point x="348" y="-12" type="curve" smooth="yes"/>
			<point x="468" y="-12"/>
			<point x="552" y="110"/>
			<point x="552" y="331" type="curve" smooth="yes"/>
			<point x="552" y="551"/>
			<point x="468" y="668"/>
			<point x="348" y="668" type="curve" smooth="yes"/>
			<point x="229" y="668"/>
			<point x="145" y="551"/>
			<point x="145" y="331" type="curve" smooth="yes"/>
			<point x="145" y="114"/>
			<point x="229" y="-12"/>
		</contour>
		<contour>
			<point x="348" y="61" type="curve" smooth="yes"/>
			<point x="275" y="61"/>
			<point x="226" y="150"/>
			<point x="226" y="331" type="curve" smooth="yes"/>
			<point x="226" y="511"/>
			<point x="275" y="595"/>
			<point x="348" y="595" type="curve" smooth="yes"/>
			<point x="422" y="595"/>
			<point x="471" y="511"/>
			<point x="471" y="331" type="curve" smooth="yes"/>
			<point x="471" y="150"/>
			<point x="422" y="61"/>
		</contour>
		<component base="tonos.cap" xOffset="-216"/>
	</outline>
</glyph>
<glyph name="Omegatonos" format="1">
	<unicode hex="038F"/>
	<advance width="600"/>
	<outline>
		<contour>
			<point x="134" y="0" type="line"/>
			<point x="306" y="0" type="line"/>
			<point x="306" y="61" type="line"/>
			<point x="254" y="140"/>
			<point x="226" y="225"/>
			<point x="226" y="352" type="curve" smooth="yes"/>
			<point x="226" y="498"/>
			<point x="270" y="595"/>
			<point x="347" y="595" type="curve" smooth="yes"/>
			<point x="424" y="595"/>
			<point x="468" y="498"/>
			<point x="468" y="352" type="curve" smooth="yes"/>
			<point x="468" y="225"/>
			<point x="440" y="140"/>
			<point x="388" y="61" type="curve"/>
			<point x="388" y="0" type="line"/>
			<point x="560" y="0" type="line"/>
			<point x="560" y="68" type="line"/>
			<point x="461" y="68" type="line"/>
			<point x="461" y="72" type="line"/>
			<point x="516" y="152"/>
			<point x="549" y="240"/>
			<point x="549" y="365" type="curve" smooth="yes"/>
			<point x="549" y="540"/>
			<point x="471" y="668"/>
			<point x="347" y="668" type="curve" smooth="yes"/>
			<point x="224" y="668"/>
			<point x="145" y="540"/>
			<point x="145" y="365" type="curve" smooth="yes"/>
			<point x="145" y="240"/>
			<point x="178" y="152"/>
			<point x="233" y="72" type="curve"/>
			<point x="233" y="68" type="line"/>
			<point x="134" y="68" type="line"/>
		</contour>
		<component base="tonos.cap" xOffset="-216"/>
	</outline>
</glyph>
<glyph name="Alpha" format="1">
	<unicode hex="0391"/>
	<advance width="600"/>
	<outline>
		<component base="A"/>
		<contour>
			<point name="aboveUC" x="300" y="676" type="move"/>
		</contour>
		<contour>
			<point name="belowLC" x="300" y="-20" type="move"/>
		</contour>
	</outline>
</glyph>
<glyph name="Gamma" format="1">
	<unicode hex="0393"/>
	<advance width="600"/>
	<outline>
		<contour>
			<point x="135" y="0" type="line"/>
			<point x="218" y="0" type="line"/>
			<point x="218" y="586" type="line"/>
			<point x="535" y="586" type="line"/>
			<point x="535" y="656" type="line"/>
			<point x="135" y="656" type="line"/>
		</contour>
	</outline>
</glyph>
<glyph name="Delta" format="1">
	<unicode hex="0394"/>
	<advance width="600"/>
	<outline>
		<contour>
			<point x="43" y="0" type="line"/>
			<point x="557" y="0" type="line"/>
			<point x="557" y="50" type="line"/>
			<point x="348" y="656" type="line"/>
			<point x="252" y="656" type="line"/>
			<point x="43" y="50" type="line"/>
		</contour>
		<contour>
			<point x="134" y="71" type="line"/>
			<point x="230" y="364" type="line" smooth="yes"/>
			<point x="252" y="435"/>
			<point x="274" y="509"/>
			<point x="297" y="585" type="curve"/>
			<point x="301" y="585" type="line"/>
			<point x="323" y="509"/>
			<point x="345" y="435"/>
			<point x="368" y="364" type="curve" smooth="yes"/>
			<point x="465" y="71" type="line"/>
		</contour>
	</outline>
</glyph>
<glyph name="Theta" format="1">
	<unicode hex="0398"/>
	<advance width="600"/>
	<outline>
		<contour>
			<point x="300" y="-12" type="curve" smooth="yes"/>
			<point x="448" y="-12"/>
			<point x="552" y="120"/>
			<point x="552" y="331" type="curve" smooth="yes"/>
			<point x="552" y="540"/>
			<point x="448" y="668"/>
			<point x="300" y="668" type="curve" smooth="yes"/>
			<point x="152" y="668"/>
			<point x="48" y="541"/>
			<point x="48" y="331" type="curve" smooth="yes"/>
			<point x="48" y="120"/>
			<point x="152" y="-12"/>
		</contour>
		<contour>
			<point x="300" y="61" type="curve" smooth="yes"/>
			<point x="200" y="61"/>
			<point x="134" y="167"/>
			<point x="134" y="331" type="curve" smooth="yes"/>
			<point x="134" y="494"/>
			<point x="200" y="595"/>
			<point x="300" y="595" type="curve" smooth="yes"/>
			<point x="400" y="595"/>
			<point x="466" y="494"/>
			<point x="466" y="331" type="curve" smooth="yes"/>
			<point x="466" y="167"/>
			<point x="400" y="61"/>
		</contour>
		<contour>
			<point x="201" y="309" type="line"/>
			<point x="399" y="309" type="line"/>
			<point x="399" y="381" type="line"/>
			<point x="201" y="381" type="line"/>
		</contour>
	</outline>
</glyph>
<glyph name="Xi" format="1">
	<unicode hex="039E"/>
	<advance width="600"/>
	<outline>
		<contour>
			<point x="70" y="0" type="line"/>
			<point x="530" y="0" type="line"/>
			<point x="530" y="71" type="line"/>
			<point x="70" y="71" type="line"/>
		</contour>
		<contour>
			<point x="145" y="309" type="line"/>
			<point x="455" y="309" type="line"/>
			<point x="455" y="380" type="line"/>
			<point x="145" y="380" type="line"/>
		</contour>
		<contour>
			<point x="80" y="586" type="line"/>
			<point x="520" y="586" type="line"/>
			<point x="520" y="656" type="line"/>
			<point x="80" y="656" type="line"/>
		</contour>
	</outline>
</glyph>
<glyph name="Rho" format="1">
	<unicode hex="03A1"/>
	<advance width="600"/>
	<outline>
		<component base="P"/>
		<contour>
			<point name="aboveUC" x="320" y="676" type="move"/>
		</contour>
	</outline>
</glyph>
<glyph name="Psi" format="1">
	<unicode hex="03A8"/>
	<advance width="600"/>
	<outline>
		<contour>
			<point x="281" y="242" type="curve"/>
			<point x="319" y="242" type="line"/>
			<point x="466" y="242"/>
			<point x="556" y="317"/>
			<point x="556" y="480" type="curve" smooth="yes"/>
			<point x="556" y="656" type="line"/>
			<point x="476" y="656" type="line"/>
			<point x="476" y="484" type="line"/>
			<point x="476" y="367"/>
			<point x="425" y="309"/>
			<point x="322" y="309" type="curve" smooth="yes"/>
			<point x="278" y="309" type="line"/>
			<point x="175" y="309"/>
			<point x="124" y="367"/>
			<point x="124" y="484" type="curve" smooth="yes"/>
			<point x="124" y="656" type="line"/>
			<point x="44" y="656" type="line"/>
			<point x="44" y="480" type="line"/>
			<point x="44" y="317"/>
			<point x="134" y="242"/>
		</contour>
		<contour>
			<point x="258" y="0" type="line"/>
			<point x="342" y="0" type="line"/>
			<point x="342" y="656" type="line"/>
			<point x="258" y="656" type="line"/>
		</contour>
	</outline>
</glyph>
<glyph name="alpha" format="1">
	<unicode hex="03B1"/>
	<advance width="600"/>
	<outline>
		<contour>
			<point x="253" y="-12" type="curve" smooth="yes"/>
			<point x="319" y="-12"/>
			<point x="370" y="20"/>
			<point x="413" y="87" type="curve"/>
			<point x="416" y="87" type="line"/>
			<point x="416" y="19"/>
			<point x="454" y="-12"/>
			<point x="511" y="-12" type="curve" smooth="yes"/>
			<point x="540" y="-12"/>
			<point x="561" y="-5"/>
			<point x="575" y="1" type="curve"/>
			<point x="563" y="64" type="line"/>
			<point x="553" y="60"/>
			<point x="540" y="56"/>
			<point x="529" y="56" type="curve" smooth="yes"/>
			<point x="502" y="56"/>
			<point x="481" y="74"/>
			<point x="481" y="107" type="curve" smooth="yes"/>
			<point x="481" y="196"/>
			<point x="516" y="358"/>
			<point x="542" y="486" type="curve"/>
			<point x="460" y="486" type="line"/>
			<point x="440" y="371" type="line"/>
			<point x="437" y="371" type="line"/>
			<point x="409" y="465"/>
			<point x="341" y="498"/>
			<point x="275" y="498" type="curve" smooth="yes"/>
			<point x="161" y="498"/>
			<point x="57" y="401"/>
			<point x="57" y="234" type="curve" smooth="yes"/>
			<point x="57" y="75"/>
			<point x="137" y="-12"/>
		</contour>
		<contour>
			<point x="270" y="57" type="curve" smooth="yes"/>
			<point x="190" y="57"/>
			<point x="142" y="122"/>
			<point x="142" y="235" type="curve" smooth="yes"/>
			<point x="142" y="363"/>
			<point x="214" y="429"/>
			<point x="288" y="429" type="curve" smooth="yes"/>
			<point x="332" y="429"/>
			<point x="392" y="406"/>
			<point x="418" y="299" type="curve"/>
			<point x="411" y="208" type="line" smooth="yes"/>
			<point x="404" y="126"/>
			<point x="338" y="57"/>
		</contour>
		<contour>
			<point name="aboveLC" x="324" y="507" type="move"/>
		</contour>
		<contour>
			<point name="belowLC" x="278" y="-20" type="move"/>
		</contour>
	</outline>
</glyph>
<glyph name="theta" format="1">
	<unicode hex="03B8"/>
	<advance width="600"/>
	<outline>
		<contour>
			<point x="300" y="-12" type="curve" smooth="yes"/>
			<point x="441" y="-12"/>
			<point x="528" y="102"/>
			<point x="528" y="359" type="curve" smooth="yes"/>
			<point x="528" y="597"/>
			<point x="441" y="724"/>
			<point x="300" y="724" type="curve" smooth="yes"/>
			<point x="159" y="724"/>
			<point x="72" y="597"/>
			<point x="72" y="359" type="curve" smooth="yes"/>
			<point x="72" y="102"/>
			<point x="159" y="-12"/>
		</contour>
		<contour>
			<point x="300" y="56" type="curve" smooth="yes"/>
			<point x="215" y="56"/>
			<point x="153" y="132"/>
			<point x="153" y="359" type="curve" smooth="yes"/>
			<point x="153" y="571"/>
			<point x="215" y="656"/>
			<point x="300" y="656" type="curve" smooth="yes"/>
			<point x="385" y="656"/>
			<point x="447" y="571"/>
			<point x="447" y="359" type="curve" smooth="yes"/>
			<point x="447" y="132"/>
			<point x="385" y="56"/>
		</contour>
		<contour>
			<point x="117" y="331" type="line"/>
			<point x="483" y="331" type="line"/>
			<point x="483" y="390" type="line"/>
			<point x="117" y="390" type="line"/>
		</contour>
	</outline>
</glyph>
<glyph name="iota" format="1">
	<unicode hex="03B9"/>
	<advance width="600"/>
	<outline>
		<contour>
			<point x="400" y="-12" type="curve" smooth="yes"/>
			<point x="453" y="-12"/>
			<point x="491" y="-1"/>
			<point x="525" y="15" type="curve"/>
			<point x="504" y="76" type="line"/>
			<point x="473" y="62"/>
			<point x="443" y="56"/>
			<point x="418" y="56" type="curve" smooth="yes"/>
			<point x="356" y="56"/>
			<point x="324" y="87"/>
			<point x="324" y="157" type="curve" smooth="yes"/>
			<point x="324" y="253"/>
			<point x="328" y="377"/>
			<point x="330" y="486" type="curve"/>
			<point x="81" y="486" type="line"/>
			<point x="81" y="419" type="line"/>
			<point x="247" y="419" type="line"/>
			<point x="247" y="163" type="line" smooth="yes"/>
			<point x="247" y="48"/>
			<point x="292" y="-12"/>
		</contour>
		<contour>
			<point name="aboveLC" x="282" y="507" type="move"/>
		</contour>
	</outline>
</glyph>
<glyph name="kappa" format="1">
	<unicode hex="03BA"/>
	<advance width="600"/>
	<outline>
		<contour>
			<point x="110" y="0" type="line"/>
			<point x="187" y="0" type="line"/>
			<point x="187" y="25" type="line" smooth="yes"/>
			<point x="187" y="88"/>
			<point x="200" y="137"/>
			<point x="224" y="172" type="curve" smooth="yes"/>
			<point x="322" y="308"/>
			<point x="437" y="391"/>
			<point x="542" y="420" type="curve"/>
			<point x="533" y="498" type="line"/>
			<point x="409" y="467"/>
			<point x="275" y="360"/>
			<point x="195" y="221" type="curve"/>
			<point x="191" y="221" type="line"/>
			<point x="191" y="373" type="line" smooth="yes"/>
			<point x="191" y="416"/>
			<point x="189" y="460"/>
			<point x="182" y="486" type="curve"/>
			<point x="100" y="486" type="line"/>
			<point x="109" y="443"/>
			<point x="110" y="391"/>
			<point x="110" y="353" type="curve" smooth="yes"/>
		</contour>
		<contour>
			<point x="484" y="-8" type="curve"/>
			<point x="577" y="0" type="line"/>
			<point x="493" y="91"/>
			<point x="393" y="217"/>
			<point x="340" y="322" type="curve"/>
			<point x="285" y="269" type="line"/>
			<point x="336" y="168"/>
			<point x="422" y="63"/>
		</contour>
	</outline>
</glyph>
<glyph name="mu" format="1">
	<unicode hex="03BC"/>
	<advance width="600"/>
	<outline>
		<contour>
			<point x="84" y="-187" type="line"/>
			<point x="167" y="-187" type="line"/>
			<point x="161" y="-107"/>
			<point x="161" y="-58"/>
			<point x="160" y="43" type="curve"/>
			<point x="186" y="0"/>
			<point x="224" y="-10"/>
			<point x="268" y="-10" type="curve" smooth="yes"/>
			<point x="327" y="-10"/>
			<point x="382" y="23"/>
			<point x="422" y="92" type="curve"/>
			<point x="424" y="92" type="line"/>
			<point x="428" y="14"/>
			<point x="453" y="-12"/>
			<point x="504" y="-12" type="curve" smooth="yes"/>
			<point x="524" y="-12"/>
			<point x="540" y="-9"/>
			<point x="551" y="-4" type="curve"/>
			<point x="540" y="58" type="line"/>
			<point x="531" y="56"/>
			<point x="527" y="56"/>
			<point x="522" y="56" type="curve" smooth="yes"/>
			<point x="506" y="56"/>
			<point x="494" y="66"/>
			<point x="494" y="92" type="curve" smooth="yes"/>
			<point x="494" y="208"/>
			<point x="497" y="355"/>
			<point x="500" y="486" type="curve"/>
			<point x="417" y="486" type="line"/>
			<point x="417" y="164" type="line"/>
			<point x="366" y="75"/>
			<point x="319" y="59"/>
			<point x="269" y="59" type="curve" smooth="yes"/>
			<point x="197" y="59"/>
			<point x="166" y="106"/>
			<point x="166" y="195" type="curve" smooth="yes"/>
			<point x="166" y="486" type="line"/>
			<point x="84" y="486" type="line"/>
		</contour>
	</outline>
</glyph>
<glyph name="omicron" format="1">
	<unicode hex="03BF"/>
	<advance width="600"/>
	<outline>
		<contour>
			<point x="300" y="-12" type="curve" smooth="yes"/>
			<point x="428" y="-12"/>
			<point x="536" y="81"/>
			<point x="536" y="242" type="curve" smooth="yes"/>
			<point x="536" y="405"/>
			<point x="428" y="498"/>
			<point x="300" y="498" type="curve" smooth="yes"/>
			<point x="172" y="498"/>
			<point x="64" y="405"/>
			<point x="64" y="242" type="curve" smooth="yes"/>
			<point x="64" y="81"/>
			<point x="172" y="-12"/>
		</contour>
		<contour>
			<point x="300" y="56" type="curve" smooth="yes"/>
			<point x="207" y="56"/>
			<point x="149" y="131"/>
			<point x="149" y="242" type="curve" smooth="yes"/>
			<point x="149" y="354"/>
			<point x="207" y="430"/>
			<point x="300" y="430" type="curve" smooth="yes"/>
			<point x="393" y="430"/>
			<point x="451" y="354"/>
			<point x="451" y="242" type="curve" smooth="yes"/>
			<point x="451" y="131"/>
			<point x="393" y="56"/>
		</contour>
		<contour>
			<point name="aboveLC" x="300" y="507" type="move"/>
		</contour>
	</outline>
</glyph>
<glyph name="pi" format="1">
	<unicode hex="03C0"/>
	<advance width="600"/>
	<outline>
		<contour>
			<point x="503" y="-12" type="curve" smooth="yes"/>
			<point x="527" y="-12"/>
			<point x="543" y="-7"/>
			<point x="558" y="-1" type="curve"/>
			<point x="546" y="62" type="line"/>
			<point x="533" y="58"/>
			<point x="526" y="56"/>
			<point x="519" y="56" type="curve" smooth="yes"/>
			<point x="489" y="56"/>
			<point x="474" y="70"/>
			<point x="474" y="104" type="curve" smooth="yes"/>
			<point x="474" y="151"/>
			<point x="475" y="308"/>
			<point x="481" y="418" type="curve"/>
			<point x="573" y="418" type="line"/>
			<point x="573" y="486" type="line"/>
			<point x="96" y="486" type="line"/>
			<point x="27" y="481" type="line"/>
			<point x="27" y="418" type="line"/>
			<point x="128" y="418" type="line"/>
			<point x="128" y="287"/>
			<point x="124" y="143"/>
			<point x="108" y="0" type="curve"/>
			<point x="190" y="-5" type="line"/>
			<point x="200" y="137"/>
			<point x="205" y="282"/>
			<point x="205" y="418" type="curve"/>
			<point x="402" y="418" type="line"/>
			<point x="401" y="312"/>
			<point x="397" y="160"/>
			<point x="397" y="110" type="curve" smooth="yes"/>
			<point x="397" y="31"/>
			<point x="426" y="-12"/>
		</contour>
	</outline>
</glyph>
<glyph name="sigma.end" format="1">
	<unicode hex="03C2"/>
	<advance width="600"/>
	<outline>
		<contour>
			<point x="438" y="-180" type="line"/>
			<point x="479" y="-125"/>
			<point x="499" y="-71"/>
			<point x="499" y="-37" type="curve" smooth="yes"/>
			<point x="499" y="30"/>
			<point x="468" y="57"/>
			<point x="353" y="81" type="curve" smooth="yes"/>
			<point x="252" y="102"/>
			<point x="175" y="140"/>
			<point x="175" y="254" type="curve" smooth="yes"/>
			<point x="175" y="360"/>
			<point x="250" y="430"/>
			<point x="351" y="430" type="curve" smooth="yes"/>
			<point x="405" y="430"/>
			<point x="442" y="413"/>
			<point x="482" y="377" type="curve"/>
			<point x="524" y="430" type="line"/>
			<point x="482" y="469"/>
			<point x="428" y="498"/>
			<point x="347" y="498" type="curve" smooth="yes"/>
			<point x="212" y="498"/>
			<point x="90" y="410"/>
			<point x="90" y="254" type="curve" smooth="yes"/>
			<point x="90" y="95"/>
			<point x="201" y="38"/>
			<point x="316" y="14" type="curve" smooth="yes"/>
			<point x="409" y="-5"/>
			<point x="425" y="-23"/>
			<point x="425" y="-55" type="curve" smooth="yes"/>
			<point x="425" y="-84"/>
			<point x="407" y="-110"/>
			<point x="372" y="-154" type="curve"/>
		</contour>
	</outline>
</glyph>
<glyph name="upsilon" format="1">
	<unicode hex="03C5"/>
	<advance width="600"/>
	<outline>
		<contour>
			<point x="294" y="-12" type="curve" smooth="yes"/>
			<point x="431" y="-12"/>
			<point x="527" y="84"/>
			<point x="527" y="259" type="curve" smooth="yes"/>
			<point x="527" y="340"/>
			<point x="510" y="419"/>
			<point x="483" y="498" type="curve"/>
			<point x="403" y="479" type="line"/>
			<point x="432" y="395"/>
			<point x="443" y="325"/>
			<point x="443" y="257" type="curve" smooth="yes"/>
			<point x="443" y="119"/>
			<point x="380" y="56"/>
			<point x="295" y="56" type="curve" smooth="yes"/>
			<point x="223" y="56"/>
			<point x="160" y="93"/>
			<point x="160" y="192" type="curve" smooth="yes"/>
			<point x="160" y="248"/>
			<point x="166" y="322"/>
			<point x="166" y="373" type="curve" smooth="yes"/>
			<point x="166" y="416"/>
			<point x="166" y="452"/>
			<point x="159" y="486" type="curve"/>
			<point x="79" y="486" type="line"/>
			<point x="86" y="435"/>
			<point x="87" y="391"/>
			<point x="87" y="353" type="curve" smooth="yes"/>
			<point x="87" y="301"/>
			<point x="83" y="249"/>
			<point x="83" y="197" type="curve" smooth="yes"/>
			<point x="83" y="57"/>
			<point x="163" y="-12"/>
		</contour>
		<contour>
			<point name="aboveLC" x="296" y="507" type="move"/>
		</contour>
	</outline>
</glyph>
<glyph name="psi" format="1">
	<unicode hex="03C8"/>
	<advance width="600"/>
	<outline>
		<contour>
			<point x="269" y="-12" type="curve"/>
			<point x="267" y="55" type="line"/>
			<point x="176" y="55"/>
			<point x="137" y="116"/>
			<point x="137" y="211" type="curve" smooth="yes"/>
			<point x="137" y="244"/>
			<point x="139" y="317"/>
			<point x="139" y="373" type="curve" smooth="yes"/>
			<point x="139" y="416"/>
			<point x="138" y="452"/>
			<point x="133" y="486" type="curve"/>
			<point x="53" y="486" type="line"/>
			<point x="59" y="435"/>
			<point x="60" y="391"/>
			<point x="60" y="353" type="curve" smooth="yes"/>
			<point x="60" y="215" type="line"/>
			<point x="60" y="80"/>
			<point x="125" y="-12"/>
		</contour>
		<contour>
			<point x="324" y="-12" type="line"/>
			<point x="468" y="-12"/>
			<point x="553" y="85"/>
			<point x="553" y="258" type="curve" smooth="yes"/>
			<point x="553" y="345"/>
			<point x="540" y="415"/>
			<point x="510" y="498" type="curve"/>
			<point x="434" y="479" type="line"/>
			<point x="466" y="391"/>
			<point x="474" y="331"/>
			<point x="474" y="256" type="curve" smooth="yes"/>
			<point x="474" y="119"/>
			<point x="420" y="55"/>
			<point x="325" y="55" type="curve"/>
		</contour>
		<contour>
			<point x="262" y="-179" type="line"/>
			<point x="342" y="-179" type="line"/>
			<point x="342" y="622" type="line"/>
			<point x="262" y="622" type="line"/>
		</contour>
	</outline>
</glyph>
<glyph name="omega" format="1">
	<unicode hex="03C9"/>
	<advance width="600"/>
	<outline>
		<contour>
			<point x="190" y="-12" type="curve" smooth="yes"/>
			<point x="236" y="-12"/>
			<point x="275" y="13"/>
			<point x="297" y="69" type="curve"/>
			<point x="301" y="69" type="line"/>
			<point x="323" y="13"/>
			<point x="365" y="-12"/>
			<point x="412" y="-12" type="curve" smooth="yes"/>
			<point x="504" y="-12"/>
			<point x="566" y="69"/>
			<point x="566" y="232" type="curve" smooth="yes"/>
			<point x="566" y="345"/>
			<point x="530" y="421"/>
			<point x="479" y="498" type="curve"/>
			<point x="406" y="467" type="line"/>
			<point x="460" y="385"/>
			<point x="482" y="326"/>
			<point x="482" y="227" type="curve" smooth="yes"/>
			<point x="482" y="111"/>
			<point x="450" y="56"/>
			<point x="402" y="56" type="curve" smooth="yes"/>
			<point x="364" y="56"/>
			<point x="334" y="85"/>
			<point x="334" y="178" type="curve" smooth="yes"/>
			<point x="334" y="218"/>
			<point x="336" y="256"/>
			<point x="341" y="308" type="curve"/>
			<point x="256" y="308" type="line"/>
			<point x="261" y="256"/>
			<point x="264" y="218"/>
			<point x="264" y="178" type="curve" smooth="yes"/>
			<point x="264" y="88"/>
			<point x="233" y="56"/>
			<point x="195" y="56" type="curve" smooth="yes"/>
			<point x="148" y="56"/>
			<point x="114" y="113"/>
			<point x="114" y="214" type="curve" smooth="yes"/>
			<point x="114" y="316"/>
			<point x="142" y="384"/>
			<point x="197" y="465" type="curve"/>
			<point x="125" y="498" type="line"/>
			<point x="74" y="422"/>
			<point x="34" y="332"/>
			<point x="34" y="229" type="curve" smooth="yes"/>
			<point x="34" y="68"/>
			<point x="102" y="-12"/>
		</contour>
		<contour>
			<point name="aboveLC" x="300" y="507" type="move"/>
		</contour>
		<contour>
			<point name="belowLC" x="300" y="-20" type="move"/>
		</contour>
	</outline>
</glyph>
<glyph name="beta.a" format="1">
	<unicode hex="03D0"/>
	<advance width="600"/>
	<outline>
		<contour>
			<point x="329" y="-12" type="curve" smooth="yes"/>
			<point x="449" y="-12"/>
			<point x="544" y="65"/>
			<point x="544" y="189" type="curve" smooth="yes"/>
			<point x="544" y="294"/>
			<point x="478" y="370"/>
			<point x="372" y="381" type="curve"/>
			<point x="372" y="385" type="line"/>
			<point x="443" y="422"/>
			<point x="485" y="479"/>
			<point x="485" y="551" type="curve" smooth="yes"/>
			<point x="485" y="669"/>
			<point x="392" y="724"/>
			<point x="298" y="724" type="curve" smooth="yes"/>
			<point x="159" y="724"/>
			<point x="93" y="627"/>
			<point x="93" y="495" type="curve" smooth="yes"/>
			<point x="93" y="224" type="line" smooth="yes"/>
			<point x="93" y="49"/>
			<point x="221" y="-12"/>
		</contour>
		<contour>
			<point x="326" y="60" type="curve" smooth="yes"/>
			<point x="269" y="60"/>
			<point x="171" y="94"/>
			<point x="171" y="237" type="curve" smooth="yes"/>
			<point x="171" y="316"/>
			<point x="172" y="373"/>
			<point x="173" y="480" type="curve" smooth="yes"/>
			<point x="175" y="597"/>
			<point x="219" y="657"/>
			<point x="298" y="657" type="curve" smooth="yes"/>
			<point x="354" y="657"/>
			<point x="404" y="620"/>
			<point x="404" y="545" type="curve" smooth="yes"/>
			<point x="404" y="454"/>
			<point x="337" y="395"/>
			<point x="141" y="364" type="curve"/>
			<point x="153" y="301" type="line"/>
			<point x="248" y="328"/>
			<point x="300" y="334"/>
			<point x="321" y="334" type="curve" smooth="yes"/>
			<point x="417" y="334"/>
			<point x="462" y="273"/>
			<point x="462" y="194" type="curve" smooth="yes"/>
			<point x="462" y="116"/>
			<point x="405" y="60"/>
		</contour>
	</outline>
</glyph>
<glyph name="theta.a" format="1">
	<unicode hex="03D1"/>
	<advance width="600"/>
	<outline>
		<contour>
			<point x="297" y="-12" type="curve" smooth="yes"/>
			<point x="436" y="-12"/>
			<point x="528" y="87"/>
			<point x="528" y="362" type="curve" smooth="yes"/>
			<point x="528" y="596"/>
			<point x="442" y="724"/>
			<point x="277" y="724" type="curve" smooth="yes"/>
			<point x="168" y="724"/>
			<point x="79" y="652"/>
			<point x="79" y="542" type="curve" smooth="yes"/>
			<point x="79" y="438"/>
			<point x="164" y="297"/>
			<point x="461" y="343" type="curve"/>
			<point x="479" y="401" type="line"/>
			<point x="221" y="354"/>
			<point x="158" y="452"/>
			<point x="158" y="541" type="curve" smooth="yes"/>
			<point x="158" y="611"/>
			<point x="209" y="656"/>
			<point x="280" y="656" type="curve" smooth="yes"/>
			<point x="382" y="657"/>
			<point x="447" y="575"/>
			<point x="447" y="362" type="curve" smooth="yes"/>
			<point x="447" y="119"/>
			<point x="385" y="56"/>
			<point x="301" y="56" type="curve" smooth="yes"/>
			<point x="233" y="56"/>
			<point x="178" y="93"/>
			<point x="178" y="192" type="curve" smooth="yes"/>
			<point x="178" y="237"/>
			<point x="178" y="272"/>
			<point x="170" y="291" type="curve"/>
			<point x="93" y="291" type="line"/>
			<point x="100" y="260"/>
			<point x="101" y="234"/>
			<point x="101" y="182" type="curve" smooth="yes"/>
			<point x="101" y="55"/>
			<point x="174" y="-12"/>
		</contour>
	</outline>
</glyph>
<glyph name="phi.a" format="1">
	<unicode hex="03D5"/>
	<advance width="600"/>
	<outline>
		<contour>
			<point x="260" y="-179" type="line"/>
			<point x="345" y="-179" type="line"/>
			<point x="341" y="-21"/>
			<point x="339" y="141"/>
			<point x="339" y="299" type="curve" smooth="yes"/>
			<point x="339" y="394"/>
			<point x="364" y="429"/>
			<point x="404" y="429" type="curve" smooth="yes"/>
			<point x="454" y="429"/>
			<point x="481" y="360"/>
			<point x="481" y="250" type="curve" smooth="yes"/>
			<point x="481" y="127"/>
			<point x="416" y="55"/>
			<point x="326" y="54" type="curve"/>
			<point x="326" y="-9" type="line"/>
			<point x="450" y="-9"/>
			<point x="563" y="86"/>
			<point x="563" y="254" type="curve" smooth="yes"/>
			<point x="563" y="405"/>
			<point x="506" y="498"/>
			<point x="407" y="498" type="curve" smooth="yes"/>
			<point x="322" y="498"/>
			<point x="260" y="438"/>
			<point x="260" y="296" type="curve" smooth="yes"/>
		</contour>
		<contour>
			<point x="275" y="-9" type="curve"/>
			<point x="278" y="54" type="line"/>
			<point x="186" y="54"/>
			<point x="118" y="118"/>
			<point x="118" y="234" type="curve" smooth="yes"/>
			<point x="118" y="325"/>
			<point x="150" y="385"/>
			<point x="208" y="454" type="curve"/>
			<point x="144" y="502" type="line"/>
			<point x="83" y="430"/>
			<point x="37" y="343"/>
			<point x="37" y="243" type="curve" smooth="yes"/>
			<point x="37" y="73"/>
			<point x="152" y="-9"/>
		</contour>
	</outline>
</glyph>
<glyph name="stigma" format="1">
	<unicode hex="03DB"/>
	<advance width="600"/>
	<outline>
		<contour>
			<point x="438" y="-180" type="line"/>
			<point x="479" y="-125"/>
			<point x="499" y="-71"/>
			<point x="499" y="-37" type="curve" smooth="yes"/>
			<point x="499" y="30"/>
			<point x="468" y="56"/>
			<point x="353" y="81" type="curve" smooth="yes"/>
			<point x="248" y="103"/>
			<point x="176" y="142"/>
			<point x="176" y="245" type="curve" smooth="yes"/>
			<point x="176" y="361"/>
			<point x="249" y="418"/>
			<point x="362" y="418" type="curve" smooth="yes"/>
			<point x="418" y="418"/>
			<point x="472" y="418"/>
			<point x="513" y="416" type="curve"/>
			<point x="513" y="486" type="line"/>
			<point x="357" y="486" type="line" smooth="yes"/>
			<point x="207" y="486"/>
			<point x="91" y="410"/>
			<point x="91" y="245" type="curve" smooth="yes"/>
			<point x="91" y="97"/>
			<point x="199" y="40"/>
			<point x="316" y="14" type="curve" smooth="yes"/>
			<point x="414" y="-7"/>
			<point x="425" y="-26"/>
			<point x="425" y="-57" type="curve" smooth="yes"/>
			<point x="425" y="-84"/>
			<point x="408" y="-110"/>
			<point x="373" y="-154" type="curve"/>
		</contour>
	</outline>
</glyph>
<glyph name="digamma" format="1">
	<unicode hex="03DD"/>
	<advance width="600"/>
	<outline>
		<contour>
			<point x="146" y="-179" type="line"/>
			<point x="229" y="-179" type="line"/>
			<point x="226" y="-62"/>
			<point x="225" y="35"/>
			<point x="225" y="143" type="curve"/>
			<point x="490" y="143" type="line"/>
			<point x="490" y="202" type="line"/>
			<point x="224" y="202" type="line"/>
			<point x="222" y="419" type="line"/>
			<point x="523" y="419" type="line"/>
			<point x="523" y="486" type="line"/>
			<point x="146" y="486" type="line"/>
		</contour>
	</outline>
</glyph>
<glyph name="sampi" format="1">
	<unicode hex="03E1"/>
	<advance width="600"/>
	<outline>
		<contour>
			<point x="507" y="-179" type="line"/>
			<point x="520" y="-114"/>
			<point x="525" y="-51"/>
			<point x="525" y="16" type="curve" smooth="yes"/>
			<point x="525" y="293"/>
			<point x="396" y="549"/>
			<point x="164" y="690" type="curve"/>
			<point x="113" y="629" type="line"/>
			<point x="328" y="504"/>
			<point x="445" y="269"/>
			<point x="445" y="17" type="curve" smooth="yes"/>
			<point x="445" y="-44"/>
			<point x="440" y="-105"/>
			<point x="427" y="-169" type="curve"/>
		</contour>
		<contour>
			<point x="182" y="22" type="line"/>
			<point x="287" y="75"/>
			<point x="374" y="116"/>
			<point x="473" y="160" type="curve"/>
			<point x="473" y="237" type="line"/>
			<point x="148" y="91" type="line"/>
		</contour>
		<contour>
			<point x="102" y="201" type="line"/>
			<point x="207" y="254"/>
			<point x="295" y="295"/>
			<point x="393" y="339" type="curve"/>
			<point x="394" y="417" type="line"/>
			<point x="68" y="270" type="line"/>
		</contour>
	</outline>
</glyph>
<glyph name="Lje" format="1">
	<unicode hex="0409"/>
	<advance width="600"/>
	<outline>
		<contour>
			<point x="35" y="-12" type="curve" smooth="yes"/>
			<point x="102" y="-12"/>
			<point x="140" y="31"/>
			<point x="160" y="215" type="curve" smooth="yes"/>
			<point x="175" y="354"/>
			<point x="184" y="467"/>
			<point x="188" y="586" type="curve"/>
			<point x="323" y="586" type="line"/>
			<point x="344" y="656" type="line"/>
			<point x="119" y="656" type="line"/>
			<point x="115" y="515"/>
			<point x="106" y="376"/>
			<point x="88" y="232" type="curve" smooth="yes"/>
			<point x="69" y="85"/>
			<point x="51" y="68"/>
			<point x="27" y="68" type="curve" smooth="yes"/>
			<point x="21" y="68"/>
			<point x="16" y="70"/>
			<point x="9" y="72" type="curve"/>
			<point x="-8" y="-5" type="line"/>
			<point x="8" y="-11"/>
			<point x="21" y="-12"/>
		</contour>
		<contour>
			<point x="280" y="0" type="line"/>
			<point x="375" y="0" type="line"/>
			<point x="496" y="0"/>
			<point x="574" y="62"/>
			<point x="574" y="202" type="curve" smooth="yes"/>
			<point x="574" y="333"/>
			<point x="494" y="387"/>
			<point x="378" y="387" type="curve" smooth="yes"/>
			<point x="356" y="387" type="line"/>
			<point x="356" y="656" type="line"/>
			<point x="280" y="656" type="line"/>
		</contour>
		<contour>
			<point x="356" y="68" type="line"/>
			<point x="356" y="320" type="line"/>
			<point x="369" y="320" type="line"/>
			<point x="458" y="320"/>
			<point x="500" y="283"/>
			<point x="500" y="200" type="curve" smooth="yes"/>
			<point x="500" y="107"/>
			<point x="458" y="68"/>
			<point x="372" y="68" type="curve" smooth="yes"/>
		</contour>
	</outline>
</glyph>
<glyph name="Nje" format="1">
	<unicode hex="040A"/>
	<advance width="600"/>
	<outline>
		<contour>
			<point x="39" y="0" type="line"/>
			<point x="115" y="0" type="line"/>
			<point x="115" y="309" type="line"/>
			<point x="279" y="309" type="line"/>
			<point x="279" y="381" type="line"/>
			<point x="115" y="381" type="line"/>
			<point x="115" y="656" type="line"/>
			<point x="39" y="656" type="line"/>
		</contour>
		<contour>
			<point x="267" y="0" type="line"/>
			<point x="379" y="0" type="line"/>
			<point x="497" y="0"/>
			<point x="573" y="62"/>
			<point x="573" y="202" type="curve" smooth="yes"/>
			<point x="573" y="333"/>
			<point x="494" y="387"/>
			<point x="378" y="387" type="curve" smooth="yes"/>
			<point x="343" y="387" type="line"/>
			<point x="343" y="656" type="line"/>
			<point x="267" y="656" type="line"/>
		</contour>
		<contour>
			<point x="343" y="68" type="line"/>
			<point x="343" y="320" type="line"/>
			<point x="369" y="320" type="line"/>
			<point x="456" y="320"/>
			<point x="499" y="285"/>
			<point x="499" y="200" type="curve" smooth="yes"/>
			<point x="499" y="105"/>
			<point x="456" y="68"/>
			<point x="372" y="68" type="curve" smooth="yes"/>
		</contour>
	</outline>
</glyph>
<glyph name="Tshe" format="1">
	<unicode hex="040B"/>
	<advance width="600"/>
	<outline>
		<contour>
			<point x="173" y="0" type="line"/>
			<point x="256" y="0" type="line"/>
			<point x="256" y="322" type="line"/>
			<point x="281" y="328"/>
			<point x="317" y="332"/>
			<point x="348" y="332" type="curve" smooth="yes"/>
			<point x="439" y="332"/>
			<point x="485" y="298"/>
			<point x="485" y="209" type="curve" smooth="yes"/>
			<point x="485" y="0" type="line"/>
			<point x="567" y="0" type="line"/>
			<point x="567" y="209" type="line" smooth="yes"/>
			<point x="567" y="345"/>
			<point x="490" y="401"/>
			<point x="360" y="401" type="curve" smooth="yes"/>
			<point x="325" y="401"/>
			<point x="286" y="396"/>
			<point x="256" y="391" type="curve"/>
			<point x="256" y="656" type="line"/>
			<point x="173" y="656" type="line"/>
		</contour>
		<contour>
			<point x="5" y="586" type="line"/>
			<point x="466" y="586" type="line"/>
			<point x="466" y="656" type="line"/>
			<point x="5" y="656" type="line"/>
		</contour>
	</outline>
</glyph>
<glyph name="Ka" format="1">
	<unicode hex="041A"/>
	<advance width="600"/>
	<outline>
		<contour>
			<point x="102" y="0" type="line"/>
			<point x="185" y="0" type="line"/>
			<point x="185" y="309" type="line"/>
			<point x="292" y="309" type="line"/>
			<point x="488" y="0" type="line"/>
			<point x="580" y="0" type="line"/>
			<point x="341" y="380" type="line"/>
			<point x="185" y="380" type="line"/>
			<point x="185" y="656" type="line"/>
			<point x="102" y="656" type="line"/>
		</contour>
		<contour>
			<point x="356" y="346" type="line"/>
			<point x="440" y="505" type="line" smooth="yes"/>
			<point x="478" y="577"/>
			<point x="497" y="588"/>
			<point x="526" y="588" type="curve" smooth="yes"/>
			<point x="532" y="588"/>
			<point x="541" y="587"/>
			<point x="549" y="584" type="curve"/>
			<point x="564" y="662" type="line"/>
			<point x="554" y="666"/>
			<point x="540" y="668"/>
			<point x="528" y="668" type="curve" smooth="yes"/>
			<point x="468" y="668"/>
			<point x="432" y="646"/>
			<point x="380" y="546" type="curve" smooth="yes"/>
			<point x="283" y="362" type="line"/>
		</contour>
		<contour>
			<point name="aboveUC" x="317" y="676" type="move"/>
		</contour>
	</outline>
</glyph>
<glyph name="Sha" format="1">
	<unicode hex="0428"/>
	<advance width="600"/>
	<outline>
		<contour>
			<point x="40" y="0" type="line"/>
			<point x="560" y="0" type="line"/>
			<point x="560" y="656" type="line"/>
			<point x="484" y="656" type="line"/>
			<point x="484" y="71" type="line"/>
			<point x="338" y="71" type="line"/>
			<point x="338" y="656" type="line"/>
			<point x="262" y="656" type="line"/>
			<point x="262" y="71" type="line"/>
			<point x="116" y="71" type="line"/>
			<point x="116" y="656" type="line"/>
			<point x="40" y="656" type="line"/>
		</contour>
	</outline>
</glyph>
<glyph name="Shcha" format="1">
	<unicode hex="0429"/>
	<advance width="600"/>
	<outline>
		<contour>
			<point x="38" y="0" type="line"/>
			<point x="528" y="0" type="line"/>
			<point x="528" y="656" type="line"/>
			<point x="454" y="656" type="line"/>
			<point x="454" y="71" type="line"/>
			<point x="320" y="71" type="line"/>
			<point x="320" y="656" type="line"/>
			<point x="246" y="656" type="line"/>
			<point x="246" y="71" type="line"/>
			<point x="112" y="71" type="line"/>
			<point x="112" y="656" type="line"/>
			<point x="38" y="656" type="line"/>
		</contour>
		<contour>
			<point x="517" y="-188" type="line"/>
			<point x="583" y="-188" type="line"/>
			<point x="592" y="21" type="line"/>
			<point x="592" y="71" type="line"/>
			<point x="484" y="71" type="line"/>
			<point x="484" y="0" type="line"/>
			<point x="517" y="0" type="line"/>
		</contour>
	</outline>
</glyph>
<glyph name="Hard" format="1">
	<unicode hex="042A"/>
	<advance width="600"/>
	<outline>
		<contour>
			<point x="201" y="0" type="line"/>
			<point x="347" y="0" type="line" smooth="yes"/>
			<point x="485" y="0"/>
			<point x="573" y="62"/>
			<point x="573" y="202" type="curve" smooth="yes"/>
			<point x="573" y="331"/>
			<point x="474" y="387"/>
			<point x="340" y="387" type="curve" smooth="yes"/>
			<point x="285" y="387" type="line"/>
			<point x="285" y="656" type="line"/>
			<point x="19" y="656" type="line"/>
			<point x="19" y="586" type="line"/>
			<point x="201" y="586" type="line"/>
		</contour>
		<contour>
			<point x="285" y="68" type="line"/>
			<point x="285" y="320" type="line"/>
			<point x="329" y="320" type="line" smooth="yes"/>
			<point x="436" y="320"/>
			<point x="493" y="280"/>
			<point x="493" y="200" type="curve" smooth="yes"/>
			<point x="493" y="107"/>
			<point x="439" y="68"/>
			<point x="336" y="68" type="curve" smooth="yes"/>
		</contour>
	</outline>
</glyph>
<glyph name="Yeru" format="1">
	<unicode hex="042B"/>
	<advance width="600"/>
	<outline>
		<contour>
			<point x="55" y="0" type="line"/>
			<point x="168" y="0" type="line" smooth="yes"/>
			<point x="301" y="0"/>
			<point x="386" y="62"/>
			<point x="386" y="202" type="curve" smooth="yes"/>
			<point x="386" y="333"/>
			<point x="298" y="387"/>
			<point x="167" y="387" type="curve" smooth="yes"/>
			<point x="131" y="387" type="line"/>
			<point x="131" y="656" type="line"/>
			<point x="55" y="656" type="line"/>
		</contour>
		<contour>
			<point x="131" y="68" type="line"/>
			<point x="131" y="320" type="line"/>
			<point x="159" y="320" type="line" smooth="yes"/>
			<point x="261" y="320"/>
			<point x="313" y="283"/>
			<point x="313" y="200" type="curve" smooth="yes"/>
			<point x="313" y="107"/>
			<point x="261" y="68"/>
			<point x="161" y="68" type="curve" smooth="yes"/>
		</contour>
		<contour>
			<point x="469" y="0" type="line"/>
			<point x="545" y="0" type="line"/>
			<point x="545" y="656" type="line"/>
			<point x="469" y="656" type="line"/>
		</contour>
		<contour>
			<point name="aboveUC" x="300" y="676" type="move"/>
		</contour>
	</outline>
</glyph>
<glyph name="Soft" format="1">
	<unicode hex="042C"/>
	<advance width="600"/>
	<outline>
		<contour>
			<point x="98" y="0" type="line"/>
			<point x="304" y="0" type="line" smooth="yes"/>
			<point x="451" y="0"/>
			<point x="545" y="62"/>
			<point x="545" y="202" type="curve" smooth="yes"/>
			<point x="545" y="333"/>
			<point x="447" y="387"/>
			<point x="303" y="387" type="curve" smooth="yes"/>
			<point x="182" y="387" type="line"/>
			<point x="182" y="656" type="line"/>
			<point x="98" y="656" type="line"/>
		</contour>
		<contour>
			<point x="182" y="68" type="line"/>
			<point x="182" y="320" type="line"/>
			<point x="291" y="320" type="line" smooth="yes"/>
			<point x="405" y="320"/>
			<point x="463" y="283"/>
			<point x="463" y="200" type="curve" smooth="yes"/>
			<point x="463" y="107"/>
			<point x="404" y="68"/>
			<point x="293" y="68" type="curve" smooth="yes"/>
		</contour>
	</outline>
</glyph>
<glyph name="be" format="1">
	<unicode hex="0431"/>
	<advance width="600"/>
	<outline>
		<contour>
			<point x="311" y="-12" type="curve" smooth="yes"/>
			<point x="437" y="-12"/>
			<point x="531" y="86"/>
			<point x="531" y="241" type="curve" smooth="yes"/>
			<point x="531" y="383"/>
			<point x="448" y="468"/>
			<point x="329" y="468" type="curve" smooth="yes"/>
			<point x="262" y="468"/>
			<point x="195" y="437"/>
			<point x="151" y="377" type="curve"/>
			<point x="154" y="315" type="line"/>
			<point x="204" y="384"/>
			<point x="259" y="405"/>
			<point x="309" y="405" type="curve" smooth="yes"/>
			<point x="397" y="405"/>
			<point x="446" y="341"/>
			<point x="446" y="241" type="curve" smooth="yes"/>
			<point x="446" y="131"/>
			<point x="396" y="56"/>
			<point x="310" y="56" type="curve" smooth="yes"/>
			<point x="207" y="56"/>
			<point x="155" y="145"/>
			<point x="155" y="279" type="curve" smooth="yes"/>
			<point x="155" y="577"/>
			<point x="220" y="596"/>
			<point x="403" y="624" type="curve" smooth="yes"/>
			<point x="447" y="631"/>
			<point x="483" y="638"/>
			<point x="510" y="655" type="curve"/>
			<point x="493" y="730" type="line"/>
			<point x="462" y="715"/>
			<point x="445" y="711"/>
			<point x="386" y="703" type="curve" smooth="yes"/>
			<point x="197" y="674"/>
			<point x="75" y="617"/>
			<point x="75" y="295" type="curve" smooth="yes"/>
			<point x="75" y="105"/>
			<point x="162" y="-12"/>
		</contour>
	</outline>
</glyph>
<glyph name="ve" format="1">
	<unicode hex="0432"/>
	<advance width="600"/>
	<outline>
		<contour>
			<point x="104" y="0" type="line"/>
			<point x="337" y="0" type="line"/>
			<point x="455" y="0"/>
			<point x="539" y="43"/>
			<point x="539" y="139" type="curve" smooth="yes"/>
			<point x="539" y="209"/>
			<point x="490" y="242"/>
			<point x="433" y="256" type="curve"/>
			<point x="433" y="259" type="line"/>
			<point x="485" y="275"/>
			<point x="518" y="309"/>
			<point x="518" y="363" type="curve" smooth="yes"/>
			<point x="518" y="451"/>
			<point x="441" y="486"/>
			<point x="329" y="486" type="curve" smooth="yes"/>
			<point x="104" y="486" type="line"/>
		</contour>
		<contour>
			<point x="185" y="284" type="line"/>
			<point x="185" y="420" type="line"/>
			<point x="321" y="420" type="line"/>
			<point x="403" y="420"/>
			<point x="438" y="400"/>
			<point x="438" y="355" type="curve" smooth="yes"/>
			<point x="438" y="310"/>
			<point x="403" y="284"/>
			<point x="315" y="284" type="curve" smooth="yes"/>
		</contour>
		<contour>
			<point x="185" y="66" type="line"/>
			<point x="185" y="220" type="line"/>
			<point x="323" y="220" type="line"/>
			<point x="411" y="220"/>
			<point x="457" y="193"/>
			<point x="457" y="144" type="curve" smooth="yes"/>
			<point x="457" y="90"/>
			<point x="416" y="66"/>
			<point x="328" y="66" type="curve" smooth="yes"/>
		</contour>
		<contour>
			<point name="aboveLC" x="320" y="507" type="move"/>
		</contour>
	</outline>
</glyph>
<glyph name="ghe" format="1">
	<unicode hex="0433"/>
	<advance width="600"/>
	<outline>
		<contour>
			<point x="146" y="0" type="line"/>
			<point x="228" y="0" type="line"/>
			<point x="228" y="419" type="line"/>
			<point x="523" y="419" type="line"/>
			<point x="523" y="486" type="line"/>
			<point x="146" y="486" type="line"/>
		</contour>
		<contour>
			<point name="aboveLC" x="349" y="507" type="move"/>
		</contour>
	</outline>
</glyph>
<glyph name="de" format="1">
	<unicode hex="0434"/>
	<advance width="600"/>
	<outline>
		<contour>
			<point x="404" y="0" type="line"/>
			<point x="486" y="0" type="line"/>
			<point x="486" y="486" type="line"/>
			<point x="160" y="486" type="line"/>
			<point x="134" y="271" type="line" smooth="yes"/>
			<point x="115" y="114"/>
			<point x="93" y="82"/>
			<point x="66" y="67" type="curve"/>
			<point x="84" y="19" type="line"/>
			<point x="137" y="29"/>
			<point x="186" y="75"/>
			<point x="206" y="255" type="curve" smooth="yes"/>
			<point x="225" y="419" type="line"/>
			<point x="404" y="419" type="line"/>
		</contour>
		<contour>
			<point x="51" y="-172" type="line"/>
			<point x="121" y="-172" type="line"/>
			<point x="121" y="0" type="line"/>
			<point x="477" y="0" type="line"/>
			<point x="477" y="-172" type="line"/>
			<point x="548" y="-172" type="line"/>
			<point x="557" y="15" type="line"/>
			<point x="557" y="67" type="line"/>
			<point x="42" y="67" type="line"/>
			<point x="42" y="15" type="line"/>
		</contour>
		<contour>
			<point name="aboveLC" x="333" y="507" type="move"/>
		</contour>
	</outline>
</glyph>
<glyph name="ka" format="1">
	<unicode hex="043A"/>
	<advance width="600"/>
	<outline>
		<contour>
			<point x="110" y="0" type="line"/>
			<point x="192" y="0" type="line"/>
			<point x="192" y="219" type="line"/>
			<point x="320" y="219" type="line"/>
			<point x="469" y="0" type="line"/>
			<point x="560" y="0" type="line"/>
			<point x="361" y="286" type="line"/>
			<point x="192" y="286" type="line"/>
			<point x="192" y="486" type="line"/>
			<point x="110" y="486" type="line"/>
		</contour>
		<contour>
			<point x="373" y="237" type="line"/>
			<point x="436" y="352" type="line" smooth="yes"/>
			<point x="466" y="407"/>
			<point x="481" y="418"/>
			<point x="506" y="418" type="curve" smooth="yes"/>
			<point x="514" y="418"/>
			<point x="519" y="417"/>
			<point x="526" y="415" type="curve"/>
			<point x="540" y="492" type="line"/>
			<point x="532" y="496"/>
			<point x="520" y="498"/>
			<point x="508" y="498" type="curve" smooth="yes"/>
			<point x="454" y="498"/>
			<point x="423" y="477"/>
			<point x="379" y="394" type="curve" smooth="yes"/>
			<point x="301" y="251" type="line"/>
		</contour>
		<contour>
			<point name="aboveLC" x="320" y="507" type="move"/>
		</contour>
	</outline>
</glyph>
